<svg width="397" height="88" viewBox="0 0 397 88" fill="none" xmlns="http://www.w3.org/2000/svg">
<rect x="1.5" y="1.5" width="394" height="85" rx="42.5" stroke="#996213" stroke-width="3"/>
<path d="M71.25 43.6115H68.5469V41.6896H71.1406C72.2865 41.6896 73.2136 41.5281 73.9219 41.2052C74.6302 40.8823 75.1458 40.4344 75.4688 39.8615C75.7917 39.2885 75.9531 38.6271 75.9531 37.8771C75.9531 37.1583 75.7761 36.5021 75.4219 35.9083C75.0677 35.3042 74.5208 34.825 73.7813 34.4708C73.0417 34.1062 72.0886 33.924 70.9219 33.924C70.0469 33.924 69.2552 34.0906 68.5469 34.424C67.8386 34.7469 67.2761 35.2 66.8594 35.7833C66.4427 36.3562 66.2344 37.0177 66.2344 37.7677H63.2188C63.2188 36.799 63.4219 35.9292 63.8281 35.1583C64.2344 34.3771 64.7917 33.7156 65.5 33.174C66.2083 32.6219 67.0261 32.2 67.9531 31.9083C68.8906 31.6167 69.8802 31.4708 70.9219 31.4708C72.1406 31.4708 73.2448 31.6115 74.2344 31.8927C75.224 32.1635 76.0729 32.5698 76.7813 33.1115C77.4896 33.6531 78.0313 34.325 78.4063 35.1271C78.7813 35.9292 78.9688 36.8615 78.9688 37.924C78.9688 38.7052 78.7865 39.4396 78.4219 40.1271C78.0573 40.8146 77.5365 41.4187 76.8594 41.9396C76.1823 42.4604 75.3698 42.8719 74.4219 43.174C73.474 43.4656 72.4167 43.6115 71.25 43.6115ZM68.5469 42.2833H71.25C72.5313 42.2833 73.6719 42.4135 74.6719 42.674C75.6719 42.9344 76.5156 43.3146 77.2031 43.8146C77.8906 44.3146 78.4115 44.9344 78.7656 45.674C79.1302 46.4031 79.3125 47.2417 79.3125 48.1896C79.3125 49.2521 79.1042 50.1948 78.6875 51.0177C78.2813 51.8406 77.7031 52.5385 76.9531 53.1115C76.2031 53.6844 75.3125 54.1167 74.2813 54.4083C73.2604 54.7 72.1406 54.8458 70.9219 54.8458C69.9427 54.8458 68.974 54.7208 68.0156 54.4708C67.0677 54.2104 66.2083 53.8146 65.4375 53.2833C64.6667 52.7417 64.0469 52.0542 63.5781 51.2208C63.1198 50.3875 62.8906 49.3875 62.8906 48.2208H65.9063C65.9063 48.9812 66.1146 49.6792 66.5313 50.3146C66.9583 50.95 67.5469 51.4604 68.2969 51.8458C69.0469 52.2208 69.9219 52.4083 70.9219 52.4083C72.0677 52.4083 73.0365 52.2312 73.8281 51.8771C74.6302 51.5125 75.2396 51.0177 75.6563 50.3927C76.0833 49.7573 76.2969 49.0437 76.2969 48.2521C76.2969 47.5542 76.1823 46.95 75.9531 46.4396C75.7344 45.9187 75.4063 45.4917 74.9688 45.1583C74.5417 44.825 74.0052 44.5802 73.3594 44.424C72.724 44.2573 71.9844 44.174 71.1406 44.174H68.5469V42.2833ZM92.8125 51.6427V42.9396C92.8125 42.2729 92.6771 41.6948 92.4063 41.2052C92.1458 40.7052 91.75 40.3198 91.2188 40.049C90.6875 39.7781 90.0313 39.6427 89.25 39.6427C88.5208 39.6427 87.8802 39.7677 87.3281 40.0177C86.7865 40.2677 86.3594 40.5958 86.0469 41.0021C85.7448 41.4083 85.5938 41.8458 85.5938 42.3146H82.7031C82.7031 41.7104 82.8594 41.1115 83.1719 40.5177C83.4844 39.924 83.9323 39.3875 84.5156 38.9083C85.1094 38.4187 85.8177 38.0333 86.6406 37.7521C87.474 37.4604 88.4011 37.3146 89.4219 37.3146C90.6511 37.3146 91.7344 37.5229 92.6719 37.9396C93.6198 38.3562 94.3594 38.9865 94.8906 39.8302C95.4323 40.6635 95.7031 41.7104 95.7031 42.9708V50.8458C95.7031 51.4083 95.75 52.0073 95.8438 52.6427C95.9479 53.2781 96.099 53.825 96.2969 54.2833V54.5333H93.2813C93.1354 54.2 93.0208 53.7573 92.9375 53.2052C92.8542 52.6427 92.8125 52.1219 92.8125 51.6427ZM93.3125 44.2833L93.3438 46.3146H90.4219C89.599 46.3146 88.8646 46.3823 88.2188 46.5177C87.5729 46.6427 87.0313 46.8354 86.5938 47.0958C86.1563 47.3562 85.8229 47.6844 85.5938 48.0802C85.3646 48.4656 85.25 48.9187 85.25 49.4396C85.25 49.9708 85.3698 50.4552 85.6094 50.8927C85.849 51.3302 86.2083 51.6792 86.6875 51.9396C87.1771 52.1896 87.7761 52.3146 88.4844 52.3146C89.3698 52.3146 90.1511 52.1271 90.8281 51.7521C91.5052 51.3771 92.0417 50.9187 92.4375 50.3771C92.8438 49.8354 93.0625 49.3094 93.0938 48.799L94.3281 50.1896C94.2552 50.6271 94.0573 51.1115 93.7344 51.6427C93.4115 52.174 92.9792 52.6844 92.4375 53.174C91.9063 53.6531 91.2708 54.0542 90.5313 54.3771C89.8021 54.6896 88.9792 54.8458 88.0625 54.8458C86.9167 54.8458 85.9115 54.6219 85.0469 54.174C84.1927 53.726 83.5261 53.1271 83.0469 52.3771C82.5781 51.6167 82.3438 50.7677 82.3438 49.8302C82.3438 48.924 82.5208 48.1271 82.875 47.4396C83.2292 46.7417 83.7396 46.1635 84.4063 45.7052C85.0729 45.2365 85.875 44.8823 86.8125 44.6427C87.75 44.4031 88.7969 44.2833 89.9531 44.2833H93.3125ZM103.391 37.6271V54.5333H100.5V37.6271H103.391ZM114.484 37.6271L106.469 47.3146H102.422L101.984 44.7833H105.297L110.969 37.6271H114.484ZM111.375 54.5333L105.156 46.8771L107.016 44.7833L115.047 54.5333H111.375ZM127.531 51.6427V42.9396C127.531 42.2729 127.396 41.6948 127.125 41.2052C126.865 40.7052 126.469 40.3198 125.938 40.049C125.406 39.7781 124.75 39.6427 123.969 39.6427C123.24 39.6427 122.599 39.7677 122.047 40.0177C121.505 40.2677 121.078 40.5958 120.766 41.0021C120.464 41.4083 120.313 41.8458 120.313 42.3146H117.422C117.422 41.7104 117.578 41.1115 117.891 40.5177C118.203 39.924 118.651 39.3875 119.234 38.9083C119.828 38.4187 120.536 38.0333 121.359 37.7521C122.193 37.4604 123.12 37.3146 124.141 37.3146C125.37 37.3146 126.453 37.5229 127.391 37.9396C128.339 38.3562 129.078 38.9865 129.609 39.8302C130.151 40.6635 130.422 41.7104 130.422 42.9708V50.8458C130.422 51.4083 130.469 52.0073 130.563 52.6427C130.667 53.2781 130.818 53.825 131.016 54.2833V54.5333H128C127.854 54.2 127.74 53.7573 127.656 53.2052C127.573 52.6427 127.531 52.1219 127.531 51.6427ZM128.031 44.2833L128.063 46.3146H125.141C124.318 46.3146 123.583 46.3823 122.938 46.5177C122.292 46.6427 121.75 46.8354 121.313 47.0958C120.875 47.3562 120.542 47.6844 120.313 48.0802C120.083 48.4656 119.969 48.9187 119.969 49.4396C119.969 49.9708 120.089 50.4552 120.328 50.8927C120.568 51.3302 120.927 51.6792 121.406 51.9396C121.896 52.1896 122.495 52.3146 123.203 52.3146C124.089 52.3146 124.87 52.1271 125.547 51.7521C126.224 51.3771 126.76 50.9187 127.156 50.3771C127.563 49.8354 127.781 49.3094 127.813 48.799L129.047 50.1896C128.974 50.6271 128.776 51.1115 128.453 51.6427C128.13 52.174 127.698 52.6844 127.156 53.174C126.625 53.6531 125.99 54.0542 125.25 54.3771C124.521 54.6896 123.698 54.8458 122.781 54.8458C121.635 54.8458 120.63 54.6219 119.766 54.174C118.911 53.726 118.245 53.1271 117.766 52.3771C117.297 51.6167 117.063 50.7677 117.063 49.8302C117.063 48.924 117.24 48.1271 117.594 47.4396C117.948 46.7417 118.458 46.1635 119.125 45.7052C119.792 45.2365 120.594 44.8823 121.531 44.6427C122.469 44.4031 123.516 44.2833 124.672 44.2833H128.031ZM141.281 46.4552H138.172V44.674H141.047C141.849 44.674 142.484 44.575 142.953 44.3771C143.422 44.1687 143.755 43.8823 143.953 43.5177C144.151 43.1531 144.25 42.726 144.25 42.2365C144.25 41.799 144.135 41.3875 143.906 41.0021C143.688 40.6062 143.333 40.2885 142.844 40.049C142.354 39.799 141.698 39.674 140.875 39.674C140.208 39.674 139.604 39.7937 139.063 40.0333C138.521 40.2625 138.089 40.5802 137.766 40.9865C137.453 41.3823 137.297 41.8302 137.297 42.3302H134.406C134.406 41.299 134.698 40.4135 135.281 39.674C135.875 38.924 136.661 38.3458 137.641 37.9396C138.63 37.5333 139.708 37.3302 140.875 37.3302C141.854 37.3302 142.729 37.4396 143.5 37.6583C144.281 37.8667 144.943 38.1792 145.484 38.5958C146.026 39.0021 146.438 39.5125 146.719 40.1271C147.01 40.7312 147.156 41.4344 147.156 42.2365C147.156 42.8094 147.021 43.351 146.75 43.8615C146.479 44.3719 146.089 44.825 145.578 45.2208C145.068 45.6062 144.448 45.9083 143.719 46.1271C143 46.3458 142.188 46.4552 141.281 46.4552ZM138.172 45.3615H141.281C142.292 45.3615 143.182 45.4604 143.953 45.6583C144.724 45.8458 145.37 46.1271 145.891 46.5021C146.411 46.8771 146.802 47.3406 147.063 47.8927C147.333 48.4344 147.469 49.0594 147.469 49.7677C147.469 50.5594 147.307 51.2729 146.984 51.9083C146.672 52.5333 146.224 53.0646 145.641 53.5021C145.057 53.9396 144.359 54.2729 143.547 54.5021C142.745 54.7312 141.854 54.8458 140.875 54.8458C139.781 54.8458 138.719 54.6583 137.688 54.2833C136.656 53.9083 135.807 53.3302 135.141 52.549C134.474 51.7573 134.141 50.7521 134.141 49.5333H137.031C137.031 50.0437 137.193 50.5281 137.516 50.9865C137.839 51.4448 138.286 51.8146 138.859 52.0958C139.443 52.3771 140.115 52.5177 140.875 52.5177C141.688 52.5177 142.365 52.3927 142.906 52.1427C143.448 51.8927 143.854 51.5594 144.125 51.1427C144.406 50.726 144.547 50.2729 144.547 49.7833C144.547 49.1479 144.422 48.6375 144.172 48.2521C143.922 47.8667 143.536 47.5854 143.016 47.4083C142.505 47.2208 141.849 47.1271 141.047 47.1271H138.172V45.3615ZM161.188 51.6427V42.9396C161.188 42.2729 161.052 41.6948 160.781 41.2052C160.521 40.7052 160.125 40.3198 159.594 40.049C159.063 39.7781 158.406 39.6427 157.625 39.6427C156.896 39.6427 156.255 39.7677 155.703 40.0177C155.161 40.2677 154.734 40.5958 154.422 41.0021C154.12 41.4083 153.969 41.8458 153.969 42.3146H151.078C151.078 41.7104 151.234 41.1115 151.547 40.5177C151.859 39.924 152.307 39.3875 152.891 38.9083C153.484 38.4187 154.193 38.0333 155.016 37.7521C155.849 37.4604 156.776 37.3146 157.797 37.3146C159.026 37.3146 160.109 37.5229 161.047 37.9396C161.995 38.3562 162.734 38.9865 163.266 39.8302C163.807 40.6635 164.078 41.7104 164.078 42.9708V50.8458C164.078 51.4083 164.125 52.0073 164.219 52.6427C164.323 53.2781 164.474 53.825 164.672 54.2833V54.5333H161.656C161.51 54.2 161.396 53.7573 161.313 53.2052C161.229 52.6427 161.188 52.1219 161.188 51.6427ZM161.688 44.2833L161.719 46.3146H158.797C157.974 46.3146 157.24 46.3823 156.594 46.5177C155.948 46.6427 155.406 46.8354 154.969 47.0958C154.531 47.3562 154.198 47.6844 153.969 48.0802C153.74 48.4656 153.625 48.9187 153.625 49.4396C153.625 49.9708 153.745 50.4552 153.984 50.8927C154.224 51.3302 154.583 51.6792 155.063 51.9396C155.552 52.1896 156.151 52.3146 156.859 52.3146C157.745 52.3146 158.526 52.1271 159.203 51.7521C159.88 51.3771 160.417 50.9187 160.813 50.3771C161.219 49.8354 161.438 49.3094 161.469 48.799L162.703 50.1896C162.63 50.6271 162.432 51.1115 162.109 51.6427C161.786 52.174 161.354 52.6844 160.813 53.174C160.281 53.6531 159.646 54.0542 158.906 54.3771C158.177 54.6896 157.354 54.8458 156.438 54.8458C155.292 54.8458 154.286 54.6219 153.422 54.174C152.568 53.726 151.901 53.1271 151.422 52.3771C150.953 51.6167 150.719 50.7677 150.719 49.8302C150.719 48.924 150.896 48.1271 151.25 47.4396C151.604 46.7417 152.115 46.1635 152.781 45.7052C153.448 45.2365 154.25 44.8823 155.188 44.6427C156.125 44.4031 157.172 44.2833 158.328 44.2833H161.688ZM175.266 37.6271V54.5333H172.359V37.6271H175.266ZM180.938 37.6271V39.9708H166.797V37.6271H180.938ZM186.156 43.4396H191.234C192.599 43.4396 193.75 43.6792 194.688 44.1583C195.625 44.6271 196.333 45.2781 196.813 46.1115C197.302 46.9344 197.547 47.8719 197.547 48.924C197.547 49.7052 197.411 50.4396 197.141 51.1271C196.87 51.8042 196.464 52.3979 195.922 52.9083C195.391 53.4187 194.729 53.8198 193.938 54.1115C193.156 54.3927 192.255 54.5333 191.234 54.5333H184.047V37.6271H186.938V52.1583H191.234C192.068 52.1583 192.734 52.0073 193.234 51.7052C193.734 51.4031 194.094 51.0125 194.313 50.5333C194.531 50.0542 194.641 49.5542 194.641 49.0333C194.641 48.5229 194.531 48.0229 194.313 47.5333C194.094 47.0437 193.734 46.6375 193.234 46.3146C192.734 45.9812 192.068 45.8146 191.234 45.8146H186.156V43.4396ZM217.031 47.0958H211.484L211.453 44.7833H215.984C216.88 44.7833 217.625 44.6948 218.219 44.5177C218.823 44.3406 219.276 44.075 219.578 43.7208C219.88 43.3667 220.031 42.9292 220.031 42.4083C220.031 42.0021 219.943 41.6479 219.766 41.3458C219.599 41.0333 219.344 40.7781 219 40.5802C218.656 40.3719 218.229 40.2208 217.719 40.1271C217.219 40.0229 216.63 39.9708 215.953 39.9708H212.25V54.5333H209.359V37.6271H215.953C217.026 37.6271 217.99 37.7208 218.844 37.9083C219.708 38.0958 220.443 38.3823 221.047 38.7677C221.661 39.1427 222.13 39.6219 222.453 40.2052C222.776 40.7885 222.938 41.476 222.938 42.2677C222.938 42.7781 222.833 43.2625 222.625 43.7208C222.417 44.1792 222.109 44.5854 221.703 44.9396C221.297 45.2937 220.797 45.5854 220.203 45.8146C219.609 46.0333 218.927 46.174 218.156 46.2365L217.031 47.0958ZM217.031 54.5333H210.438L211.875 52.1896H217.031C217.833 52.1896 218.5 52.0906 219.031 51.8927C219.563 51.6844 219.958 51.3927 220.219 51.0177C220.49 50.6323 220.625 50.174 220.625 49.6427C220.625 49.1115 220.49 48.6583 220.219 48.2833C219.958 47.8979 219.563 47.6062 219.031 47.4083C218.5 47.2 217.833 47.0958 217.031 47.0958H212.641L212.672 44.7833H218.156L219.203 45.6583C220.13 45.7312 220.917 45.9604 221.563 46.3458C222.208 46.7312 222.698 47.2208 223.031 47.8146C223.365 48.3979 223.531 49.0333 223.531 49.7208C223.531 50.5125 223.38 51.2104 223.078 51.8146C222.786 52.4187 222.359 52.924 221.797 53.3302C221.234 53.726 220.552 54.0281 219.75 54.2365C218.948 54.4344 218.042 54.5333 217.031 54.5333ZM229.781 43.4396H234.859C236.224 43.4396 237.375 43.6792 238.313 44.1583C239.25 44.6271 239.958 45.2781 240.438 46.1115C240.927 46.9344 241.172 47.8719 241.172 48.924C241.172 49.7052 241.036 50.4396 240.766 51.1271C240.495 51.8042 240.089 52.3979 239.547 52.9083C239.016 53.4187 238.354 53.8198 237.563 54.1115C236.781 54.3927 235.88 54.5333 234.859 54.5333H227.672V37.6271H230.563V52.1583H234.859C235.693 52.1583 236.359 52.0073 236.859 51.7052C237.359 51.4031 237.719 51.0125 237.938 50.5333C238.156 50.0542 238.266 49.5542 238.266 49.0333C238.266 48.5229 238.156 48.0229 237.938 47.5333C237.719 47.0437 237.359 46.6375 236.859 46.3146C236.359 45.9812 235.693 45.8146 234.859 45.8146H229.781V43.4396ZM247.188 37.6271V54.5333H244.297V37.6271H247.188ZM263.516 37.6271V40.0177H254.969V37.6271H263.516ZM255.391 37.6271V54.5333H252.5V37.6271H255.391ZM266.078 37.6271V54.5333H263.172V37.6271H266.078ZM277.734 54.8458C276.557 54.8458 275.49 54.6479 274.531 54.2521C273.583 53.8458 272.766 53.2781 272.078 52.549C271.401 51.8198 270.88 50.9552 270.516 49.9552C270.151 48.9552 269.969 47.8615 269.969 46.674V46.0177C269.969 44.6427 270.172 43.4187 270.578 42.3458C270.984 41.2625 271.536 40.3458 272.234 39.5958C272.932 38.8458 273.724 38.2781 274.609 37.8927C275.495 37.5073 276.411 37.3146 277.359 37.3146C278.568 37.3146 279.609 37.5229 280.484 37.9396C281.37 38.3562 282.094 38.9396 282.656 39.6896C283.219 40.4292 283.635 41.3042 283.906 42.3146C284.177 43.3146 284.313 44.4083 284.313 45.5958V46.8927H271.688V44.5333H281.422V44.3146C281.38 43.5646 281.224 42.8354 280.953 42.1271C280.693 41.4187 280.276 40.8354 279.703 40.3771C279.13 39.9187 278.349 39.6896 277.359 39.6896C276.703 39.6896 276.099 39.8302 275.547 40.1115C274.995 40.3823 274.521 40.7885 274.125 41.3302C273.729 41.8719 273.422 42.5333 273.203 43.3146C272.984 44.0958 272.875 44.9969 272.875 46.0177V46.674C272.875 47.476 272.984 48.2312 273.203 48.9396C273.432 49.6375 273.76 50.2521 274.188 50.7833C274.625 51.3146 275.151 51.7312 275.766 52.0333C276.391 52.3354 277.099 52.4865 277.891 52.4865C278.911 52.4865 279.776 52.2781 280.484 51.8615C281.193 51.4448 281.813 50.8875 282.344 50.1896L284.094 51.5802C283.729 52.1323 283.266 52.6583 282.703 53.1583C282.141 53.6583 281.448 54.0646 280.625 54.3771C279.813 54.6896 278.849 54.8458 277.734 54.8458ZM300.438 37.6271V54.5333H297.547V37.6271H300.438ZM299.453 45.3927V47.7677C298.87 47.9865 298.276 48.1844 297.672 48.3615C297.078 48.5281 296.448 48.6635 295.781 48.7677C295.125 48.8615 294.411 48.9083 293.641 48.9083C292.307 48.9083 291.151 48.6792 290.172 48.2208C289.193 47.7521 288.438 47.049 287.906 46.1115C287.375 45.1635 287.109 43.9708 287.109 42.5333V37.5958H290V42.5333C290 43.4708 290.141 44.2312 290.422 44.8146C290.703 45.3979 291.115 45.8302 291.656 46.1115C292.198 46.3823 292.859 46.5177 293.641 46.5177C294.391 46.5177 295.094 46.4708 295.75 46.3771C296.417 46.2729 297.052 46.1375 297.656 45.9708C298.271 45.8042 298.87 45.6115 299.453 45.3927ZM308.234 37.6271V54.5333H305.344V37.6271H308.234ZM319.328 37.6271L311.313 47.3146H307.266L306.828 44.7833H310.141L315.813 37.6271H319.328ZM316.219 54.5333L310 46.8771L311.859 44.7833L319.891 54.5333H316.219ZM327.156 52.7833L331.859 37.6271H334.953L328.172 57.1427C328.016 57.5594 327.807 58.0073 327.547 58.4865C327.297 58.976 326.974 59.4396 326.578 59.8771C326.182 60.3146 325.703 60.6687 325.141 60.9396C324.589 61.2208 323.927 61.3615 323.156 61.3615C322.927 61.3615 322.635 61.3302 322.281 61.2677C321.927 61.2052 321.677 61.1531 321.531 61.1115L321.516 58.7677C321.599 58.7781 321.729 58.7885 321.906 58.799C322.094 58.8198 322.224 58.8302 322.297 58.8302C322.953 58.8302 323.51 58.7417 323.969 58.5646C324.427 58.3979 324.812 58.1115 325.125 57.7052C325.448 57.3094 325.724 56.7625 325.953 56.0646L327.156 52.7833ZM323.703 37.6271L328.094 50.7521L328.844 53.799L326.766 54.8615L320.547 37.6271H323.703Z" fill="#996213"/>
</svg>
