<svg width="308" height="70" viewBox="0 0 308 70" fill="none" xmlns="http://www.w3.org/2000/svg">
<path d="M48.1182 45.3938C44.0245 52.4867 40.2372 59.5797 37.0848 65.7313C35.5085 68.7305 28.6564 67.7016 30.2326 64.1551C36.1434 50.8339 44.3419 34.9952 52.3762 22.0681C51.1393 21.1814 49.1472 19.9446 46.4763 19.1674C38.1903 16.7593 30.3421 20.8093 25.099 23.502C22.0889 25.0453 19.9325 26.6434 15.5979 29.7849C11.4932 32.7622 8.23134 35.4549 5.95459 37.4252C7.27904 35.225 9.18363 32.4338 11.8216 29.5113C16.2328 24.6075 20.5783 21.6631 22.7237 20.3058C26.8613 17.7006 32.8487 13.9352 41.4412 13.3004C47.8555 12.8297 53.022 14.3184 55.047 14.9751C57.1815 15.6756 58.9109 16.4638 60.1697 17.0986C61.2752 17.8101 63.7162 19.0689 63.3221 20.7983C63.0047 21.1924 62.7748 21.5864 62.534 21.9805C62.4574 22.0571 62.4574 22.0571 62.4574 22.0571C59.9398 25.6802 57.4879 29.6207 54.9704 33.7255C60.3339 27.6614 68.6856 19.2221 74.8372 17.011C78.7011 16.1463 83.3531 22.4512 79.8833 23.5567C62.8624 31.4378 40.0839 51.3812 66.0914 61.7032C59.1517 74.6303 44.5718 61.7908 48.1182 45.3938Z" fill="#996213"/>
<path d="M78.2961 67.8548C77.1905 67.8548 76.2492 67.7782 75.2969 67.614V67.5374C72.2211 67.0667 62.6872 61.55 73.6441 44.9997C73.6441 44.9231 73.7207 44.8465 73.7973 44.7589C74.5854 43.5768 75.5268 42.318 76.6323 40.895C77.8911 39.3954 79.2374 37.7426 80.7261 35.9256L80.8793 36.0022L81.2734 36.243L81.4266 36.3963C81.6674 36.5495 81.9739 36.7903 82.2913 37.1844C82.6088 37.5018 82.9262 37.8958 83.2327 38.2899C83.8675 39.3188 84.4148 40.6542 84.2616 42.307V42.4603C84.1084 44.3539 83.4735 45.8535 82.6854 46.7182C78.9857 51.2936 77.092 54.8401 76.2273 57.5109C75.0451 60.9808 75.1984 63.4983 75.5924 64.5272C77.4861 70.3614 85.7612 60.2693 88.1255 55.1466C90.5664 49.7831 87.7315 45.2953 86.002 43.7191C83.3203 41.4314 83.8785 38.2789 85.2905 36.0788L85.5313 35.838C89.6251 35.838 94.5179 38.3556 95.3826 42.5369C97.4514 52.0161 88.9355 67.7782 78.2961 67.8548Z" fill="#996213"/>
<path d="M111.955 42.9528C111.878 44.135 111.561 44.9997 111.167 45.7112L110.455 46.8934L121.018 37.1187C122.353 35.8599 124.488 35.8599 125.747 37.2719C126.611 38.2133 127.323 39.3954 127.399 41.0592L127.476 41.2124C127.553 42.318 127.399 43.2593 127.235 44.0474C127.235 44.1241 127.235 44.1241 127.159 44.2007C127.005 44.748 126.841 45.3062 126.611 45.7003C126.535 45.7769 126.535 45.7769 126.458 45.8535C125.747 47.6705 125.353 49.3234 125.123 50.6588C124.805 52.3116 124.805 53.7346 124.882 54.9167C124.017 54.6759 123.229 54.5227 122.594 54.2052C116.443 51.7643 117.942 45.2186 119.518 41.1249L106.909 53.2748L105.65 55.5625L99.7391 67.3841C99.6625 67.3841 99.6625 67.3841 99.6625 67.3075C97.2215 64.5491 94.299 59.8205 99.5092 50.2866C102.738 44.135 106.843 36.5714 107.544 35.3126C107.544 35.3126 109.12 35.8599 110.379 37.2829C111.167 38.2242 111.878 39.4939 112.031 41.1468V41.2234C112.031 41.8473 112.031 42.3946 111.955 42.9528Z" fill="#996213"/>
<path d="M137.251 67.8548C136.145 67.8548 135.204 67.7782 134.252 67.614V67.5374C131.176 67.0667 121.642 61.55 132.599 44.9997C132.599 44.9231 132.675 44.8465 132.752 44.7589C133.54 43.5768 134.481 42.318 135.587 40.895C136.846 39.3954 138.192 37.7426 139.681 35.9256L139.834 36.0022L140.228 36.243L140.381 36.3963C140.622 36.5495 140.929 36.7903 141.246 37.1844C141.563 37.5018 141.881 37.8958 142.187 38.2899C142.822 39.3188 143.37 40.6542 143.216 42.307V42.4603C143.063 44.3539 142.428 45.8535 141.64 46.7182C137.94 51.2936 136.047 54.8401 135.182 57.5109C134 60.9808 134.153 63.4983 134.547 64.5272C136.441 70.3614 144.716 60.2693 147.08 55.1466C149.521 49.7831 146.686 45.2953 144.957 43.7191C142.275 41.4314 142.833 38.2789 144.245 36.0788L144.486 35.838C148.58 35.838 153.473 38.3556 154.337 42.5369C156.395 52.0161 147.89 67.7782 137.251 67.8548Z" fill="#996213"/>
<path d="M189.66 55.3984C189.506 55.5516 183.202 65.0964 169.64 67.614C165.623 68.3255 159.788 68.4021 157.501 64.2208C155.53 60.521 156.319 55.7048 157.577 51.9285C159.307 47.0466 162.306 42.9419 166.006 39.3954C168.447 37.0311 172.234 35.2141 175.616 35.0609H175.693C175.769 35.0609 175.846 35.0609 175.934 35.0609C179.086 35.0609 181.133 36.7137 182.085 39.3954C182.556 40.7308 181.932 42.2304 180.662 42.8653C179.239 43.5001 177.586 43.8942 176.174 44.2007C176.568 42.5479 176.722 41.0483 176.568 39.7129C175.233 40.4243 173.887 41.4423 172.551 42.712C172.475 42.712 172.475 42.712 172.475 42.712C171.533 43.5768 170.658 44.5291 169.793 45.547C169.158 46.4884 168.534 47.5173 167.899 48.6995C162.142 58.8682 165.688 63.9909 166.4 64.7024C167.035 65.3372 177.192 66.9901 188.237 53.9097C188.39 53.7565 188.554 53.5923 188.707 53.5157C189.736 52.9574 190.524 54.1396 189.66 55.3984Z" fill="#996213"/>
<path d="M202.346 42.2414C205.422 38.9357 209.122 35.9365 211.803 35.9365C212.515 35.9365 213.139 35.9365 213.85 36.0898C215.032 36.243 216.215 36.637 217.243 37.2719C218.896 38.3008 220.155 39.9537 220.637 42.2414C220.954 43.8942 220.877 45.7112 220.396 47.6815C220.078 48.787 219.684 49.8925 219.214 50.9871C219.214 51.0638 219.214 51.0638 219.214 51.0638C218.973 51.3812 218.896 51.6986 218.666 52.0927L213.15 63.1262C211.814 65.5671 213.467 64.7024 214.255 64.5491C218.272 63.367 223.636 60.532 229.229 53.9097C229.382 53.7565 229.547 53.5923 229.777 53.5156C230.718 52.9683 231.506 54.1505 230.641 55.4093C230.488 55.5625 224.26 65.0198 210.939 67.5483C210.862 67.5483 210.698 67.6249 210.621 67.6249C210.074 67.7015 208.18 66.8368 207.786 64.8666C207.151 62.1082 207.316 58.3209 209.286 53.2858C210.468 50.21 212.909 47.5282 211.727 44.3758C210.391 40.906 206.057 40.8293 201.405 46.2695C200.857 46.9809 200.299 47.6924 199.675 48.5571C199.358 48.9512 198.887 49.5861 198.34 50.2866V50.3632L188.806 69.431C186.048 66.4318 184.625 60.6086 189.517 49.9582C190.152 48.6994 193.217 42.4712 194.093 40.895C195.034 39.1656 205.126 20.0868 206.385 18.0399C206.385 18.0399 207.885 18.5872 209.143 20.0102C210.008 20.9516 210.72 22.2213 210.796 23.8741L210.873 23.9507C210.95 25.8444 210.555 27.4206 209.932 28.4386C208.487 30.8904 205.334 36.4838 202.346 42.2414Z" fill="#996213"/>
<path d="M267.759 55.3983C267.606 55.5516 261.377 65.0089 248.056 67.5374C247.98 67.5374 247.903 67.614 247.739 67.614C247.191 67.6906 244.74 67.2965 244.346 65.3263C244.028 63.8267 252.697 44.9122 238.281 52.3225L229.766 69.431C227.007 66.4318 225.584 60.6086 230.477 49.9582C231.112 48.6228 234.177 42.4712 235.052 40.895C235.994 39.1656 246.086 20.0868 247.345 18.0399C247.345 18.0399 248.844 18.5872 250.103 20.0102C250.968 20.9516 251.679 22.1337 251.833 23.8741V23.9507C251.909 25.8444 251.515 27.4206 250.968 28.4386C249.392 31.0437 245.922 37.1843 242.846 43.3359L240.482 48.0646C241.116 47.0357 241.817 46.0177 242.452 45.2296C249.698 35.9256 255.926 41.6831 256.408 42.3946L249.95 45.3172C248.691 43.4235 245.692 43.7409 242.463 47.5282C242.069 47.9223 241.675 48.4696 241.281 48.9512C245.768 47.0576 250.815 45.952 253.496 49.2686C257.043 53.6798 252.314 61.8783 252.314 61.8783C251.055 64.3193 252.632 63.4545 253.496 63.2137C257.513 62.1082 260.83 60.532 266.423 53.9097C266.577 53.7565 266.741 53.5923 266.894 53.5156C267.835 52.9574 268.624 54.1396 267.759 55.3983Z" fill="#996213"/>
<path d="M307.164 55.3217C307.011 55.475 304.953 59.0214 301.965 62.2614C297.783 66.3552 296.766 67.3075 293.449 67.4607C285.644 67.7015 283.751 61.944 285.25 58.2443C280.675 63.6844 276.34 67.9423 273.188 67.4607C262.789 67.4607 263.884 49.0935 275.158 39.4064C275.158 39.4064 277.993 36.648 282.404 35.4658C286.028 34.4369 292.256 35.3126 294.303 39.483C294.938 38.6949 296.032 36.7246 296.984 35.3016C296.984 35.3016 304.001 39.4064 300.29 44.9997C295.956 51.5454 294.62 54.1395 292.562 59.109L292.486 59.2622C291.774 60.7618 291.15 64.7024 293.197 64.7024C295.879 64.7024 298.396 62.7321 300.049 61.0793C302.49 58.7149 304.701 55.4859 305.807 53.8221C305.96 53.6689 306.124 53.5047 306.278 53.4281C307.241 52.8808 308.029 54.0629 307.164 55.3217ZM293.131 41.2891C292.891 40.2601 292.19 39.3954 291.709 39.1655C290.844 38.7715 289.891 38.6949 288.874 38.9247C288.479 39.0014 288.162 39.078 287.845 39.1655C284.616 40.3477 280.905 43.7409 278.07 47.9113C266.872 64.3083 271.765 71.0072 286.98 50.4289C290.767 45.3171 292.267 42.6354 293.131 41.2891Z" fill="#996213"/>
<path d="M10.4753 20.5247C13.2555 20.6998 15.598 22.0133 16.7254 23.8085C15.39 25.4504 12.8943 26.4683 10.1141 26.3041C7.33381 26.1399 4.99138 24.8155 3.86395 23.0204C5.2103 21.3675 7.69502 20.3496 10.4753 20.5247Z" fill="#996213"/>
<path d="M15.2148 33.014C16.2547 30.4964 18.225 28.7341 20.239 28.2634C21.3336 30.0257 21.4868 32.6527 20.447 35.1812C19.4071 37.6988 17.4369 39.4611 15.4228 39.9318C14.3282 38.1695 14.175 35.5315 15.2148 33.014Z" fill="#996213"/>
<path d="M7.62932 38.9795C8.37364 37.1734 9.78567 35.9146 11.2305 35.5753C12.0186 36.8341 12.1281 38.7277 11.3838 40.5338C10.6394 42.3399 9.22743 43.5987 7.78257 43.938C6.99446 42.6792 6.885 40.7856 7.62932 38.9795Z" fill="#CDC0B3"/>
<path d="M2.1235 38.9357C3.15241 37.9834 4.44403 37.5893 5.48389 37.8083C5.61524 38.87 5.12268 40.1288 4.09376 41.0811C3.06485 42.0334 1.77323 42.4274 0.733367 42.2085C0.602016 41.1468 1.09458 39.888 2.1235 38.9357Z" fill="#CDC0B3"/>
<path d="M3.40418 30.3103C5.21025 29.5551 7.09295 29.6645 8.36267 30.4526C8.02335 31.8975 6.76457 33.3095 4.9585 34.0648C3.15242 34.8201 1.25878 34.7106 0 33.9225C0.339323 32.4776 1.58716 31.0656 3.40418 30.3103Z" fill="#CDC0B3"/>
<path d="M20.0858 10.4654C23.7527 11.2754 26.5986 13.5193 27.7151 16.1463C25.5916 18.0509 22.067 18.8828 18.4001 18.0728C14.7332 17.2628 11.8873 15.0189 10.7708 12.3918C12.8943 10.4873 16.4189 9.65537 20.0858 10.4654Z" fill="#996213"/>
<path d="M31.8635 31.7661C30.6595 35.3235 28.12 37.9068 25.3945 38.7387C23.7307 36.4181 23.2819 32.8279 24.486 29.2705C25.69 25.713 28.2295 23.1298 30.955 22.2979C32.6079 24.6075 33.0566 28.2087 31.8635 31.7661Z" fill="#996213"/>
<path d="M43.1816 28.9202C41.9776 32.4776 39.4272 35.0499 36.7016 35.8818C35.0378 33.5612 34.6 29.96 35.8041 26.4136C37.0081 22.8561 39.5585 20.2839 42.295 19.452C43.9478 21.7725 44.3857 25.3628 43.1816 28.9202Z" fill="#996213"/>
<path d="M33.9433 4.3247C37.5774 5.64915 40.1825 8.31996 40.9815 11.1549C38.5625 12.8187 34.8409 13.2018 31.2068 11.8774C27.5728 10.5529 24.9677 7.88212 24.1796 5.04713C26.5877 3.38335 30.3093 3.00024 33.9433 4.3247Z" fill="#996213"/>
<path d="M50.9094 3.29581C53.9524 5.99945 55.4629 9.62254 55.1345 12.7093C52.1135 13.3989 48.3371 12.3152 45.2942 9.6116C42.2512 6.90796 40.7407 3.28486 41.069 0.198116C44.0901 -0.48053 47.8664 0.592169 50.9094 3.29581Z" fill="#996213"/>
</svg>
