<svg width="13" height="10" viewBox="0 0 13 10" fill="none" xmlns="http://www.w3.org/2000/svg">
<path d="M1.92045 3.87511e-09H11.0795C11.5701 -3.01926e-05 12.042 0.176419 12.3986 0.493151C12.7551 0.809883 12.9693 1.24289 12.997 1.70333L13 1.80556V8.19444C13 8.65563 12.8124 9.09935 12.4755 9.43457C12.1386 9.7698 11.678 9.97111 11.1883 9.99722L11.0795 10H1.92045C1.42992 10 0.957965 9.82358 0.601409 9.50685C0.244853 9.19012 0.0307265 8.75712 0.00295462 8.29667L4.1217e-09 8.19444V1.80556C-3.2114e-05 1.34437 0.187646 0.900651 0.524533 0.565427C0.861421 0.230204 1.32198 0.0288882 1.81173 0.00277785L1.92045 3.87511e-09H11.0795H1.92045ZM12.1136 3.28056L6.70445 5.925C6.65206 5.9506 6.59475 5.9661 6.53589 5.97058C6.47704 5.97506 6.41782 5.96844 6.36173 5.95111L6.29555 5.925L0.886364 3.28056V8.19444C0.886373 8.43844 0.983965 8.67351 1.15977 8.85299C1.33557 9.03248 1.57672 9.14326 1.83536 9.16333L1.92045 9.16667H11.0795C11.3392 9.16665 11.5893 9.07482 11.7802 8.90942C11.9711 8.74402 12.0889 8.51716 12.1101 8.27389L12.1136 8.19444V3.28056ZM11.0795 0.833333H1.92045C1.66093 0.833342 1.4109 0.925095 1.22 1.09038C1.02909 1.25566 0.911264 1.48239 0.889909 1.72556L0.886364 1.80556V2.34111L6.5 5.08556L12.1136 2.34111V1.80556C12.1136 1.56147 12.0159 1.32633 11.84 1.14683C11.6641 0.96733 11.4228 0.856612 11.164 0.836667L11.0795 0.833333Z" fill="#828282"/>
</svg>
