<svg width="19" height="19" viewBox="0 0 19 19" fill="none" xmlns="http://www.w3.org/2000/svg">
<path d="M3.33333 4.345L0.630829 1.64333L1.81 0.464167L4.51166 3.16667H17.2133C17.3432 3.16666 17.4713 3.19701 17.5874 3.25531C17.7035 3.3136 17.8043 3.39822 17.8819 3.50241C17.9594 3.60661 18.0115 3.72749 18.0341 3.85541C18.0566 3.98332 18.0489 4.11474 18.0117 4.23917L16.0117 10.9058C15.9602 11.0776 15.8547 11.2281 15.7109 11.3352C15.5671 11.4422 15.3926 11.5 15.2133 11.5H5V13.1667H14.1667V14.8333H4.16666C3.94565 14.8333 3.73369 14.7455 3.57741 14.5893C3.42113 14.433 3.33333 14.221 3.33333 14V4.345ZM5 4.83333V9.83333H14.5933L16.0933 4.83333H5ZM4.58333 18.1667C4.25181 18.1667 3.93387 18.035 3.69945 17.8005C3.46502 17.5661 3.33333 17.2482 3.33333 16.9167C3.33333 16.5851 3.46502 16.2672 3.69945 16.0328C3.93387 15.7984 4.25181 15.6667 4.58333 15.6667C4.91485 15.6667 5.23279 15.7984 5.46721 16.0328C5.70163 16.2672 5.83333 16.5851 5.83333 16.9167C5.83333 17.2482 5.70163 17.5661 5.46721 17.8005C5.23279 18.035 4.91485 18.1667 4.58333 18.1667ZM14.5833 18.1667C14.2518 18.1667 13.9339 18.035 13.6994 17.8005C13.465 17.5661 13.3333 17.2482 13.3333 16.9167C13.3333 16.5851 13.465 16.2672 13.6994 16.0328C13.9339 15.7984 14.2518 15.6667 14.5833 15.6667C14.9149 15.6667 15.2328 15.7984 15.4672 16.0328C15.7016 16.2672 15.8333 16.5851 15.8333 16.9167C15.8333 17.2482 15.7016 17.5661 15.4672 17.8005C15.2328 18.035 14.9149 18.1667 14.5833 18.1667Z" fill="#FAFAFA"/>
</svg>
