<svg width="156" height="35" viewBox="0 0 156 35" fill="none" xmlns="http://www.w3.org/2000/svg">
<path fill-rule="evenodd" clip-rule="evenodd" d="M0 17.5C0 7.83502 7.83502 0 17.5 0C27.165 0 35 7.83502 35 17.5C35 27.165 27.165 35 17.5 35C7.83502 35 0 27.165 0 17.5ZM18.4155 23.243C18.4155 23.243 18.7523 23.2062 18.9249 23.0243C19.0828 22.8576 19.0774 22.543 19.0774 22.543C19.0774 22.543 19.0564 21.0742 19.7512 20.8573C20.4359 20.644 21.3151 22.2778 22.2482 22.906C22.953 23.381 23.488 23.277 23.488 23.277L25.9814 23.243C25.9814 23.243 27.2851 23.1641 26.667 22.1577C26.6159 22.0752 26.3064 21.4129 24.8137 20.0525C23.2497 18.6285 23.4597 18.8588 25.3423 16.3952C26.489 14.895 26.9473 13.9791 26.804 13.5874C26.6679 13.2128 25.8243 13.3123 25.8243 13.3123L23.0178 13.3293C23.0178 13.3293 22.8097 13.3016 22.6554 13.3921C22.5047 13.4808 22.407 13.6878 22.407 13.6878C22.407 13.6878 21.9633 14.8484 21.3708 15.836C20.1209 17.9187 19.6215 18.0289 19.417 17.8999C18.9413 17.5979 19.06 16.6882 19.06 16.0421C19.06 14.023 19.3723 13.1815 18.4529 12.9637C18.1479 12.8911 17.9234 12.8436 17.1428 12.8355C16.1412 12.8257 15.294 12.8391 14.8137 13.0695C14.4942 13.2227 14.2477 13.565 14.3983 13.5848C14.5836 13.609 15.0036 13.6959 15.2264 13.9934C15.514 14.3779 15.5039 15.24 15.5039 15.24C15.5039 15.24 15.6692 17.6167 15.1177 17.9115C14.7398 18.1141 14.2212 17.7009 13.1064 15.8109C12.5358 14.843 12.1049 13.773 12.1049 13.773C12.1049 13.773 12.0218 13.5731 11.873 13.4656C11.6931 13.3356 11.4421 13.2953 11.4421 13.2953L8.77522 13.3123C8.77522 13.3123 8.37442 13.3231 8.22743 13.4942C8.09687 13.6457 8.21739 13.9603 8.21739 13.9603C8.21739 13.9603 10.3054 18.7558 12.67 21.1728C14.8384 23.3881 17.2998 23.243 17.2998 23.243H18.4155Z" fill="white"/>
<path fill-rule="evenodd" clip-rule="evenodd" d="M60 17.5C60 7.83502 67.835 0 77.5 0C87.165 0 95 7.83502 95 17.5C95 27.165 87.165 35 77.5 35C67.835 35 60 27.165 60 17.5ZM79.3241 27.7896V18.2687H81.9522L82.3005 14.9877H79.3241L79.3285 13.3456C79.3285 12.4899 79.4098 12.0313 80.6389 12.0313H82.2819V8.75H79.6534C76.496 8.75 75.3847 10.3416 75.3847 13.0182V14.9881H73.4167V18.2691H75.3847V27.7896H79.3241Z" fill="white"/>
<path fill-rule="evenodd" clip-rule="evenodd" d="M121 17.5C121 7.83502 128.835 0 138.5 0C148.165 0 156 7.83502 156 17.5C156 27.165 148.165 35 138.5 35C128.835 35 121 27.165 121 17.5ZM138.501 8.16667C135.966 8.16667 135.648 8.17775 134.652 8.22306C133.659 8.26856 132.981 8.42586 132.387 8.65667C131.773 8.89506 131.252 9.21396 130.734 9.73293C130.215 10.2517 129.896 10.7724 129.656 11.3861C129.425 11.9798 129.268 12.6582 129.223 13.6514C129.178 14.647 129.167 14.9653 129.167 17.5001C129.167 20.0349 129.178 20.352 129.223 21.3476C129.269 22.3412 129.426 23.0195 129.657 23.6129C129.895 24.2268 130.214 24.7475 130.733 25.2663C131.252 25.7855 131.772 26.1051 132.386 26.3435C132.98 26.5743 133.658 26.7316 134.652 26.7771C135.647 26.8224 135.965 26.8335 138.5 26.8335C141.035 26.8335 141.352 26.8224 142.347 26.7771C143.341 26.7316 144.02 26.5743 144.614 26.3435C145.228 26.1051 145.748 25.7855 146.266 25.2663C146.785 24.7475 147.104 24.2268 147.343 23.6131C147.573 23.0195 147.73 22.341 147.777 21.3478C147.822 20.3522 147.833 20.0349 147.833 17.5001C147.833 14.9653 147.822 14.6472 147.777 13.6516C147.73 12.658 147.573 11.9798 147.343 11.3863C147.104 10.7724 146.785 10.2517 146.266 9.73293C145.747 9.21376 145.228 8.89487 144.613 8.65667C144.018 8.42586 143.34 8.26856 142.346 8.22306C141.35 8.17775 141.034 8.16667 138.498 8.16667H138.501Z" fill="white"/>
<path fill-rule="evenodd" clip-rule="evenodd" d="M137.664 9.84863C137.912 9.84824 138.189 9.84863 138.501 9.84863C140.993 9.84863 141.288 9.85757 142.272 9.9023C143.182 9.94391 143.676 10.096 144.005 10.2237C144.441 10.3929 144.751 10.5951 145.078 10.9218C145.405 11.2484 145.607 11.5596 145.776 11.9951C145.904 12.3237 146.056 12.8176 146.098 13.7276C146.142 14.7115 146.152 15.0071 146.152 17.498C146.152 19.9888 146.142 20.2844 146.098 21.2683C146.056 22.1783 145.904 22.6722 145.776 23.0008C145.607 23.4364 145.405 23.7465 145.078 24.073C144.751 24.3996 144.441 24.6019 144.005 24.771C143.677 24.8994 143.182 25.051 142.272 25.0926C141.288 25.1374 140.993 25.1471 138.501 25.1471C136.009 25.1471 135.713 25.1374 134.729 25.0926C133.819 25.0506 133.325 24.8986 132.996 24.7708C132.561 24.6017 132.25 24.3994 131.923 24.0728C131.596 23.7461 131.394 23.4358 131.224 23C131.097 22.6714 130.944 22.1775 130.903 21.2675C130.858 20.2836 130.849 19.988 130.849 17.4956C130.849 15.0032 130.858 14.7092 130.903 13.7253C130.945 12.8153 131.097 12.3214 131.224 11.9924C131.394 11.5568 131.596 11.2457 131.923 10.9191C132.25 10.5924 132.561 10.3902 132.996 10.2206C133.325 10.0923 133.819 9.9406 134.729 9.8988C135.59 9.85991 135.924 9.84824 137.664 9.8463V9.84863ZM143.483 11.3984C142.865 11.3984 142.363 11.8995 142.363 12.518C142.363 13.1363 142.865 13.638 143.483 13.638C144.101 13.638 144.603 13.1363 144.603 12.518C144.603 11.8996 144.101 11.3984 143.483 11.3984ZM138.501 12.707C135.854 12.707 133.708 14.8531 133.708 17.5001C133.708 20.1471 135.854 22.2922 138.501 22.2922C141.148 22.2922 143.293 20.1471 143.293 17.5001C143.293 14.8531 141.148 12.707 138.501 12.707Z" fill="white"/>
<path fill-rule="evenodd" clip-rule="evenodd" d="M138.501 14.389C140.219 14.389 141.612 15.7818 141.612 17.5001C141.612 19.2182 140.219 20.6112 138.501 20.6112C136.783 20.6112 135.39 19.2182 135.39 17.5001C135.39 15.7818 136.783 14.389 138.501 14.389Z" fill="white"/>
</svg>
