<svg width="25" height="25" viewBox="0 0 25 25" fill="none" xmlns="http://www.w3.org/2000/svg">
<g clip-path="url(#clip0_7_63)">
<path d="M12.501 4.71771C14.9479 2.52083 18.7292 2.59375 21.0864 4.95521C23.4427 7.31771 23.5239 11.0802 21.3323 13.5344L12.4989 22.3802L3.66769 13.5344C1.47603 11.0802 1.55832 7.31146 3.91353 4.95521C6.2729 2.59688 10.0469 2.51771 12.501 4.71771ZM19.6114 6.42708C18.0489 4.8625 15.5281 4.79896 13.8927 6.26771L12.5021 7.51563L11.1104 6.26875C9.46978 4.79792 6.95415 4.8625 5.38749 6.42917C3.8354 7.98125 3.75728 10.4656 5.18749 12.1073L12.5 19.4313L19.8125 12.1083C21.2437 10.4656 21.1656 7.98438 19.6114 6.42708Z" fill="#474A51"/>
</g>
<defs>
<clipPath id="clip0_7_63">
<rect width="25" height="25" fill="white"/>
</clipPath>
</defs>
</svg>
