<svg width="153" height="20" viewBox="0 0 153 20" fill="none" xmlns="http://www.w3.org/2000/svg">
<path d="M82.5387 6.49712C82.5387 7.38224 82.3584 8.20145 81.9979 8.95475C81.6373 9.70804 81.1439 10.3578 80.5177 10.9039C79.9104 11.45 79.1893 11.8832 78.3544 12.2033C77.5194 12.5047 76.6275 12.6553 75.6786 12.6553H71.8074V19.8305H67.4238V0.169434H75.5933C76.637 0.169434 77.5858 0.320093 78.4397 0.621412C79.2937 0.903898 80.0243 1.31821 80.6315 1.86435C81.2388 2.41049 81.7037 3.07904 82.0263 3.87C82.3679 4.64213 82.5387 5.51783 82.5387 6.49712ZM78.0982 6.41237C78.0982 5.62141 77.861 5.03761 77.3866 4.66096C76.9121 4.26548 76.2385 4.06774 75.3655 4.06774H71.8074V8.757H75.4794C76.2005 8.757 76.8172 8.54985 77.3296 8.13554C77.842 7.70239 78.0982 7.128 78.0982 6.41237Z" fill="#474A51"/>
<path d="M84.7696 19.8305V0.169434H89.1532V15.9321H98.7744V19.8305H84.7696Z" fill="#474A51"/>
<path d="M113.575 19.8305L112.095 15.8192H105.463L103.982 19.8305H99.371L107.057 0.169434H110.501L118.186 19.8305H113.575ZM109.988 9.88695L108.821 5.98864H108.708L107.569 9.83045L106.829 12.1468H110.729L109.988 9.88695Z" fill="#474A51"/>
<path d="M119.016 19.8305V16.1299L127.727 4.03949H119.386V0.169434H133.021V3.757L124.339 15.8474H133.021V19.8305H119.016Z" fill="#474A51"/>
<path d="M147.989 19.8305L146.508 15.8192H139.876L138.396 19.8305H133.785L141.47 0.169434H144.914L152.6 19.8305H147.989ZM144.402 9.88695L143.235 5.98864H143.121L141.983 9.83045L141.242 12.1468H145.142L144.402 9.88695Z" fill="#474A51"/>
<path d="M13.1223 5.31073C12.6479 5.00942 12.1735 4.77401 11.6991 4.60452C11.2436 4.43503 10.7977 4.3032 10.3612 4.20904C9.94374 4.11488 9.55472 4.05838 9.19417 4.03955C8.83361 4.00188 8.5205 3.98305 8.25482 3.98305C7.7045 3.98305 7.25855 4.03955 6.91697 4.15254C6.59437 4.26554 6.3287 4.4162 6.11996 4.60452C5.93019 4.79284 5.79735 5 5.72145 5.22599C5.66452 5.43314 5.63605 5.63088 5.63605 5.81921C5.63605 6.13936 5.69298 6.40301 5.80684 6.61017C5.93968 6.81733 6.15791 6.99623 6.46154 7.14689C6.78414 7.29755 7.21111 7.42938 7.74246 7.54237C8.29278 7.65537 8.97594 7.77778 9.79193 7.9096C10.6079 8.04143 11.386 8.23917 12.1261 8.50282C12.8661 8.74765 13.5113 9.09605 14.0617 9.54802C14.631 10 15.0769 10.5744 15.3995 11.2712C15.7411 11.9492 15.9119 12.7872 15.9119 13.7853C15.9119 14.8023 15.6842 15.7062 15.2287 16.4972C14.7733 17.2693 14.1755 17.919 13.4354 18.4463C12.7143 18.9548 11.8794 19.3409 10.9305 19.6045C10.0007 19.8682 9.05184 20 8.08403 20C7.41985 20 6.74618 19.9623 6.06303 19.887C5.37987 19.8305 4.69671 19.7081 4.01355 19.5198C3.33039 19.3126 2.64724 19.0301 1.96408 18.6723C1.2999 18.3145 0.645205 17.8531 0 17.2881L2.53338 13.9548C3.46323 14.7834 4.40257 15.339 5.3514 15.6215C6.30023 15.8851 7.28702 16.0169 8.31175 16.0169C9.27956 16.0169 10.0196 15.8286 10.532 15.452C11.0444 15.0565 11.3006 14.5951 11.3006 14.0678C11.3006 13.823 11.2721 13.5876 11.2152 13.3616C11.1582 13.1356 11.0349 12.9284 10.8451 12.7401C10.6554 12.533 10.3802 12.3635 10.0196 12.2316C9.65909 12.081 9.18468 11.9774 8.5964 11.9209C7.64757 11.8267 6.7367 11.6761 5.86377 11.4689C4.99085 11.2618 4.21281 10.9416 3.52965 10.5085C2.84649 10.0565 2.29617 9.48211 1.87868 8.78531C1.48018 8.06968 1.28092 7.15631 1.28092 6.0452C1.28092 5.00942 1.48018 4.11488 1.87868 3.36158C2.29617 2.58945 2.82751 1.95857 3.47272 1.46893C4.1369 0.960451 4.87699 0.59322 5.69298 0.367232C6.50898 0.122411 7.32497 0 8.14096 0C9.35547 0 10.5605 0.131827 11.756 0.39548C12.9515 0.659134 14.0806 1.13936 15.1433 1.83616L13.1223 5.31073Z" fill="#15616D"/>
<path d="M27.063 19.8305H23.5049L16.6449 0.169491H21.2562L23.7895 8.13559L25.2697 13.1356H25.412L26.8068 8.22034L29.3117 0.169491H33.8946L27.063 19.8305Z" fill="#15616D"/>
<path d="M35.9561 19.8305V0.169491H49.9608V4.0678H40.3397V8.05085H48.5376V11.8079H40.3397V15.9322H49.9608V19.8305H35.9561Z" fill="#15616D"/>
<path d="M60.6056 4.0678V19.8305H56.2504V4.0678H50.8421V0.169491H66.0139V4.0678H60.6056Z" fill="#15616D"/>
</svg>
