<svg width="128" height="10" viewBox="0 0 128 10" fill="none" xmlns="http://www.w3.org/2000/svg">
<path d="M5.52 1.788C5.48 1.856 5.438 1.906 5.394 1.938C5.35 1.97 5.294 1.986 5.226 1.986C5.154 1.986 5.072 1.954 4.98 1.89C4.888 1.822 4.772 1.748 4.632 1.668C4.496 1.584 4.332 1.51 4.14 1.446C3.948 1.378 3.718 1.344 3.45 1.344C3.198 1.344 2.976 1.378 2.784 1.446C2.596 1.51 2.438 1.6 2.31 1.716C2.182 1.828 2.084 1.962 2.016 2.118C1.952 2.27 1.92 2.436 1.92 2.616C1.92 2.848 1.978 3.04 2.094 3.192C2.214 3.344 2.37 3.474 2.562 3.582C2.754 3.69 2.972 3.784 3.216 3.864C3.46 3.944 3.71 4.028 3.966 4.116C4.222 4.2 4.472 4.298 4.716 4.41C4.96 4.522 5.178 4.664 5.37 4.836C5.562 5.004 5.716 5.212 5.832 5.46C5.952 5.704 6.012 6.004 6.012 6.36C6.012 6.74 5.946 7.096 5.814 7.428C5.686 7.76 5.498 8.05 5.25 8.298C5.002 8.546 4.696 8.742 4.332 8.886C3.972 9.026 3.562 9.096 3.102 9.096C2.826 9.096 2.558 9.068 2.298 9.012C2.038 8.96 1.792 8.886 1.56 8.79C1.328 8.69 1.11 8.572 0.906 8.436C0.706 8.296 0.526 8.14 0.366 7.968L0.732 7.356C0.768 7.308 0.81 7.268 0.858 7.236C0.91 7.204 0.968 7.188 1.032 7.188C1.116 7.188 1.212 7.232 1.32 7.32C1.432 7.408 1.568 7.506 1.728 7.614C1.892 7.718 2.086 7.814 2.31 7.902C2.538 7.99 2.814 8.034 3.138 8.034C3.402 8.034 3.638 8 3.846 7.932C4.054 7.86 4.228 7.76 4.368 7.632C4.512 7.5 4.622 7.342 4.698 7.158C4.774 6.974 4.812 6.77 4.812 6.546C4.812 6.294 4.754 6.088 4.638 5.928C4.522 5.768 4.368 5.634 4.176 5.526C3.984 5.418 3.766 5.326 3.522 5.25C3.278 5.174 3.028 5.096 2.772 5.016C2.516 4.932 2.266 4.836 2.022 4.728C1.778 4.62 1.56 4.48 1.368 4.308C1.176 4.132 1.022 3.914 0.906 3.654C0.79 3.39 0.732 3.066 0.732 2.682C0.732 2.374 0.792 2.076 0.912 1.788C1.032 1.5 1.206 1.246 1.434 1.026C1.666 0.801999 1.95 0.623999 2.286 0.491999C2.622 0.356 3.006 0.288 3.438 0.288C3.922 0.288 4.366 0.366 4.77 0.521999C5.178 0.673999 5.532 0.893999 5.832 1.182L5.52 1.788ZM14.5293 0.383999L11.0253 9H9.87928L6.37528 0.383999H7.39528C7.50728 0.383999 7.59728 0.411999 7.66528 0.468C7.73728 0.523999 7.79128 0.595999 7.82728 0.684L10.1553 6.54C10.2113 6.684 10.2653 6.842 10.3173 7.014C10.3733 7.186 10.4233 7.366 10.4673 7.554C10.5073 7.366 10.5513 7.186 10.5993 7.014C10.6473 6.842 10.6993 6.684 10.7553 6.54L13.0773 0.684C13.1053 0.604 13.1553 0.534 13.2273 0.473999C13.3033 0.413999 13.3953 0.383999 13.5033 0.383999H14.5293ZM20.951 7.962L20.945 9H15.605V0.383999H20.945V1.422H16.889V4.152H20.153V5.154H16.889V7.962H20.951ZM28.4048 1.452H25.6688V9H24.3968V1.452H21.6488V0.383999H28.4048V1.452ZM32.254 4.818C32.578 4.818 32.862 4.776 33.106 4.692C33.354 4.608 33.56 4.49 33.724 4.338C33.892 4.182 34.018 3.998 34.102 3.786C34.186 3.57 34.228 3.332 34.228 3.072C34.228 2.548 34.064 2.136 33.736 1.836C33.412 1.536 32.918 1.386 32.254 1.386H30.922V4.818H32.254ZM32.254 0.383999C32.806 0.383999 33.286 0.447999 33.694 0.576C34.102 0.704 34.44 0.885999 34.708 1.122C34.976 1.354 35.174 1.636 35.302 1.968C35.434 2.3 35.5 2.668 35.5 3.072C35.5 3.476 35.43 3.848 35.29 4.188C35.15 4.524 34.944 4.814 34.672 5.058C34.4 5.302 34.06 5.492 33.652 5.628C33.248 5.76 32.782 5.826 32.254 5.826H30.922V9H29.644V0.383999H32.254ZM41.8417 7.926V9H36.9097V0.383999H38.1877V7.926H41.8417ZM47.6634 5.79L46.3854 2.448C46.2934 2.22 46.2014 1.932 46.1094 1.584C46.0654 1.756 46.0194 1.916 45.9714 2.064C45.9274 2.212 45.8834 2.344 45.8394 2.46L44.5674 5.79H47.6634ZM50.1894 9H49.2054C49.0934 9 49.0014 8.972 48.9294 8.916C48.8574 8.86 48.8054 8.788 48.7734 8.7L48.0114 6.702H44.2134L43.4514 8.7C43.4234 8.776 43.3714 8.846 43.2954 8.91C43.2194 8.97 43.1274 9 43.0194 9H42.0354L45.4674 0.383999H46.7574L50.1894 9ZM57.0671 0.857999C57.0671 1.002 57.0231 1.14 56.9351 1.272L52.1771 7.962H56.9831V9H50.5031V8.496C50.5031 8.428 50.5131 8.364 50.5331 8.304C50.5571 8.244 50.5871 8.186 50.6231 8.13L55.3931 1.422H50.7431V0.383999H57.0671V0.857999ZM63.0736 5.79L61.7956 2.448C61.7036 2.22 61.6116 1.932 61.5196 1.584C61.4756 1.756 61.4296 1.916 61.3816 2.064C61.3376 2.212 61.2936 2.344 61.2496 2.46L59.9776 5.79H63.0736ZM65.5996 9H64.6156C64.5036 9 64.4116 8.972 64.3396 8.916C64.2676 8.86 64.2156 8.788 64.1836 8.7L63.4216 6.702H59.6236L58.8616 8.7C58.8336 8.776 58.7816 8.846 58.7056 8.91C58.6296 8.97 58.5376 9 58.4296 9H57.4456L60.8776 0.383999H62.1676L65.5996 9ZM74.166 7.89C74.294 7.89 74.394 7.928 74.466 8.004C74.538 8.076 74.574 8.172 74.574 8.292V9H68.79V8.598C68.79 8.518 68.806 8.434 68.838 8.346C68.87 8.254 68.924 8.172 69 8.1L71.724 5.37C71.952 5.142 72.158 4.922 72.342 4.71C72.526 4.498 72.682 4.288 72.81 4.08C72.938 3.868 73.036 3.652 73.104 3.432C73.176 3.212 73.212 2.98 73.212 2.736C73.212 2.496 73.174 2.286 73.098 2.106C73.022 1.922 72.918 1.77 72.786 1.65C72.654 1.53 72.498 1.44 72.318 1.38C72.138 1.32 71.944 1.29 71.736 1.29C71.528 1.29 71.336 1.32 71.16 1.38C70.988 1.44 70.834 1.524 70.698 1.632C70.562 1.74 70.448 1.868 70.356 2.016C70.264 2.164 70.198 2.324 70.158 2.496C70.102 2.648 70.03 2.75 69.942 2.802C69.858 2.854 69.734 2.866 69.57 2.838L68.958 2.73C69.014 2.33 69.124 1.978 69.288 1.674C69.452 1.37 69.658 1.116 69.906 0.912C70.154 0.704 70.438 0.547999 70.758 0.443999C71.082 0.34 71.43 0.288 71.802 0.288C72.178 0.288 72.524 0.344 72.84 0.456C73.16 0.564 73.436 0.722 73.668 0.93C73.9 1.138 74.082 1.392 74.214 1.692C74.346 1.988 74.412 2.324 74.412 2.7C74.412 3.02 74.364 3.318 74.268 3.594C74.176 3.866 74.048 4.126 73.884 4.374C73.724 4.622 73.536 4.864 73.32 5.1C73.108 5.332 72.882 5.568 72.642 5.808L70.458 8.04C70.626 7.996 70.794 7.96 70.962 7.932C71.134 7.904 71.296 7.89 71.448 7.89H74.166ZM81.8229 4.692C81.8229 5.444 81.7409 6.096 81.5769 6.648C81.4169 7.2 81.1949 7.658 80.9109 8.022C80.6309 8.382 80.2989 8.65 79.9149 8.826C79.5349 9.002 79.1249 9.09 78.6849 9.09C78.2449 9.09 77.8329 9.002 77.4489 8.826C77.0689 8.65 76.7389 8.382 76.4589 8.022C76.1789 7.658 75.9589 7.2 75.7989 6.648C75.6389 6.096 75.5589 5.444 75.5589 4.692C75.5589 3.94 75.6389 3.288 75.7989 2.736C75.9589 2.18 76.1789 1.722 76.4589 1.362C76.7389 0.998 77.0689 0.727999 77.4489 0.551999C77.8329 0.376 78.2449 0.288 78.6849 0.288C79.1249 0.288 79.5349 0.376 79.9149 0.551999C80.2989 0.727999 80.6309 0.998 80.9109 1.362C81.1949 1.722 81.4169 2.18 81.5769 2.736C81.7409 3.288 81.8229 3.94 81.8229 4.692ZM80.6109 4.692C80.6109 4.044 80.5569 3.502 80.4489 3.066C80.3449 2.63 80.2029 2.28 80.0229 2.016C79.8469 1.748 79.6429 1.558 79.4109 1.446C79.1789 1.334 78.9369 1.278 78.6849 1.278C78.4329 1.278 78.1909 1.334 77.9589 1.446C77.7269 1.558 77.5209 1.748 77.3409 2.016C77.1649 2.28 77.0249 2.63 76.9209 3.066C76.8169 3.502 76.7649 4.044 76.7649 4.692C76.7649 5.34 76.8169 5.882 76.9209 6.318C77.0249 6.754 77.1649 7.104 77.3409 7.368C77.5209 7.632 77.7269 7.82 77.9589 7.932C78.1909 8.044 78.4329 8.1 78.6849 8.1C78.9369 8.1 79.1789 8.044 79.4109 7.932C79.6429 7.82 79.8469 7.632 80.0229 7.368C80.2029 7.104 80.3449 6.754 80.4489 6.318C80.5569 5.882 80.6109 5.34 80.6109 4.692ZM88.3039 8.106V9H83.6479V8.106H85.4719V2.46C85.4719 2.28 85.4779 2.094 85.4899 1.902L84.0259 3.144C83.9699 3.188 83.9139 3.216 83.8579 3.228C83.8019 3.24 83.7479 3.242 83.6959 3.234C83.6479 3.226 83.6039 3.21 83.5639 3.186C83.5279 3.158 83.4979 3.13 83.4739 3.102L83.1079 2.592L85.6879 0.366H86.6419V8.106H88.3039ZM95.7448 4.692C95.7448 5.444 95.6628 6.096 95.4988 6.648C95.3388 7.2 95.1168 7.658 94.8328 8.022C94.5528 8.382 94.2208 8.65 93.8368 8.826C93.4568 9.002 93.0468 9.09 92.6068 9.09C92.1668 9.09 91.7548 9.002 91.3708 8.826C90.9908 8.65 90.6608 8.382 90.3808 8.022C90.1008 7.658 89.8808 7.2 89.7208 6.648C89.5608 6.096 89.4808 5.444 89.4808 4.692C89.4808 3.94 89.5608 3.288 89.7208 2.736C89.8808 2.18 90.1008 1.722 90.3808 1.362C90.6608 0.998 90.9908 0.727999 91.3708 0.551999C91.7548 0.376 92.1668 0.288 92.6068 0.288C93.0468 0.288 93.4568 0.376 93.8368 0.551999C94.2208 0.727999 94.5528 0.998 94.8328 1.362C95.1168 1.722 95.3388 2.18 95.4988 2.736C95.6628 3.288 95.7448 3.94 95.7448 4.692ZM94.5328 4.692C94.5328 4.044 94.4788 3.502 94.3708 3.066C94.2668 2.63 94.1248 2.28 93.9448 2.016C93.7688 1.748 93.5648 1.558 93.3328 1.446C93.1008 1.334 92.8588 1.278 92.6068 1.278C92.3548 1.278 92.1128 1.334 91.8808 1.446C91.6488 1.558 91.4428 1.748 91.2628 2.016C91.0868 2.28 90.9468 2.63 90.8428 3.066C90.7388 3.502 90.6868 4.044 90.6868 4.692C90.6868 5.34 90.7388 5.882 90.8428 6.318C90.9468 6.754 91.0868 7.104 91.2628 7.368C91.4428 7.632 91.6488 7.82 91.8808 7.932C92.1128 8.044 92.3548 8.1 92.6068 8.1C92.8588 8.1 93.1008 8.044 93.3328 7.932C93.5648 7.82 93.7688 7.632 93.9448 7.368C94.1248 7.104 94.2668 6.754 94.3708 6.318C94.4788 5.882 94.5328 5.34 94.5328 4.692ZM96.8258 4.896H99.8258V5.892H96.8258V4.896ZM106.475 7.89C106.603 7.89 106.703 7.928 106.775 8.004C106.847 8.076 106.883 8.172 106.883 8.292V9H101.099V8.598C101.099 8.518 101.115 8.434 101.147 8.346C101.179 8.254 101.233 8.172 101.309 8.1L104.033 5.37C104.261 5.142 104.467 4.922 104.651 4.71C104.835 4.498 104.991 4.288 105.119 4.08C105.247 3.868 105.345 3.652 105.413 3.432C105.485 3.212 105.521 2.98 105.521 2.736C105.521 2.496 105.483 2.286 105.407 2.106C105.331 1.922 105.227 1.77 105.095 1.65C104.963 1.53 104.807 1.44 104.627 1.38C104.447 1.32 104.253 1.29 104.045 1.29C103.837 1.29 103.645 1.32 103.469 1.38C103.297 1.44 103.143 1.524 103.007 1.632C102.871 1.74 102.757 1.868 102.665 2.016C102.573 2.164 102.507 2.324 102.467 2.496C102.411 2.648 102.339 2.75 102.251 2.802C102.167 2.854 102.043 2.866 101.879 2.838L101.267 2.73C101.323 2.33 101.433 1.978 101.597 1.674C101.761 1.37 101.967 1.116 102.215 0.912C102.463 0.704 102.747 0.547999 103.067 0.443999C103.391 0.34 103.739 0.288 104.111 0.288C104.487 0.288 104.833 0.344 105.149 0.456C105.469 0.564 105.745 0.722 105.977 0.93C106.209 1.138 106.391 1.392 106.523 1.692C106.655 1.988 106.721 2.324 106.721 2.7C106.721 3.02 106.673 3.318 106.577 3.594C106.485 3.866 106.357 4.126 106.193 4.374C106.033 4.622 105.845 4.864 105.629 5.1C105.417 5.332 105.191 5.568 104.951 5.808L102.767 8.04C102.935 7.996 103.103 7.96 103.271 7.932C103.443 7.904 103.605 7.89 103.757 7.89H106.475ZM114.132 4.692C114.132 5.444 114.05 6.096 113.886 6.648C113.726 7.2 113.504 7.658 113.22 8.022C112.94 8.382 112.608 8.65 112.224 8.826C111.844 9.002 111.434 9.09 110.994 9.09C110.554 9.09 110.142 9.002 109.758 8.826C109.378 8.65 109.048 8.382 108.768 8.022C108.488 7.658 108.268 7.2 108.108 6.648C107.948 6.096 107.868 5.444 107.868 4.692C107.868 3.94 107.948 3.288 108.108 2.736C108.268 2.18 108.488 1.722 108.768 1.362C109.048 0.998 109.378 0.727999 109.758 0.551999C110.142 0.376 110.554 0.288 110.994 0.288C111.434 0.288 111.844 0.376 112.224 0.551999C112.608 0.727999 112.94 0.998 113.22 1.362C113.504 1.722 113.726 2.18 113.886 2.736C114.05 3.288 114.132 3.94 114.132 4.692ZM112.92 4.692C112.92 4.044 112.866 3.502 112.758 3.066C112.654 2.63 112.512 2.28 112.332 2.016C112.156 1.748 111.952 1.558 111.72 1.446C111.488 1.334 111.246 1.278 110.994 1.278C110.742 1.278 110.5 1.334 110.268 1.446C110.036 1.558 109.83 1.748 109.65 2.016C109.474 2.28 109.334 2.63 109.23 3.066C109.126 3.502 109.074 4.044 109.074 4.692C109.074 5.34 109.126 5.882 109.23 6.318C109.334 6.754 109.474 7.104 109.65 7.368C109.83 7.632 110.036 7.82 110.268 7.932C110.5 8.044 110.742 8.1 110.994 8.1C111.246 8.1 111.488 8.044 111.72 7.932C111.952 7.82 112.156 7.632 112.332 7.368C112.512 7.104 112.654 6.754 112.758 6.318C112.866 5.882 112.92 5.34 112.92 4.692ZM120.396 7.89C120.524 7.89 120.624 7.928 120.696 8.004C120.768 8.076 120.804 8.172 120.804 8.292V9H115.02V8.598C115.02 8.518 115.036 8.434 115.068 8.346C115.1 8.254 115.154 8.172 115.23 8.1L117.954 5.37C118.182 5.142 118.388 4.922 118.572 4.71C118.756 4.498 118.912 4.288 119.04 4.08C119.168 3.868 119.266 3.652 119.334 3.432C119.406 3.212 119.442 2.98 119.442 2.736C119.442 2.496 119.404 2.286 119.328 2.106C119.252 1.922 119.148 1.77 119.016 1.65C118.884 1.53 118.728 1.44 118.548 1.38C118.368 1.32 118.174 1.29 117.966 1.29C117.758 1.29 117.566 1.32 117.39 1.38C117.218 1.44 117.064 1.524 116.928 1.632C116.792 1.74 116.678 1.868 116.586 2.016C116.494 2.164 116.428 2.324 116.388 2.496C116.332 2.648 116.26 2.75 116.172 2.802C116.088 2.854 115.964 2.866 115.8 2.838L115.188 2.73C115.244 2.33 115.354 1.978 115.518 1.674C115.682 1.37 115.888 1.116 116.136 0.912C116.384 0.704 116.668 0.547999 116.988 0.443999C117.312 0.34 117.66 0.288 118.032 0.288C118.408 0.288 118.754 0.344 119.07 0.456C119.39 0.564 119.666 0.722 119.898 0.93C120.13 1.138 120.312 1.392 120.444 1.692C120.576 1.988 120.642 2.324 120.642 2.7C120.642 3.02 120.594 3.318 120.498 3.594C120.406 3.866 120.278 4.126 120.114 4.374C119.954 4.622 119.766 4.864 119.55 5.1C119.338 5.332 119.112 5.568 118.872 5.808L116.688 8.04C116.856 7.996 117.024 7.96 117.192 7.932C117.364 7.904 117.526 7.89 117.678 7.89H120.396ZM127.573 8.106V9H122.917V8.106H124.741V2.46C124.741 2.28 124.747 2.094 124.759 1.902L123.295 3.144C123.239 3.188 123.183 3.216 123.127 3.228C123.071 3.24 123.017 3.242 122.965 3.234C122.917 3.226 122.873 3.21 122.833 3.186C122.797 3.158 122.767 3.13 122.743 3.102L122.377 2.592L124.957 0.366H125.911V8.106H127.573Z" fill="#828282"/>
</svg>
