<svg width="156" height="23" viewBox="0 0 156 23" fill="none" xmlns="http://www.w3.org/2000/svg">
<path d="M13.3274 6.10735C12.8455 5.76083 12.3637 5.49011 11.8819 5.2952C11.4193 5.10028 10.9664 4.94868 10.5231 4.84039C10.0991 4.73211 9.70401 4.66714 9.33783 4.64548C8.97164 4.60216 8.65363 4.58051 8.38381 4.58051C7.82489 4.58051 7.37197 4.64548 7.02505 4.77542C6.69741 4.90537 6.42759 5.07862 6.21558 5.2952C6.02285 5.51177 5.88794 5.75 5.81084 6.00989C5.75303 6.24812 5.72412 6.47552 5.72412 6.69209C5.72412 7.06026 5.78194 7.36346 5.89757 7.60169C6.03249 7.83992 6.25413 8.04567 6.5625 8.21893C6.89014 8.39218 7.32378 8.54379 7.86343 8.67373C8.42235 8.80367 9.11619 8.94444 9.94493 9.09604C10.7737 9.24765 11.5639 9.47505 12.3155 9.77825C13.0672 10.0598 13.7225 10.4605 14.2814 10.9802C14.8596 11.5 15.3125 12.1605 15.6401 12.9619C15.9871 13.7415 16.1605 14.7053 16.1605 15.8531C16.1605 17.0226 15.9292 18.0621 15.4667 18.9718C15.0041 19.8597 14.397 20.6069 13.6454 21.2133C12.913 21.798 12.065 22.242 11.1013 22.5452C10.1569 22.8484 9.19328 23 8.21035 23C7.53579 23 6.85159 22.9567 6.15776 22.8701C5.46393 22.8051 4.7701 22.6643 4.07626 22.4477C3.38243 22.2095 2.6886 21.8847 1.99477 21.4732C1.32021 21.0617 0.655286 20.5311 0 19.8814L2.57296 16.048C3.51734 17.0009 4.47136 17.6398 5.43502 17.9647C6.39868 18.2679 7.40088 18.4195 8.44163 18.4195C9.42455 18.4195 10.1762 18.2029 10.6966 17.7698C11.217 17.315 11.4771 16.7844 11.4771 16.178C11.4771 15.8964 11.4482 15.6257 11.3904 15.3658C11.3326 15.1059 11.2073 14.8677 11.0146 14.6511C10.8219 14.4129 10.5424 14.218 10.1762 14.0664C9.81002 13.8931 9.32819 13.774 8.73072 13.709C7.76707 13.6008 6.84196 13.4275 5.95539 13.1893C5.06883 12.951 4.27863 12.5829 3.5848 12.0847C2.89097 11.565 2.33205 10.9044 1.90804 10.1031C1.5033 9.28013 1.30094 8.22975 1.30094 6.95198C1.30094 5.76083 1.5033 4.73211 1.90804 3.86582C2.33205 2.97787 2.87169 2.25235 3.52698 1.68927C4.20154 1.10452 4.95319 0.682203 5.78194 0.422317C6.61068 0.140772 7.43942 0 8.26817 0C9.50165 0 10.7255 0.151601 11.9397 0.454802C13.1539 0.758004 14.3007 1.31026 15.3799 2.11158L13.3274 6.10735Z" fill="#FAFAFA"/>
<path d="M27.4859 22.8051H23.8722L16.9049 0.194915H21.5883L24.1613 9.35593L25.6646 15.1059H25.8091L27.2257 9.45339L29.7697 0.194915H34.4242L27.4859 22.8051Z" fill="#FAFAFA"/>
<path d="M36.5179 22.8051V0.194915H50.7415V4.67797H40.97V9.25847H49.296V13.5791H40.97V18.322H50.7415V22.8051H36.5179Z" fill="#FAFAFA"/>
<path d="M61.5525 4.67797V22.8051H57.1294V4.67797H51.6365V0.194915H67.0454V4.67797H61.5525Z" fill="#FAFAFA"/>
<path d="M84.844 7.47175C84.844 8.48964 84.6609 9.43173 84.2947 10.298C83.9286 11.1643 83.4275 11.9115 82.7914 12.5395C82.1747 13.1676 81.4423 13.6657 80.5943 14.0339C79.7463 14.3804 78.8405 14.5537 77.8768 14.5537H73.9451V22.8051H69.493V0.194915H77.7901C78.8501 0.194915 79.8137 0.368173 80.681 0.71469C81.5483 1.03955 82.2903 1.51601 82.9071 2.14407C83.5238 2.77213 83.996 3.54096 84.3237 4.45057C84.6706 5.33851 84.844 6.34557 84.844 7.47175ZM80.3341 7.37429C80.3341 6.46469 80.0932 5.79331 79.6114 5.36017C79.1295 4.90537 78.4454 4.67797 77.5588 4.67797H73.9451V10.0706H77.6744C78.4068 10.0706 79.0332 9.83239 79.5536 9.35593C80.0739 8.85781 80.3341 8.19727 80.3341 7.37429Z" fill="#FAFAFA"/>
<path d="M87.1098 22.8051V0.194915H91.5619V18.322H101.333V22.8051H87.1098Z" fill="#FAFAFA"/>
<path d="M116.365 22.8051L114.862 18.1921H108.126L106.623 22.8051H101.939L109.745 0.194915H113.243L121.049 22.8051H116.365ZM112.723 11.3701L111.537 6.88701H111.422L110.265 11.3051L109.514 13.9689H113.474L112.723 11.3701Z" fill="#FAFAFA"/>
<path d="M121.892 22.8051V18.5494L130.738 4.64548H122.267V0.194915H136.115V4.32062L127.298 18.2246H136.115V22.8051H121.892Z" fill="#FAFAFA"/>
<path d="M151.317 22.8051L149.813 18.1921H143.077L141.574 22.8051H136.891L144.696 0.194915H148.194L156 22.8051H151.317ZM147.674 11.3701L146.489 6.88701H146.373L145.217 11.3051L144.465 13.9689H148.426L147.674 11.3701Z" fill="#FAFAFA"/>
</svg>
