<svg width="1168" height="48" viewBox="0 0 1168 48" fill="none" xmlns="http://www.w3.org/2000/svg">
<path d="M4.1 10.24V15.12H11.12V16.84H4.1V22.5H2.1V8.5H11.98V10.24H4.1ZM23.7633 17.26C23.7633 17.4067 23.7499 17.6 23.7233 17.84H15.1233C15.2433 18.7733 15.6499 19.5267 16.3433 20.1C17.0499 20.66 17.9233 20.94 18.9633 20.94C20.2299 20.94 21.2499 20.5133 22.0233 19.66L23.0833 20.9C22.6033 21.46 22.0033 21.8867 21.2833 22.18C20.5766 22.4733 19.7833 22.62 18.9033 22.62C17.7833 22.62 16.7899 22.3933 15.9233 21.94C15.0566 21.4733 14.3833 20.8267 13.9033 20C13.4366 19.1733 13.2033 18.24 13.2033 17.2C13.2033 16.1733 13.4299 15.2467 13.8833 14.42C14.3499 13.5933 14.9833 12.9533 15.7833 12.5C16.5966 12.0333 17.5099 11.8 18.5233 11.8C19.5366 11.8 20.4366 12.0333 21.2233 12.5C22.0233 12.9533 22.6433 13.5933 23.0833 14.42C23.5366 15.2467 23.7633 16.1933 23.7633 17.26ZM18.5233 13.42C17.6033 13.42 16.8299 13.7 16.2033 14.26C15.5899 14.82 15.2299 15.5533 15.1233 16.46H21.9233C21.8166 15.5667 21.4499 14.84 20.8233 14.28C20.2099 13.7067 19.4433 13.42 18.5233 13.42ZM29.9964 11.8C31.4631 11.8 32.5831 12.16 33.3564 12.88C34.1431 13.6 34.5364 14.6733 34.5364 16.1V22.5H32.7164V21.1C32.3964 21.5933 31.9364 21.9733 31.3364 22.24C30.7497 22.4933 30.0497 22.62 29.2364 22.62C28.0497 22.62 27.0964 22.3333 26.3764 21.76C25.6697 21.1867 25.3164 20.4333 25.3164 19.5C25.3164 18.5667 25.6564 17.82 26.3364 17.26C27.0164 16.6867 28.0964 16.4 29.5764 16.4H32.6164V16.02C32.6164 15.1933 32.3764 14.56 31.8964 14.12C31.4164 13.68 30.7097 13.46 29.7764 13.46C29.1497 13.46 28.5364 13.5667 27.9364 13.78C27.3364 13.98 26.8297 14.2533 26.4164 14.6L25.6164 13.16C26.1631 12.72 26.8164 12.3867 27.5764 12.16C28.3364 11.92 29.1431 11.8 29.9964 11.8ZM29.5564 21.14C30.2897 21.14 30.9231 20.98 31.4564 20.66C31.9897 20.3267 32.3764 19.86 32.6164 19.26V17.78H29.6564C28.0297 17.78 27.2164 18.3267 27.2164 19.42C27.2164 19.9533 27.4231 20.3733 27.8364 20.68C28.2497 20.9867 28.8231 21.14 29.5564 21.14ZM44.0495 21.88C43.7695 22.12 43.4229 22.3067 43.0095 22.44C42.5962 22.56 42.1695 22.62 41.7295 22.62C40.6629 22.62 39.8362 22.3333 39.2495 21.76C38.6629 21.1867 38.3695 20.3667 38.3695 19.3V13.48H36.5695V11.9H38.3695V9.58H40.2895V11.9H43.3295V13.48H40.2895V19.22C40.2895 19.7933 40.4295 20.2333 40.7095 20.54C41.0029 20.8467 41.4162 21 41.9495 21C42.5362 21 43.0362 20.8333 43.4495 20.5L44.0495 21.88ZM56.2508 11.9V22.5H54.4308V20.9C54.0441 21.4467 53.5308 21.8733 52.8908 22.18C52.2641 22.4733 51.5774 22.62 50.8308 22.62C49.4174 22.62 48.3041 22.2333 47.4908 21.46C46.6774 20.6733 46.2708 19.52 46.2708 18V11.9H48.1908V17.78C48.1908 18.8067 48.4374 19.5867 48.9308 20.12C49.4241 20.64 50.1308 20.9 51.0508 20.9C52.0641 20.9 52.8641 20.5933 53.4508 19.98C54.0374 19.3667 54.3308 18.5 54.3308 17.38V11.9H56.2508ZM61.7459 13.68C62.0793 13.0667 62.5726 12.6 63.2259 12.28C63.8793 11.96 64.6726 11.8 65.6059 11.8V13.66C65.4993 13.6467 65.3526 13.64 65.1659 13.64C64.1259 13.64 63.3059 13.9533 62.7059 14.58C62.1193 15.1933 61.8259 16.0733 61.8259 17.22V22.5H59.9059V11.9H61.7459V13.68ZM77.4547 17.26C77.4547 17.4067 77.4414 17.6 77.4147 17.84H68.8147C68.9347 18.7733 69.3414 19.5267 70.0347 20.1C70.7414 20.66 71.6147 20.94 72.6547 20.94C73.9214 20.94 74.9414 20.5133 75.7147 19.66L76.7747 20.9C76.2947 21.46 75.6947 21.8867 74.9747 22.18C74.268 22.4733 73.4747 22.62 72.5947 22.62C71.4747 22.62 70.4814 22.3933 69.6147 21.94C68.748 21.4733 68.0747 20.8267 67.5947 20C67.128 19.1733 66.8947 18.24 66.8947 17.2C66.8947 16.1733 67.1214 15.2467 67.5747 14.42C68.0414 13.5933 68.6747 12.9533 69.4747 12.5C70.288 12.0333 71.2014 11.8 72.2147 11.8C73.228 11.8 74.128 12.0333 74.9147 12.5C75.7147 12.9533 76.3347 13.5933 76.7747 14.42C77.228 15.2467 77.4547 16.1933 77.4547 17.26ZM72.2147 13.42C71.2947 13.42 70.5214 13.7 69.8947 14.26C69.2814 14.82 68.9214 15.5533 68.8147 16.46H75.6147C75.508 15.5667 75.1414 14.84 74.5147 14.28C73.9014 13.7067 73.1347 13.42 72.2147 13.42ZM90.1208 7.66V22.5H88.2808V20.82C87.8541 21.4067 87.3141 21.8533 86.6608 22.16C86.0074 22.4667 85.2874 22.62 84.5008 22.62C83.4741 22.62 82.5541 22.3933 81.7408 21.94C80.9274 21.4867 80.2874 20.8533 79.8208 20.04C79.3674 19.2133 79.1408 18.2667 79.1408 17.2C79.1408 16.1333 79.3674 15.1933 79.8208 14.38C80.2874 13.5667 80.9274 12.9333 81.7408 12.48C82.5541 12.0267 83.4741 11.8 84.5008 11.8C85.2608 11.8 85.9608 11.9467 86.6008 12.24C87.2408 12.52 87.7741 12.94 88.2008 13.5V7.66H90.1208ZM84.6608 20.94C85.3274 20.94 85.9341 20.7867 86.4808 20.48C87.0274 20.16 87.4541 19.72 87.7608 19.16C88.0674 18.5867 88.2208 17.9333 88.2208 17.2C88.2208 16.4667 88.0674 15.82 87.7608 15.26C87.4541 14.6867 87.0274 14.2467 86.4808 13.94C85.9341 13.6333 85.3274 13.48 84.6608 13.48C83.9808 13.48 83.3674 13.6333 82.8208 13.94C82.2874 14.2467 81.8608 14.6867 81.5408 15.26C81.2341 15.82 81.0808 16.4667 81.0808 17.2C81.0808 17.9333 81.2341 18.5867 81.5408 19.16C81.8608 19.72 82.2874 20.16 82.8208 20.48C83.3674 20.7867 83.9808 20.94 84.6608 20.94ZM104.865 8.5C106.678 8.5 108.105 8.93333 109.145 9.8C110.185 10.6667 110.705 11.86 110.705 13.38C110.705 14.9 110.185 16.0933 109.145 16.96C108.105 17.8267 106.678 18.26 104.865 18.26H101.405V22.5H99.4047V8.5H104.865ZM104.805 16.52C106.071 16.52 107.038 16.2533 107.705 15.72C108.371 15.1733 108.705 14.3933 108.705 13.38C108.705 12.3667 108.371 11.5933 107.705 11.06C107.038 10.5133 106.071 10.24 104.805 10.24H101.405V16.52H104.805ZM113.558 7.66H115.478V22.5H113.558V7.66ZM123.004 11.8C124.471 11.8 125.591 12.16 126.364 12.88C127.151 13.6 127.544 14.6733 127.544 16.1V22.5H125.724V21.1C125.404 21.5933 124.944 21.9733 124.344 22.24C123.758 22.4933 123.058 22.62 122.244 22.62C121.058 22.62 120.104 22.3333 119.384 21.76C118.678 21.1867 118.324 20.4333 118.324 19.5C118.324 18.5667 118.664 17.82 119.344 17.26C120.024 16.6867 121.104 16.4 122.584 16.4H125.624V16.02C125.624 15.1933 125.384 14.56 124.904 14.12C124.424 13.68 123.718 13.46 122.784 13.46C122.158 13.46 121.544 13.5667 120.944 13.78C120.344 13.98 119.838 14.2533 119.424 14.6L118.624 13.16C119.171 12.72 119.824 12.3867 120.584 12.16C121.344 11.92 122.151 11.8 123.004 11.8ZM122.564 21.14C123.298 21.14 123.931 20.98 124.464 20.66C124.998 20.3267 125.384 19.86 125.624 19.26V17.78H122.664C121.038 17.78 120.224 18.3267 120.224 19.42C120.224 19.9533 120.431 20.3733 120.844 20.68C121.258 20.9867 121.831 21.14 122.564 21.14ZM136.757 11.8C138.104 11.8 139.171 12.1933 139.957 12.98C140.757 13.7533 141.157 14.8933 141.157 16.4V22.5H139.237V16.62C139.237 15.5933 138.991 14.82 138.497 14.3C138.004 13.78 137.297 13.52 136.377 13.52C135.337 13.52 134.517 13.8267 133.917 14.44C133.317 15.04 133.017 15.9067 133.017 17.04V22.5H131.097V11.9H132.937V13.5C133.324 12.9533 133.844 12.5333 134.497 12.24C135.164 11.9467 135.917 11.8 136.757 11.8ZM150.671 21.88C150.391 22.12 150.044 22.3067 149.631 22.44C149.217 22.56 148.791 22.62 148.351 22.62C147.284 22.62 146.457 22.3333 145.871 21.76C145.284 21.1867 144.991 20.3667 144.991 19.3V13.48H143.191V11.9H144.991V9.58H146.911V11.9H149.951V13.48H146.911V19.22C146.911 19.7933 147.051 20.2333 147.331 20.54C147.624 20.8467 148.037 21 148.571 21C149.157 21 149.657 20.8333 150.071 20.5L150.671 21.88ZM156.032 22.62C155.165 22.62 154.332 22.5067 153.532 22.28C152.732 22.04 152.105 21.74 151.652 21.38L152.452 19.86C152.919 20.1933 153.485 20.46 154.152 20.66C154.819 20.86 155.492 20.96 156.172 20.96C157.852 20.96 158.692 20.48 158.692 19.52C158.692 19.2 158.579 18.9467 158.352 18.76C158.125 18.5733 157.839 18.44 157.492 18.36C157.159 18.2667 156.679 18.1667 156.052 18.06C155.199 17.9267 154.499 17.7733 153.952 17.6C153.419 17.4267 152.959 17.1333 152.572 16.72C152.185 16.3067 151.992 15.7267 151.992 14.98C151.992 14.02 152.392 13.2533 153.192 12.68C153.992 12.0933 155.065 11.8 156.412 11.8C157.119 11.8 157.825 11.8867 158.532 12.06C159.239 12.2333 159.819 12.4667 160.272 12.76L159.452 14.28C158.585 13.72 157.565 13.44 156.392 13.44C155.579 13.44 154.959 13.5733 154.532 13.84C154.105 14.1067 153.892 14.46 153.892 14.9C153.892 15.2467 154.012 15.52 154.252 15.72C154.492 15.92 154.785 16.0667 155.132 16.16C155.492 16.2533 155.992 16.36 156.632 16.48C157.485 16.6267 158.172 16.7867 158.692 16.96C159.225 17.12 159.679 17.4 160.052 17.8C160.425 18.2 160.612 18.76 160.612 19.48C160.612 20.44 160.199 21.2067 159.372 21.78C158.559 22.34 157.445 22.62 156.032 22.62Z" fill="black"/>
<rect x="1038.5" y="0.5" width="129" height="30" fill="white"/>
<path d="M1055.02 20.096C1054.18 20.096 1053.42 19.912 1052.74 19.544C1052.06 19.168 1051.54 18.656 1051.15 18.008C1050.77 17.352 1050.58 16.616 1050.58 15.8C1050.58 14.984 1050.77 14.252 1051.15 13.604C1051.54 12.948 1052.07 12.436 1052.75 12.068C1053.43 11.692 1054.19 11.504 1055.03 11.504C1055.68 11.504 1056.28 11.616 1056.83 11.84C1057.37 12.056 1057.84 12.38 1058.22 12.812L1057.44 13.568C1056.81 12.904 1056.02 12.572 1055.08 12.572C1054.45 12.572 1053.89 12.712 1053.38 12.992C1052.88 13.272 1052.48 13.66 1052.2 14.156C1051.92 14.644 1051.78 15.192 1051.78 15.8C1051.78 16.408 1051.92 16.96 1052.2 17.456C1052.48 17.944 1052.88 18.328 1053.38 18.608C1053.89 18.888 1054.45 19.028 1055.08 19.028C1056.01 19.028 1056.8 18.692 1057.44 18.02L1058.22 18.776C1057.84 19.208 1057.37 19.536 1056.82 19.76C1056.27 19.984 1055.67 20.096 1055.02 20.096ZM1063.16 13.58C1063.97 13.58 1064.61 13.816 1065.08 14.288C1065.56 14.752 1065.8 15.436 1065.8 16.34V20H1064.65V16.472C1064.65 15.856 1064.5 15.392 1064.2 15.08C1063.91 14.768 1063.48 14.612 1062.93 14.612C1062.31 14.612 1061.82 14.796 1061.46 15.164C1061.1 15.524 1060.92 16.044 1060.92 16.724V20H1059.76V11.096H1060.92V14.54C1061.16 14.236 1061.47 14 1061.85 13.832C1062.24 13.664 1062.68 13.58 1063.16 13.58ZM1073.72 16.856C1073.72 16.944 1073.71 17.06 1073.69 17.204H1068.53C1068.6 17.764 1068.85 18.216 1069.26 18.56C1069.69 18.896 1070.21 19.064 1070.84 19.064C1071.6 19.064 1072.21 18.808 1072.67 18.296L1073.31 19.04C1073.02 19.376 1072.66 19.632 1072.23 19.808C1071.8 19.984 1071.33 20.072 1070.8 20.072C1070.13 20.072 1069.53 19.936 1069.01 19.664C1068.49 19.384 1068.09 18.996 1067.8 18.5C1067.52 18.004 1067.38 17.444 1067.38 16.82C1067.38 16.204 1067.52 15.648 1067.79 15.152C1068.07 14.656 1068.45 14.272 1068.93 14C1069.42 13.72 1069.96 13.58 1070.57 13.58C1071.18 13.58 1071.72 13.72 1072.19 14C1072.67 14.272 1073.04 14.656 1073.31 15.152C1073.58 15.648 1073.72 16.216 1073.72 16.856ZM1070.57 14.552C1070.02 14.552 1069.56 14.72 1069.18 15.056C1068.81 15.392 1068.6 15.832 1068.53 16.376H1072.61C1072.55 15.84 1072.33 15.404 1071.95 15.068C1071.58 14.724 1071.12 14.552 1070.57 14.552ZM1077.45 13.58C1078.33 13.58 1079.01 13.796 1079.47 14.228C1079.94 14.66 1080.18 15.304 1080.18 16.16V20H1079.09V19.16C1078.89 19.456 1078.62 19.684 1078.26 19.844C1077.91 19.996 1077.49 20.072 1077 20.072C1076.29 20.072 1075.71 19.9 1075.28 19.556C1074.86 19.212 1074.65 18.76 1074.65 18.2C1074.65 17.64 1074.85 17.192 1075.26 16.856C1075.67 16.512 1076.31 16.34 1077.2 16.34H1079.03V16.112C1079.03 15.616 1078.88 15.236 1078.59 14.972C1078.31 14.708 1077.88 14.576 1077.32 14.576C1076.95 14.576 1076.58 14.64 1076.22 14.768C1075.86 14.888 1075.55 15.052 1075.31 15.26L1074.83 14.396C1075.15 14.132 1075.55 13.932 1076 13.796C1076.46 13.652 1076.94 13.58 1077.45 13.58ZM1077.19 19.184C1077.63 19.184 1078.01 19.088 1078.33 18.896C1078.65 18.696 1078.88 18.416 1079.03 18.056V17.168H1077.25C1076.27 17.168 1075.79 17.496 1075.79 18.152C1075.79 18.472 1075.91 18.724 1076.16 18.908C1076.41 19.092 1076.75 19.184 1077.19 19.184ZM1085.68 13.58C1086.3 13.58 1086.85 13.716 1087.34 13.988C1087.83 14.26 1088.21 14.64 1088.48 15.128C1088.76 15.616 1088.9 16.18 1088.9 16.82C1088.9 17.46 1088.76 18.028 1088.48 18.524C1088.21 19.012 1087.83 19.392 1087.34 19.664C1086.85 19.936 1086.3 20.072 1085.68 20.072C1085.23 20.072 1084.81 19.984 1084.42 19.808C1084.05 19.632 1083.73 19.376 1083.46 19.04V22.328H1082.31V13.64H1083.41V14.648C1083.67 14.296 1083.99 14.032 1084.39 13.856C1084.78 13.672 1085.21 13.58 1085.68 13.58ZM1085.59 19.064C1085.99 19.064 1086.36 18.972 1086.68 18.788C1087.01 18.596 1087.26 18.332 1087.45 17.996C1087.64 17.652 1087.73 17.26 1087.73 16.82C1087.73 16.38 1087.64 15.992 1087.45 15.656C1087.26 15.312 1087.01 15.048 1086.68 14.864C1086.36 14.68 1085.99 14.588 1085.59 14.588C1085.19 14.588 1084.82 14.684 1084.49 14.876C1084.17 15.06 1083.92 15.32 1083.73 15.656C1083.54 15.992 1083.45 16.38 1083.45 16.82C1083.45 17.26 1083.54 17.652 1083.73 17.996C1083.91 18.332 1084.17 18.596 1084.49 18.788C1084.82 18.972 1085.19 19.064 1085.59 19.064ZM1096.24 16.856C1096.24 16.944 1096.23 17.06 1096.21 17.204H1091.05C1091.13 17.764 1091.37 18.216 1091.79 18.56C1092.21 18.896 1092.73 19.064 1093.36 19.064C1094.12 19.064 1094.73 18.808 1095.19 18.296L1095.83 19.04C1095.54 19.376 1095.18 19.632 1094.75 19.808C1094.33 19.984 1093.85 20.072 1093.32 20.072C1092.65 20.072 1092.05 19.936 1091.53 19.664C1091.01 19.384 1090.61 18.996 1090.32 18.5C1090.04 18.004 1089.9 17.444 1089.9 16.82C1089.9 16.204 1090.04 15.648 1090.31 15.152C1090.59 14.656 1090.97 14.272 1091.45 14C1091.94 13.72 1092.49 13.58 1093.09 13.58C1093.7 13.58 1094.24 13.72 1094.71 14C1095.19 14.272 1095.57 14.656 1095.83 15.152C1096.1 15.648 1096.24 16.216 1096.24 16.856ZM1093.09 14.552C1092.54 14.552 1092.08 14.72 1091.7 15.056C1091.33 15.392 1091.12 15.832 1091.05 16.376H1095.13C1095.07 15.84 1094.85 15.404 1094.47 15.068C1094.11 14.724 1093.65 14.552 1093.09 14.552ZM1098.94 14.708C1099.14 14.34 1099.44 14.06 1099.83 13.868C1100.22 13.676 1100.7 13.58 1101.26 13.58V14.696C1101.19 14.688 1101.11 14.684 1100.99 14.684C1100.37 14.684 1099.88 14.872 1099.52 15.248C1099.17 15.616 1098.99 16.144 1098.99 16.832V20H1097.84V13.64H1098.94V14.708ZM1107.35 12.644V15.572H1111.56V16.604H1107.35V20H1106.15V11.6H1112.08V12.644H1107.35ZM1113.48 13.64H1114.63V20H1113.48V13.64ZM1114.06 12.416C1113.83 12.416 1113.65 12.344 1113.49 12.2C1113.35 12.056 1113.28 11.88 1113.28 11.672C1113.28 11.464 1113.35 11.288 1113.49 11.144C1113.65 10.992 1113.83 10.916 1114.06 10.916C1114.28 10.916 1114.47 10.988 1114.61 11.132C1114.76 11.268 1114.84 11.44 1114.84 11.648C1114.84 11.864 1114.76 12.048 1114.61 12.2C1114.47 12.344 1114.28 12.416 1114.06 12.416ZM1117.94 14.708C1118.14 14.34 1118.43 14.06 1118.83 13.868C1119.22 13.676 1119.69 13.58 1120.25 13.58V14.696C1120.19 14.688 1120.1 14.684 1119.99 14.684C1119.37 14.684 1118.87 14.872 1118.51 15.248C1118.16 15.616 1117.99 16.144 1117.99 16.832V20H1116.83V13.64H1117.94V14.708ZM1123.54 20.072C1123.02 20.072 1122.52 20.004 1122.04 19.868C1121.56 19.724 1121.19 19.544 1120.92 19.328L1121.4 18.416C1121.68 18.616 1122.02 18.776 1122.42 18.896C1122.82 19.016 1123.22 19.076 1123.63 19.076C1124.64 19.076 1125.14 18.788 1125.14 18.212C1125.14 18.02 1125.07 17.868 1124.94 17.756C1124.8 17.644 1124.63 17.564 1124.42 17.516C1124.22 17.46 1123.93 17.4 1123.56 17.336C1123.04 17.256 1122.62 17.164 1122.3 17.06C1121.98 16.956 1121.7 16.78 1121.47 16.532C1121.24 16.284 1121.12 15.936 1121.12 15.488C1121.12 14.912 1121.36 14.452 1121.84 14.108C1122.32 13.756 1122.96 13.58 1123.77 13.58C1124.2 13.58 1124.62 13.632 1125.04 13.736C1125.47 13.84 1125.82 13.98 1126.09 14.156L1125.6 15.068C1125.08 14.732 1124.46 14.564 1123.76 14.564C1123.27 14.564 1122.9 14.644 1122.64 14.804C1122.39 14.964 1122.26 15.176 1122.26 15.44C1122.26 15.648 1122.33 15.812 1122.48 15.932C1122.62 16.052 1122.8 16.14 1123 16.196C1123.22 16.252 1123.52 16.316 1123.9 16.388C1124.42 16.476 1124.83 16.572 1125.14 16.676C1125.46 16.772 1125.73 16.94 1125.96 17.18C1126.18 17.42 1126.29 17.756 1126.29 18.188C1126.29 18.764 1126.04 19.224 1125.55 19.568C1125.06 19.904 1124.39 20.072 1123.54 20.072ZM1131.31 19.628C1131.14 19.772 1130.93 19.884 1130.68 19.964C1130.44 20.036 1130.18 20.072 1129.92 20.072C1129.28 20.072 1128.78 19.9 1128.43 19.556C1128.08 19.212 1127.9 18.72 1127.9 18.08V14.588H1126.82V13.64H1127.9V12.248H1129.05V13.64H1130.88V14.588H1129.05V18.032C1129.05 18.376 1129.14 18.64 1129.3 18.824C1129.48 19.008 1129.73 19.1 1130.05 19.1C1130.4 19.1 1130.7 19 1130.95 18.8L1131.31 19.628Z" fill="black"/>
<path d="M1147 14L1150 17L1153 14" stroke="black" stroke-linecap="round" stroke-linejoin="round"/>
<rect x="1038.5" y="0.5" width="129" height="30" stroke="#E0E0E0"/>
<path d="M0 47H1168" stroke="#E0E0E0"/>
</svg>
