<svg width="145" height="32" viewBox="0 0 145 32" fill="none" xmlns="http://www.w3.org/2000/svg">
<g opacity="0.5">
<g clip-path="url(#clip0_0_84)">
<path d="M25.3331 14.6666H9.51982L14.3598 8.85331C14.5861 8.58103 14.695 8.22998 14.6625 7.87742C14.63 7.52485 14.4588 7.19963 14.1865 6.97331C13.9142 6.747 13.5632 6.63811 13.2106 6.67062C12.858 6.70313 12.5328 6.87436 12.3065 7.14665L5.63982 15.1466C5.59497 15.2103 5.55486 15.2771 5.51982 15.3466C5.51982 15.4133 5.51982 15.4533 5.42649 15.52C5.36605 15.6729 5.33441 15.8356 5.33315 16C5.33441 16.1644 5.36605 16.3271 5.42649 16.48C5.42649 16.5466 5.42649 16.5866 5.51982 16.6533C5.55486 16.7228 5.59497 16.7897 5.63982 16.8533L12.3065 24.8533C12.4318 25.0038 12.5888 25.1249 12.7663 25.2078C12.9437 25.2908 13.1373 25.3336 13.3332 25.3333C13.6447 25.3339 13.9466 25.2254 14.1865 25.0266C14.3215 24.9147 14.4331 24.7772 14.5149 24.6221C14.5967 24.467 14.6471 24.2972 14.6632 24.1226C14.6793 23.948 14.6608 23.7719 14.6087 23.6044C14.5567 23.4369 14.4721 23.2814 14.3598 23.1466L9.51982 17.3333H25.3331C25.6868 17.3333 26.0259 17.1928 26.276 16.9428C26.526 16.6927 26.6665 16.3536 26.6665 16C26.6665 15.6464 26.526 15.3072 26.276 15.0572C26.0259 14.8071 25.6868 14.6666 25.3331 14.6666Z" fill="#333333"/>
</g>
<path d="M49.0719 7.7C51.2479 7.7 52.9599 8.22 54.2079 9.26C55.4559 10.3 56.0799 11.732 56.0799 13.556C56.0799 15.38 55.4559 16.812 54.2079 17.852C52.9599 18.892 51.2479 19.412 49.0719 19.412H44.9199V24.5H42.5199V7.7H49.0719ZM48.9999 17.324C50.5199 17.324 51.6799 17.004 52.4799 16.364C53.2799 15.708 53.6799 14.772 53.6799 13.556C53.6799 12.34 53.2799 11.412 52.4799 10.772C51.6799 10.116 50.5199 9.788 48.9999 9.788H44.9199V17.324H48.9999ZM61.2669 13.916C61.6669 13.18 62.2589 12.62 63.0429 12.236C63.8269 11.852 64.7789 11.66 65.8989 11.66V13.892C65.7709 13.876 65.5949 13.868 65.3709 13.868C64.1229 13.868 63.1389 14.244 62.4189 14.996C61.7149 15.732 61.3629 16.788 61.3629 18.164V24.5H59.0589V11.78H61.2669V13.916ZM80.1174 18.212C80.1174 18.388 80.1014 18.62 80.0694 18.908H69.7494C69.8934 20.028 70.3814 20.932 71.2134 21.62C72.0614 22.292 73.1094 22.628 74.3574 22.628C75.8774 22.628 77.1014 22.116 78.0294 21.092L79.3014 22.58C78.7254 23.252 78.0054 23.764 77.1414 24.116C76.2934 24.468 75.3414 24.644 74.2854 24.644C72.9414 24.644 71.7494 24.372 70.7094 23.828C69.6694 23.268 68.8614 22.492 68.2854 21.5C67.7254 20.508 67.4454 19.388 67.4454 18.14C67.4454 16.908 67.7174 15.796 68.2614 14.804C68.8214 13.812 69.5814 13.044 70.5414 12.5C71.5174 11.94 72.6134 11.66 73.8294 11.66C75.0454 11.66 76.1254 11.94 77.0694 12.5C78.0294 13.044 78.7734 13.812 79.3014 14.804C79.8454 15.796 80.1174 16.932 80.1174 18.212ZM73.8294 13.604C72.7254 13.604 71.7974 13.94 71.0454 14.612C70.3094 15.284 69.8774 16.164 69.7494 17.252H77.9094C77.7814 16.18 77.3414 15.308 76.5894 14.636C75.8534 13.948 74.9334 13.604 73.8294 13.604ZM94.3383 11.78L88.7703 24.5H86.4183L80.8503 11.78H83.2503L87.6183 21.98L92.0823 11.78H94.3383ZM96.4886 11.78H98.7926V24.5H96.4886V11.78ZM97.6406 9.332C97.1926 9.332 96.8166 9.188 96.5126 8.9C96.2246 8.612 96.0806 8.26 96.0806 7.844C96.0806 7.428 96.2246 7.076 96.5126 6.788C96.8166 6.484 97.1926 6.332 97.6406 6.332C98.0886 6.332 98.4566 6.476 98.7446 6.764C99.0486 7.036 99.2006 7.38 99.2006 7.796C99.2006 8.228 99.0486 8.596 98.7446 8.9C98.4566 9.188 98.0886 9.332 97.6406 9.332ZM108.64 24.644C107.376 24.644 106.24 24.364 105.232 23.804C104.224 23.244 103.432 22.476 102.856 21.5C102.296 20.508 102.016 19.388 102.016 18.14C102.016 16.892 102.296 15.78 102.856 14.804C103.432 13.812 104.224 13.044 105.232 12.5C106.24 11.94 107.376 11.66 108.64 11.66C109.904 11.66 111.032 11.94 112.024 12.5C113.032 13.044 113.816 13.812 114.376 14.804C114.952 15.78 115.24 16.892 115.24 18.14C115.24 19.388 114.952 20.508 114.376 21.5C113.816 22.476 113.032 23.244 112.024 23.804C111.032 24.364 109.904 24.644 108.64 24.644ZM108.64 22.628C109.456 22.628 110.184 22.444 110.824 22.076C111.48 21.692 111.992 21.164 112.36 20.492C112.728 19.804 112.912 19.02 112.912 18.14C112.912 17.26 112.728 16.484 112.36 15.812C111.992 15.124 111.48 14.596 110.824 14.228C110.184 13.86 109.456 13.676 108.64 13.676C107.824 13.676 107.088 13.86 106.432 14.228C105.792 14.596 105.28 15.124 104.896 15.812C104.528 16.484 104.344 17.26 104.344 18.14C104.344 19.02 104.528 19.804 104.896 20.492C105.28 21.164 105.792 21.692 106.432 22.076C107.088 22.444 107.824 22.628 108.64 22.628ZM130.282 11.78V24.5H128.098V22.58C127.634 23.236 127.018 23.748 126.25 24.116C125.498 24.468 124.674 24.644 123.778 24.644C122.082 24.644 120.746 24.18 119.77 23.252C118.794 22.308 118.306 20.924 118.306 19.1V11.78H120.61V18.836C120.61 20.068 120.906 21.004 121.498 21.644C122.09 22.268 122.938 22.58 124.042 22.58C125.258 22.58 126.218 22.212 126.922 21.476C127.626 20.74 127.978 19.7 127.978 18.356V11.78H130.282ZM138.316 24.644C137.276 24.644 136.276 24.508 135.316 24.236C134.356 23.948 133.604 23.588 133.06 23.156L134.02 21.332C134.58 21.732 135.26 22.052 136.06 22.292C136.86 22.532 137.668 22.652 138.484 22.652C140.5 22.652 141.508 22.076 141.508 20.924C141.508 20.54 141.372 20.236 141.1 20.012C140.828 19.788 140.484 19.628 140.068 19.532C139.668 19.42 139.092 19.3 138.34 19.172C137.316 19.012 136.476 18.828 135.82 18.62C135.18 18.412 134.628 18.06 134.164 17.564C133.7 17.068 133.468 16.372 133.468 15.476C133.468 14.324 133.948 13.404 134.908 12.716C135.868 12.012 137.156 11.66 138.772 11.66C139.62 11.66 140.468 11.764 141.316 11.972C142.164 12.18 142.86 12.46 143.404 12.812L142.42 14.636C141.38 13.964 140.156 13.628 138.748 13.628C137.772 13.628 137.028 13.788 136.516 14.108C136.004 14.428 135.748 14.852 135.748 15.38C135.748 15.796 135.892 16.124 136.18 16.364C136.468 16.604 136.82 16.78 137.236 16.892C137.668 17.004 138.268 17.132 139.036 17.276C140.06 17.452 140.884 17.644 141.508 17.852C142.148 18.044 142.692 18.38 143.14 18.86C143.588 19.34 143.812 20.012 143.812 20.876C143.812 22.028 143.316 22.948 142.324 23.636C141.348 24.308 140.012 24.644 138.316 24.644Z" fill="#333333"/>
</g>
<defs>
<clipPath id="clip0_0_84">
<rect width="32" height="32" fill="white"/>
</clipPath>
</defs>
</svg>
