<svg width="97" height="32" viewBox="0 0 97 32" fill="none" xmlns="http://www.w3.org/2000/svg">
<g opacity="0.5">
<path d="M16.9679 7.7V24.5H14.9999L4.91988 11.972V24.5H2.51988V7.7H4.48788L14.5679 20.228V7.7H16.9679ZM33.1564 18.212C33.1564 18.388 33.1404 18.62 33.1084 18.908H22.7884C22.9324 20.028 23.4204 20.932 24.2524 21.62C25.1004 22.292 26.1484 22.628 27.3964 22.628C28.9164 22.628 30.1404 22.116 31.0684 21.092L32.3404 22.58C31.7644 23.252 31.0444 23.764 30.1804 24.116C29.3324 24.468 28.3804 24.644 27.3244 24.644C25.9804 24.644 24.7884 24.372 23.7484 23.828C22.7084 23.268 21.9004 22.492 21.3244 21.5C20.7644 20.508 20.4844 19.388 20.4844 18.14C20.4844 16.908 20.7564 15.796 21.3004 14.804C21.8604 13.812 22.6204 13.044 23.5804 12.5C24.5564 11.94 25.6524 11.66 26.8684 11.66C28.0844 11.66 29.1644 11.94 30.1084 12.5C31.0684 13.044 31.8124 13.812 32.3404 14.804C32.8844 15.796 33.1564 16.932 33.1564 18.212ZM26.8684 13.604C25.7644 13.604 24.8364 13.94 24.0844 14.612C23.3484 15.284 22.9164 16.164 22.7884 17.252H30.9484C30.8204 16.18 30.3804 15.308 29.6284 14.636C28.8924 13.948 27.9724 13.604 26.8684 13.604ZM44.1162 24.5L40.4442 19.628L36.7242 24.5H34.1562L39.1722 17.996L34.3962 11.78H36.9642L40.4682 16.364L43.9482 11.78H46.4682L41.6682 17.996L46.7322 24.5H44.1162ZM56.3984 23.756C56.0624 24.044 55.6464 24.268 55.1504 24.428C54.6544 24.572 54.1424 24.644 53.6144 24.644C52.3344 24.644 51.3424 24.3 50.6384 23.612C49.9344 22.924 49.5824 21.94 49.5824 20.66V13.676H47.4224V11.78H49.5824V8.996H51.8864V11.78H55.5344V13.676H51.8864V20.564C51.8864 21.252 52.0544 21.78 52.3904 22.148C52.7424 22.516 53.2384 22.7 53.8784 22.7C54.5824 22.7 55.1824 22.5 55.6784 22.1L56.3984 23.756Z" fill="#F2F2F2"/>
<g clip-path="url(#clip0_0_75)">
<path d="M71.6666 17.3334H87.4799L82.6399 23.1467C82.4136 23.419 82.3047 23.77 82.3372 24.1226C82.3697 24.4752 82.541 24.8004 82.8133 25.0267C83.0856 25.253 83.4366 25.3619 83.7892 25.3294C84.1417 25.2969 84.4669 25.1256 84.6933 24.8534L91.3599 16.8534C91.4048 16.7897 91.4449 16.7229 91.4799 16.6534C91.4799 16.5867 91.4799 16.5467 91.5733 16.48C91.6337 16.3271 91.6653 16.1644 91.6666 16C91.6653 15.8356 91.6337 15.6729 91.5733 15.52C91.5733 15.4534 91.5733 15.4134 91.4799 15.3467C91.4449 15.2772 91.4048 15.2103 91.3599 15.1467L84.6933 7.14669C84.5679 6.99618 84.4109 6.87514 84.2335 6.79218C84.056 6.70921 83.8625 6.66637 83.6666 6.66669C83.3551 6.66608 83.0531 6.77458 82.8133 6.97335C82.6783 7.08529 82.5666 7.22275 82.4848 7.37788C82.403 7.53301 82.3526 7.70275 82.3365 7.87739C82.3204 8.05203 82.339 8.22812 82.391 8.39559C82.4431 8.56306 82.5277 8.71862 82.6399 8.85335L87.4799 14.6667H71.6666C71.313 14.6667 70.9738 14.8072 70.7238 15.0572C70.4737 15.3073 70.3333 15.6464 70.3333 16C70.3333 16.3536 70.4737 16.6928 70.7238 16.9428C70.9738 17.1929 71.313 17.3334 71.6666 17.3334Z" fill="#F2F2F2"/>
</g>
</g>
<defs>
<clipPath id="clip0_0_75">
<rect width="32" height="32" fill="white" transform="translate(96.9999 32) rotate(-180)"/>
</clipPath>
</defs>
</svg>
