<svg width="236" height="112" viewBox="0 0 236 112" fill="none" xmlns="http://www.w3.org/2000/svg">
<path d="M1.14 69H1.88V75.36H5.8V76H1.14V69ZM8.95055 76.05C8.44388 76.05 7.98721 75.9367 7.58055 75.71C7.17388 75.4767 6.85388 75.1567 6.62055 74.75C6.38721 74.3433 6.27055 73.8833 6.27055 73.37C6.27055 72.8567 6.38721 72.3967 6.62055 71.99C6.85388 71.5833 7.17388 71.2667 7.58055 71.04C7.98721 70.8133 8.44388 70.7 8.95055 70.7C9.45721 70.7 9.91388 70.8133 10.3205 71.04C10.7272 71.2667 11.0439 71.5833 11.2705 71.99C11.5039 72.3967 11.6205 72.8567 11.6205 73.37C11.6205 73.8833 11.5039 74.3433 11.2705 74.75C11.0439 75.1567 10.7272 75.4767 10.3205 75.71C9.91388 75.9367 9.45721 76.05 8.95055 76.05ZM8.95055 75.42C9.32388 75.42 9.65721 75.3367 9.95055 75.17C10.2505 74.9967 10.4839 74.7533 10.6505 74.44C10.8172 74.1267 10.9005 73.77 10.9005 73.37C10.9005 72.97 10.8172 72.6133 10.6505 72.3C10.4839 71.9867 10.2505 71.7467 9.95055 71.58C9.65721 71.4067 9.32388 71.32 8.95055 71.32C8.57721 71.32 8.24055 71.4067 7.94055 71.58C7.64721 71.7467 7.41388 71.9867 7.24055 72.3C7.07388 72.6133 6.99055 72.97 6.99055 73.37C6.99055 73.77 7.07388 74.1267 7.24055 74.44C7.41388 74.7533 7.64721 74.9967 7.94055 75.17C8.24055 75.3367 8.57721 75.42 8.95055 75.42ZM13.7501 71.77C13.9167 71.4167 14.1634 71.15 14.4901 70.97C14.8234 70.79 15.2334 70.7 15.7201 70.7V71.39L15.5501 71.38C14.9967 71.38 14.5634 71.55 14.2501 71.89C13.9367 72.23 13.7801 72.7067 13.7801 73.32V76H13.0701V70.74H13.7501V71.77ZM21.5368 73.59H17.1368C17.1768 74.1367 17.3868 74.58 17.7668 74.92C18.1468 75.2533 18.6268 75.42 19.2068 75.42C19.5335 75.42 19.8335 75.3633 20.1068 75.25C20.3801 75.13 20.6168 74.9567 20.8168 74.73L21.2168 75.19C20.9835 75.47 20.6901 75.6833 20.3368 75.83C19.9901 75.9767 19.6068 76.05 19.1868 76.05C18.6468 76.05 18.1668 75.9367 17.7468 75.71C17.3335 75.4767 17.0101 75.1567 16.7768 74.75C16.5435 74.3433 16.4268 73.8833 16.4268 73.37C16.4268 72.8567 16.5368 72.3967 16.7568 71.99C16.9835 71.5833 17.2901 71.2667 17.6768 71.04C18.0701 70.8133 18.5101 70.7 18.9968 70.7C19.4835 70.7 19.9201 70.8133 20.3068 71.04C20.6935 71.2667 20.9968 71.5833 21.2168 71.99C21.4368 72.39 21.5468 72.85 21.5468 73.37L21.5368 73.59ZM18.9968 71.31C18.4901 71.31 18.0635 71.4733 17.7168 71.8C17.3768 72.12 17.1835 72.54 17.1368 73.06H20.8668C20.8201 72.54 20.6235 72.12 20.2768 71.8C19.9368 71.4733 19.5101 71.31 18.9968 71.31ZM29.552 70.7C30.212 70.7 30.7286 70.89 31.102 71.27C31.482 71.65 31.672 72.21 31.672 72.95V76H30.962V73.02C30.962 72.4733 30.8286 72.0567 30.562 71.77C30.302 71.4833 29.932 71.34 29.452 71.34C28.9053 71.34 28.4753 71.51 28.162 71.85C27.8486 72.1833 27.692 72.6467 27.692 73.24V76H26.982V73.02C26.982 72.4733 26.8486 72.0567 26.582 71.77C26.322 71.4833 25.9486 71.34 25.462 71.34C24.922 71.34 24.492 71.51 24.172 71.85C23.8586 72.1833 23.702 72.6467 23.702 73.24V76H22.992V70.74H23.672V71.7C23.8586 71.38 24.1186 71.1333 24.452 70.96C24.7853 70.7867 25.1686 70.7 25.602 70.7C26.042 70.7 26.422 70.7933 26.742 70.98C27.0686 71.1667 27.312 71.4433 27.472 71.81C27.6653 71.4633 27.942 71.1933 28.302 71C28.6686 70.8 29.0853 70.7 29.552 70.7ZM36.3646 69H37.1046V76H36.3646V69ZM41.9422 70.7C42.4355 70.7 42.8822 70.8133 43.2822 71.04C43.6822 71.26 43.9955 71.5733 44.2222 71.98C44.4489 72.3867 44.5622 72.85 44.5622 73.37C44.5622 73.8967 44.4489 74.3633 44.2222 74.77C43.9955 75.1767 43.6822 75.4933 43.2822 75.72C42.8889 75.94 42.4422 76.05 41.9422 76.05C41.5155 76.05 41.1289 75.9633 40.7822 75.79C40.4422 75.61 40.1622 75.35 39.9422 75.01V77.94H39.2322V70.74H39.9122V71.78C40.1255 71.4333 40.4055 71.1667 40.7522 70.98C41.1055 70.7933 41.5022 70.7 41.9422 70.7ZM41.8922 75.42C42.2589 75.42 42.5922 75.3367 42.8922 75.17C43.1922 74.9967 43.4255 74.7533 43.5922 74.44C43.7655 74.1267 43.8522 73.77 43.8522 73.37C43.8522 72.97 43.7655 72.6167 43.5922 72.31C43.4255 71.9967 43.1922 71.7533 42.8922 71.58C42.5922 71.4067 42.2589 71.32 41.8922 71.32C41.5189 71.32 41.1822 71.4067 40.8822 71.58C40.5889 71.7533 40.3555 71.9967 40.1822 72.31C40.0155 72.6167 39.9322 72.97 39.9322 73.37C39.9322 73.77 40.0155 74.1267 40.1822 74.44C40.3555 74.7533 40.5889 74.9967 40.8822 75.17C41.1822 75.3367 41.5189 75.42 41.8922 75.42ZM47.4195 76.05C46.9929 76.05 46.5829 75.99 46.1895 75.87C45.8029 75.7433 45.4995 75.5867 45.2795 75.4L45.5995 74.84C45.8195 75.0133 46.0962 75.1567 46.4295 75.27C46.7629 75.3767 47.1095 75.43 47.4695 75.43C47.9495 75.43 48.3029 75.3567 48.5295 75.21C48.7629 75.0567 48.8795 74.8433 48.8795 74.57C48.8795 74.3767 48.8162 74.2267 48.6895 74.12C48.5629 74.0067 48.4029 73.9233 48.2095 73.87C48.0162 73.81 47.7595 73.7533 47.4395 73.7C47.0129 73.62 46.6695 73.54 46.4095 73.46C46.1495 73.3733 45.9262 73.23 45.7395 73.03C45.5595 72.83 45.4695 72.5533 45.4695 72.2C45.4695 71.76 45.6529 71.4 46.0195 71.12C46.3862 70.84 46.8962 70.7 47.5495 70.7C47.8895 70.7 48.2295 70.7467 48.5695 70.84C48.9095 70.9267 49.1895 71.0433 49.4095 71.19L49.0995 71.76C48.6662 71.46 48.1495 71.31 47.5495 71.31C47.0962 71.31 46.7529 71.39 46.5195 71.55C46.2929 71.71 46.1795 71.92 46.1795 72.18C46.1795 72.38 46.2429 72.54 46.3695 72.66C46.5029 72.78 46.6662 72.87 46.8595 72.93C47.0529 72.9833 47.3195 73.04 47.6595 73.1C48.0795 73.18 48.4162 73.26 48.6695 73.34C48.9229 73.42 49.1395 73.5567 49.3195 73.75C49.4995 73.9433 49.5895 74.21 49.5895 74.55C49.5895 75.01 49.3962 75.3767 49.0095 75.65C48.6295 75.9167 48.0995 76.05 47.4195 76.05ZM55.6421 70.74V76H54.9621V75.04C54.7754 75.36 54.5188 75.61 54.1921 75.79C53.8654 75.9633 53.4921 76.05 53.0721 76.05C52.3854 76.05 51.8421 75.86 51.4421 75.48C51.0488 75.0933 50.8521 74.53 50.8521 73.79V70.74H51.5621V73.72C51.5621 74.2733 51.6988 74.6933 51.9721 74.98C52.2454 75.2667 52.6354 75.41 53.1421 75.41C53.6954 75.41 54.1321 75.2433 54.4521 74.91C54.7721 74.57 54.9321 74.1 54.9321 73.5V70.74H55.6421ZM64.1906 70.7C64.8506 70.7 65.3673 70.89 65.7406 71.27C66.1206 71.65 66.3106 72.21 66.3106 72.95V76H65.6006V73.02C65.6006 72.4733 65.4673 72.0567 65.2006 71.77C64.9406 71.4833 64.5706 71.34 64.0906 71.34C63.544 71.34 63.114 71.51 62.8006 71.85C62.4873 72.1833 62.3306 72.6467 62.3306 73.24V76H61.6206V73.02C61.6206 72.4733 61.4873 72.0567 61.2206 71.77C60.9606 71.4833 60.5873 71.34 60.1006 71.34C59.5606 71.34 59.1306 71.51 58.8106 71.85C58.4973 72.1833 58.3406 72.6467 58.3406 73.24V76H57.6306V70.74H58.3106V71.7C58.4973 71.38 58.7573 71.1333 59.0906 70.96C59.424 70.7867 59.8073 70.7 60.2406 70.7C60.6806 70.7 61.0606 70.7933 61.3806 70.98C61.7073 71.1667 61.9506 71.4433 62.1106 71.81C62.304 71.4633 62.5806 71.1933 62.9406 71C63.3073 70.8 63.724 70.7 64.1906 70.7ZM70.8533 70.74H71.5633V76H70.8533V70.74ZM71.2133 69.59C71.0666 69.59 70.9433 69.54 70.8433 69.44C70.7433 69.34 70.6933 69.22 70.6933 69.08C70.6933 68.9467 70.7433 68.83 70.8433 68.73C70.9433 68.63 71.0666 68.58 71.2133 68.58C71.3599 68.58 71.4833 68.63 71.5833 68.73C71.6833 68.8233 71.7333 68.9367 71.7333 69.07C71.7333 69.2167 71.6833 69.34 71.5833 69.44C71.4833 69.54 71.3599 69.59 71.2133 69.59ZM74.9488 76.05C74.5222 76.05 74.1122 75.99 73.7188 75.87C73.3322 75.7433 73.0288 75.5867 72.8088 75.4L73.1288 74.84C73.3488 75.0133 73.6255 75.1567 73.9588 75.27C74.2922 75.3767 74.6388 75.43 74.9988 75.43C75.4788 75.43 75.8322 75.3567 76.0588 75.21C76.2922 75.0567 76.4088 74.8433 76.4088 74.57C76.4088 74.3767 76.3455 74.2267 76.2188 74.12C76.0922 74.0067 75.9322 73.9233 75.7388 73.87C75.5455 73.81 75.2888 73.7533 74.9688 73.7C74.5422 73.62 74.1988 73.54 73.9388 73.46C73.6788 73.3733 73.4555 73.23 73.2688 73.03C73.0888 72.83 72.9988 72.5533 72.9988 72.2C72.9988 71.76 73.1822 71.4 73.5488 71.12C73.9155 70.84 74.4255 70.7 75.0788 70.7C75.4188 70.7 75.7588 70.7467 76.0988 70.84C76.4388 70.9267 76.7188 71.0433 76.9388 71.19L76.6288 71.76C76.1955 71.46 75.6788 71.31 75.0788 71.31C74.6255 71.31 74.2822 71.39 74.0488 71.55C73.8222 71.71 73.7088 71.92 73.7088 72.18C73.7088 72.38 73.7722 72.54 73.8988 72.66C74.0322 72.78 74.1955 72.87 74.3888 72.93C74.5822 72.9833 74.8488 73.04 75.1888 73.1C75.6088 73.18 75.9455 73.26 76.1988 73.34C76.4522 73.42 76.6688 73.5567 76.8488 73.75C77.0288 73.9433 77.1188 74.21 77.1188 74.55C77.1188 75.01 76.9255 75.3767 76.5388 75.65C76.1588 75.9167 75.6288 76.05 74.9488 76.05ZM82.4586 76.05C82.0319 76.05 81.6219 75.99 81.2286 75.87C80.8419 75.7433 80.5386 75.5867 80.3186 75.4L80.6386 74.84C80.8586 75.0133 81.1353 75.1567 81.4686 75.27C81.8019 75.3767 82.1486 75.43 82.5086 75.43C82.9886 75.43 83.3419 75.3567 83.5686 75.21C83.8019 75.0567 83.9186 74.8433 83.9186 74.57C83.9186 74.3767 83.8553 74.2267 83.7286 74.12C83.6019 74.0067 83.4419 73.9233 83.2486 73.87C83.0553 73.81 82.7986 73.7533 82.4786 73.7C82.0519 73.62 81.7086 73.54 81.4486 73.46C81.1886 73.3733 80.9653 73.23 80.7786 73.03C80.5986 72.83 80.5086 72.5533 80.5086 72.2C80.5086 71.76 80.6919 71.4 81.0586 71.12C81.4253 70.84 81.9353 70.7 82.5886 70.7C82.9286 70.7 83.2686 70.7467 83.6086 70.84C83.9486 70.9267 84.2286 71.0433 84.4486 71.19L84.1386 71.76C83.7053 71.46 83.1886 71.31 82.5886 71.31C82.1353 71.31 81.7919 71.39 81.5586 71.55C81.3319 71.71 81.2186 71.92 81.2186 72.18C81.2186 72.38 81.2819 72.54 81.4086 72.66C81.5419 72.78 81.7053 72.87 81.8986 72.93C82.0919 72.9833 82.3586 73.04 82.6986 73.1C83.1186 73.18 83.4553 73.26 83.7086 73.34C83.9619 73.42 84.1786 73.5567 84.3586 73.75C84.5386 73.9433 84.6286 74.21 84.6286 74.55C84.6286 75.01 84.4353 75.3767 84.0486 75.65C83.6686 75.9167 83.1386 76.05 82.4586 76.05ZM85.9412 70.74H86.6512V76H85.9412V70.74ZM86.3012 69.59C86.1545 69.59 86.0312 69.54 85.9312 69.44C85.8312 69.34 85.7812 69.22 85.7812 69.08C85.7812 68.9467 85.8312 68.83 85.9312 68.73C86.0312 68.63 86.1545 68.58 86.3012 68.58C86.4478 68.58 86.5712 68.63 86.6712 68.73C86.7712 68.8233 86.8212 68.9367 86.8212 69.07C86.8212 69.2167 86.7712 69.34 86.6712 69.44C86.5712 69.54 86.4478 69.59 86.3012 69.59ZM95.1867 70.7C95.8467 70.7 96.3634 70.89 96.7367 71.27C97.1167 71.65 97.3067 72.21 97.3067 72.95V76H96.5967V73.02C96.5967 72.4733 96.4634 72.0567 96.1967 71.77C95.9367 71.4833 95.5667 71.34 95.0867 71.34C94.5401 71.34 94.1101 71.51 93.7967 71.85C93.4834 72.1833 93.3267 72.6467 93.3267 73.24V76H92.6167V73.02C92.6167 72.4733 92.4834 72.0567 92.2167 71.77C91.9567 71.4833 91.5834 71.34 91.0967 71.34C90.5567 71.34 90.1267 71.51 89.8067 71.85C89.4934 72.1833 89.3367 72.6467 89.3367 73.24V76H88.6267V70.74H89.3067V71.7C89.4934 71.38 89.7534 71.1333 90.0867 70.96C90.4201 70.7867 90.8034 70.7 91.2367 70.7C91.6767 70.7 92.0567 70.7933 92.3767 70.98C92.7034 71.1667 92.9467 71.4433 93.1067 71.81C93.3001 71.4633 93.5767 71.1933 93.9367 71C94.3034 70.8 94.7201 70.7 95.1867 70.7ZM101.942 70.7C102.436 70.7 102.882 70.8133 103.282 71.04C103.682 71.26 103.996 71.5733 104.222 71.98C104.449 72.3867 104.562 72.85 104.562 73.37C104.562 73.8967 104.449 74.3633 104.222 74.77C103.996 75.1767 103.682 75.4933 103.282 75.72C102.889 75.94 102.442 76.05 101.942 76.05C101.516 76.05 101.129 75.9633 100.782 75.79C100.442 75.61 100.162 75.35 99.9422 75.01V77.94H99.2322V70.74H99.9122V71.78C100.126 71.4333 100.406 71.1667 100.752 70.98C101.106 70.7933 101.502 70.7 101.942 70.7ZM101.892 75.42C102.259 75.42 102.592 75.3367 102.892 75.17C103.192 74.9967 103.426 74.7533 103.592 74.44C103.766 74.1267 103.852 73.77 103.852 73.37C103.852 72.97 103.766 72.6167 103.592 72.31C103.426 71.9967 103.192 71.7533 102.892 71.58C102.592 71.4067 102.259 71.32 101.892 71.32C101.519 71.32 101.182 71.4067 100.882 71.58C100.589 71.7533 100.356 71.9967 100.182 72.31C100.016 72.6167 99.9322 72.97 99.9322 73.37C99.9322 73.77 100.016 74.1267 100.182 74.44C100.356 74.7533 100.589 74.9967 100.882 75.17C101.182 75.3367 101.519 75.42 101.892 75.42ZM106.01 68.58H106.72V76H106.01V68.58ZM113.115 70.74L110.485 76.63C110.272 77.1233 110.025 77.4733 109.745 77.68C109.465 77.8867 109.128 77.99 108.735 77.99C108.482 77.99 108.245 77.95 108.025 77.87C107.805 77.79 107.615 77.67 107.455 77.51L107.785 76.98C108.052 77.2467 108.372 77.38 108.745 77.38C108.985 77.38 109.188 77.3133 109.355 77.18C109.528 77.0467 109.688 76.82 109.835 76.5L110.065 75.99L107.715 70.74H108.455L110.435 75.21L112.415 70.74H113.115ZM121.532 68.58V76H120.852V74.96C120.639 75.3133 120.356 75.5833 120.002 75.77C119.656 75.9567 119.262 76.05 118.822 76.05C118.329 76.05 117.882 75.9367 117.482 75.71C117.082 75.4833 116.769 75.1667 116.542 74.76C116.316 74.3533 116.202 73.89 116.202 73.37C116.202 72.85 116.316 72.3867 116.542 71.98C116.769 71.5733 117.082 71.26 117.482 71.04C117.882 70.8133 118.329 70.7 118.822 70.7C119.249 70.7 119.632 70.79 119.972 70.97C120.319 71.1433 120.602 71.4 120.822 71.74V68.58H121.532ZM118.882 75.42C119.249 75.42 119.579 75.3367 119.872 75.17C120.172 74.9967 120.406 74.7533 120.572 74.44C120.746 74.1267 120.832 73.77 120.832 73.37C120.832 72.97 120.746 72.6133 120.572 72.3C120.406 71.9867 120.172 71.7467 119.872 71.58C119.579 71.4067 119.249 71.32 118.882 71.32C118.509 71.32 118.172 71.4067 117.872 71.58C117.579 71.7467 117.346 71.9867 117.172 72.3C117.006 72.6133 116.922 72.97 116.922 73.37C116.922 73.77 117.006 74.1267 117.172 74.44C117.346 74.7533 117.579 74.9967 117.872 75.17C118.172 75.3367 118.509 75.42 118.882 75.42ZM128.25 70.74V76H127.57V75.04C127.383 75.36 127.126 75.61 126.8 75.79C126.473 75.9633 126.1 76.05 125.68 76.05C124.993 76.05 124.45 75.86 124.05 75.48C123.656 75.0933 123.46 74.53 123.46 73.79V70.74H124.17V73.72C124.17 74.2733 124.306 74.6933 124.58 74.98C124.853 75.2667 125.243 75.41 125.75 75.41C126.303 75.41 126.74 75.2433 127.06 74.91C127.38 74.57 127.54 74.1 127.54 73.5V70.74H128.25ZM136.798 70.7C137.458 70.7 137.975 70.89 138.348 71.27C138.728 71.65 138.918 72.21 138.918 72.95V76H138.208V73.02C138.208 72.4733 138.075 72.0567 137.808 71.77C137.548 71.4833 137.178 71.34 136.698 71.34C136.151 71.34 135.721 71.51 135.408 71.85C135.095 72.1833 134.938 72.6467 134.938 73.24V76H134.228V73.02C134.228 72.4733 134.095 72.0567 133.828 71.77C133.568 71.4833 133.195 71.34 132.708 71.34C132.168 71.34 131.738 71.51 131.418 71.85C131.105 72.1833 130.948 72.6467 130.948 73.24V76H130.238V70.74H130.918V71.7C131.105 71.38 131.365 71.1333 131.698 70.96C132.031 70.7867 132.415 70.7 132.848 70.7C133.288 70.7 133.668 70.7933 133.988 70.98C134.315 71.1667 134.558 71.4433 134.718 71.81C134.911 71.4633 135.188 71.1933 135.548 71C135.915 70.8 136.331 70.7 136.798 70.7ZM147.404 70.7C148.064 70.7 148.58 70.89 148.954 71.27C149.334 71.65 149.524 72.21 149.524 72.95V76H148.814V73.02C148.814 72.4733 148.68 72.0567 148.414 71.77C148.154 71.4833 147.784 71.34 147.304 71.34C146.757 71.34 146.327 71.51 146.014 71.85C145.7 72.1833 145.544 72.6467 145.544 73.24V76H144.834V73.02C144.834 72.4733 144.7 72.0567 144.434 71.77C144.174 71.4833 143.8 71.34 143.314 71.34C142.774 71.34 142.344 71.51 142.024 71.85C141.71 72.1833 141.554 72.6467 141.554 73.24V76H140.844V70.74H141.524V71.7C141.71 71.38 141.97 71.1333 142.304 70.96C142.637 70.7867 143.02 70.7 143.454 70.7C143.894 70.7 144.274 70.7933 144.594 70.98C144.92 71.1667 145.164 71.4433 145.324 71.81C145.517 71.4633 145.794 71.1933 146.154 71C146.52 70.8 146.937 70.7 147.404 70.7ZM155.771 70.74L153.141 76.63C152.928 77.1233 152.681 77.4733 152.401 77.68C152.121 77.8867 151.785 77.99 151.391 77.99C151.138 77.99 150.901 77.95 150.681 77.87C150.461 77.79 150.271 77.67 150.111 77.51L150.441 76.98C150.708 77.2467 151.028 77.38 151.401 77.38C151.641 77.38 151.845 77.3133 152.011 77.18C152.185 77.0467 152.345 76.82 152.491 76.5L152.721 75.99L150.371 70.74H151.111L153.091 75.21L155.071 70.74H155.771ZM162.158 75.68C162.025 75.8 161.858 75.8933 161.658 75.96C161.465 76.02 161.262 76.05 161.048 76.05C160.555 76.05 160.175 75.9167 159.908 75.65C159.642 75.3833 159.508 75.0067 159.508 74.52V71.34H158.568V70.74H159.508V69.59H160.218V70.74H161.818V71.34H160.218V74.48C160.218 74.7933 160.295 75.0333 160.448 75.2C160.608 75.36 160.835 75.44 161.128 75.44C161.275 75.44 161.415 75.4167 161.548 75.37C161.688 75.3233 161.808 75.2567 161.908 75.17L162.158 75.68ZM167.845 73.59H163.445C163.485 74.1367 163.695 74.58 164.075 74.92C164.455 75.2533 164.935 75.42 165.515 75.42C165.842 75.42 166.142 75.3633 166.415 75.25C166.689 75.13 166.925 74.9567 167.125 74.73L167.525 75.19C167.292 75.47 166.999 75.6833 166.645 75.83C166.299 75.9767 165.915 76.05 165.495 76.05C164.955 76.05 164.475 75.9367 164.055 75.71C163.642 75.4767 163.319 75.1567 163.085 74.75C162.852 74.3433 162.735 73.8833 162.735 73.37C162.735 72.8567 162.845 72.3967 163.065 71.99C163.292 71.5833 163.599 71.2667 163.985 71.04C164.379 70.8133 164.819 70.7 165.305 70.7C165.792 70.7 166.229 70.8133 166.615 71.04C167.002 71.2667 167.305 71.5833 167.525 71.99C167.745 72.39 167.855 72.85 167.855 73.37L167.845 73.59ZM165.305 71.31C164.799 71.31 164.372 71.4733 164.025 71.8C163.685 72.12 163.492 72.54 163.445 73.06H167.175C167.129 72.54 166.932 72.12 166.585 71.8C166.245 71.4733 165.819 71.31 165.305 71.31ZM172.504 76L170.834 73.8L169.154 76H168.354L170.434 73.3L168.454 70.74H169.254L170.834 72.8L172.414 70.74H173.194L171.214 73.3L173.314 76H172.504ZM177.266 75.68C177.133 75.8 176.966 75.8933 176.766 75.96C176.573 76.02 176.369 76.05 176.156 76.05C175.663 76.05 175.283 75.9167 175.016 75.65C174.749 75.3833 174.616 75.0067 174.616 74.52V71.34H173.676V70.74H174.616V69.59H175.326V70.74H176.926V71.34H175.326V74.48C175.326 74.7933 175.403 75.0333 175.556 75.2C175.716 75.36 175.943 75.44 176.236 75.44C176.383 75.44 176.523 75.4167 176.656 75.37C176.796 75.3233 176.916 75.2567 177.016 75.17L177.266 75.68ZM183.326 76.05C182.819 76.05 182.362 75.9367 181.956 75.71C181.549 75.4767 181.229 75.1567 180.996 74.75C180.762 74.3433 180.646 73.8833 180.646 73.37C180.646 72.8567 180.762 72.3967 180.996 71.99C181.229 71.5833 181.549 71.2667 181.956 71.04C182.362 70.8133 182.819 70.7 183.326 70.7C183.832 70.7 184.289 70.8133 184.696 71.04C185.102 71.2667 185.419 71.5833 185.646 71.99C185.879 72.3967 185.996 72.8567 185.996 73.37C185.996 73.8833 185.879 74.3433 185.646 74.75C185.419 75.1567 185.102 75.4767 184.696 75.71C184.289 75.9367 183.832 76.05 183.326 76.05ZM183.326 75.42C183.699 75.42 184.032 75.3367 184.326 75.17C184.626 74.9967 184.859 74.7533 185.026 74.44C185.192 74.1267 185.276 73.77 185.276 73.37C185.276 72.97 185.192 72.6133 185.026 72.3C184.859 71.9867 184.626 71.7467 184.326 71.58C184.032 71.4067 183.699 71.32 183.326 71.32C182.952 71.32 182.616 71.4067 182.316 71.58C182.022 71.7467 181.789 71.9867 181.616 72.3C181.449 72.6133 181.366 72.97 181.366 73.37C181.366 73.77 181.449 74.1267 181.616 74.44C181.789 74.7533 182.022 74.9967 182.316 75.17C182.616 75.3367 182.952 75.42 183.326 75.42ZM189.185 69.13C188.878 69.13 188.645 69.2133 188.485 69.38C188.332 69.5467 188.255 69.7933 188.255 70.12V70.74H189.875V71.34H188.275V76H187.565V71.34H186.625V70.74H187.565V70.09C187.565 69.61 187.702 69.23 187.975 68.95C188.255 68.67 188.648 68.53 189.155 68.53C189.355 68.53 189.548 68.56 189.735 68.62C189.922 68.6733 190.078 68.7533 190.205 68.86L189.965 69.39C189.758 69.2167 189.498 69.13 189.185 69.13ZM196.221 75.68C196.088 75.8 195.921 75.8933 195.721 75.96C195.528 76.02 195.324 76.05 195.111 76.05C194.618 76.05 194.238 75.9167 193.971 75.65C193.704 75.3833 193.571 75.0067 193.571 74.52V71.34H192.631V70.74H193.571V69.59H194.281V70.74H195.881V71.34H194.281V74.48C194.281 74.7933 194.358 75.0333 194.511 75.2C194.671 75.36 194.898 75.44 195.191 75.44C195.338 75.44 195.478 75.4167 195.611 75.37C195.751 75.3233 195.871 75.2567 195.971 75.17L196.221 75.68ZM200.193 70.7C200.853 70.7 201.377 70.8933 201.763 71.28C202.157 71.66 202.353 72.2167 202.353 72.95V76H201.643V73.02C201.643 72.4733 201.507 72.0567 201.233 71.77C200.96 71.4833 200.57 71.34 200.063 71.34C199.497 71.34 199.047 71.51 198.713 71.85C198.387 72.1833 198.223 72.6467 198.223 73.24V76H197.513V68.58H198.223V71.66C198.417 71.3533 198.683 71.1167 199.023 70.95C199.363 70.7833 199.753 70.7 200.193 70.7ZM208.881 73.59H204.481C204.521 74.1367 204.731 74.58 205.111 74.92C205.491 75.2533 205.971 75.42 206.551 75.42C206.877 75.42 207.177 75.3633 207.451 75.25C207.724 75.13 207.961 74.9567 208.161 74.73L208.561 75.19C208.327 75.47 208.034 75.6833 207.681 75.83C207.334 75.9767 206.951 76.05 206.531 76.05C205.991 76.05 205.511 75.9367 205.091 75.71C204.677 75.4767 204.354 75.1567 204.121 74.75C203.887 74.3433 203.771 73.8833 203.771 73.37C203.771 72.8567 203.881 72.3967 204.101 71.99C204.327 71.5833 204.634 71.2667 205.021 71.04C205.414 70.8133 205.854 70.7 206.341 70.7C206.827 70.7 207.264 70.8133 207.651 71.04C208.037 71.2667 208.341 71.5833 208.561 71.99C208.781 72.39 208.891 72.85 208.891 73.37L208.881 73.59ZM206.341 71.31C205.834 71.31 205.407 71.4733 205.061 71.8C204.721 72.12 204.527 72.54 204.481 73.06H208.211C208.164 72.54 207.967 72.12 207.621 71.8C207.281 71.4733 206.854 71.31 206.341 71.31ZM3.7 86.7C4.19333 86.7 4.64 86.8133 5.04 87.04C5.44 87.26 5.75333 87.5733 5.98 87.98C6.20667 88.3867 6.32 88.85 6.32 89.37C6.32 89.8967 6.20667 90.3633 5.98 90.77C5.75333 91.1767 5.44 91.4933 5.04 91.72C4.64667 91.94 4.2 92.05 3.7 92.05C3.27333 92.05 2.88667 91.9633 2.54 91.79C2.2 91.61 1.92 91.35 1.7 91.01V93.94H0.99V86.74H1.67V87.78C1.88333 87.4333 2.16333 87.1667 2.51 86.98C2.86333 86.7933 3.26 86.7 3.7 86.7ZM3.65 91.42C4.01667 91.42 4.35 91.3367 4.65 91.17C4.95 90.9967 5.18333 90.7533 5.35 90.44C5.52333 90.1267 5.61 89.77 5.61 89.37C5.61 88.97 5.52333 88.6167 5.35 88.31C5.18333 87.9967 4.95 87.7533 4.65 87.58C4.35 87.4067 4.01667 87.32 3.65 87.32C3.27667 87.32 2.94 87.4067 2.64 87.58C2.34667 87.7533 2.11333 87.9967 1.94 88.31C1.77333 88.6167 1.69 88.97 1.69 89.37C1.69 89.77 1.77333 90.1267 1.94 90.44C2.11333 90.7533 2.34667 90.9967 2.64 91.17C2.94 91.3367 3.27667 91.42 3.65 91.42ZM8.44734 87.77C8.61401 87.4167 8.86068 87.15 9.18734 86.97C9.52068 86.79 9.93068 86.7 10.4173 86.7V87.39L10.2473 87.38C9.69401 87.38 9.26068 87.55 8.94734 87.89C8.63401 88.23 8.47734 88.7067 8.47734 89.32V92H7.76734V86.74H8.44734V87.77ZM11.7029 86.74H12.4129V92H11.7029V86.74ZM12.0629 85.59C11.9162 85.59 11.7929 85.54 11.6929 85.44C11.5929 85.34 11.5429 85.22 11.5429 85.08C11.5429 84.9467 11.5929 84.83 11.6929 84.73C11.7929 84.63 11.9162 84.58 12.0629 84.58C12.2096 84.58 12.3329 84.63 12.4329 84.73C12.5329 84.8233 12.5829 84.9367 12.5829 85.07C12.5829 85.2167 12.5329 85.34 12.4329 85.44C12.3329 85.54 12.2096 85.59 12.0629 85.59ZM17.0684 86.7C17.7284 86.7 18.2518 86.8933 18.6384 87.28C19.0318 87.66 19.2284 88.2167 19.2284 88.95V92H18.5184V89.02C18.5184 88.4733 18.3818 88.0567 18.1084 87.77C17.8351 87.4833 17.4451 87.34 16.9384 87.34C16.3718 87.34 15.9218 87.51 15.5884 87.85C15.2618 88.1833 15.0984 88.6467 15.0984 89.24V92H14.3884V86.74H15.0684V87.71C15.2618 87.39 15.5284 87.1433 15.8684 86.97C16.2151 86.79 16.6151 86.7 17.0684 86.7ZM23.926 91.68C23.7927 91.8 23.626 91.8933 23.426 91.96C23.2327 92.02 23.0293 92.05 22.816 92.05C22.3227 92.05 21.9427 91.9167 21.676 91.65C21.4093 91.3833 21.276 91.0067 21.276 90.52V87.34H20.336V86.74H21.276V85.59H21.986V86.74H23.586V87.34H21.986V90.48C21.986 90.7933 22.0627 91.0333 22.216 91.2C22.376 91.36 22.6027 91.44 22.896 91.44C23.0427 91.44 23.1827 91.4167 23.316 91.37C23.456 91.3233 23.576 91.2567 23.676 91.17L23.926 91.68ZM25.2185 86.74H25.9285V92H25.2185V86.74ZM25.5785 85.59C25.4318 85.59 25.3085 85.54 25.2085 85.44C25.1085 85.34 25.0585 85.22 25.0585 85.08C25.0585 84.9467 25.1085 84.83 25.2085 84.73C25.3085 84.63 25.4318 84.58 25.5785 84.58C25.7252 84.58 25.8485 84.63 25.9485 84.73C26.0485 84.8233 26.0985 84.9367 26.0985 85.07C26.0985 85.2167 26.0485 85.34 25.9485 85.44C25.8485 85.54 25.7252 85.59 25.5785 85.59ZM30.5841 86.7C31.2441 86.7 31.7674 86.8933 32.1541 87.28C32.5474 87.66 32.7441 88.2167 32.7441 88.95V92H32.0341V89.02C32.0341 88.4733 31.8974 88.0567 31.6241 87.77C31.3507 87.4833 30.9607 87.34 30.4541 87.34C29.8874 87.34 29.4374 87.51 29.1041 87.85C28.7774 88.1833 28.6141 88.6467 28.6141 89.24V92H27.9041V86.74H28.5841V87.71C28.7774 87.39 29.0441 87.1433 29.3841 86.97C29.7307 86.79 30.1307 86.7 30.5841 86.7ZM39.5612 86.74V91.36C39.5612 92.2533 39.3412 92.9133 38.9012 93.34C38.4678 93.7733 37.8112 93.99 36.9312 93.99C36.4445 93.99 35.9812 93.9167 35.5412 93.77C35.1078 93.63 34.7545 93.4333 34.4812 93.18L34.8412 92.64C35.0945 92.8667 35.4012 93.0433 35.7612 93.17C36.1278 93.2967 36.5112 93.36 36.9112 93.36C37.5778 93.36 38.0678 93.2033 38.3812 92.89C38.6945 92.5833 38.8512 92.1033 38.8512 91.45V90.78C38.6312 91.1133 38.3412 91.3667 37.9812 91.54C37.6278 91.7133 37.2345 91.8 36.8012 91.8C36.3078 91.8 35.8578 91.6933 35.4512 91.48C35.0512 91.26 34.7345 90.9567 34.5012 90.57C34.2745 90.1767 34.1612 89.7333 34.1612 89.24C34.1612 88.7467 34.2745 88.3067 34.5012 87.92C34.7345 87.5333 35.0512 87.2333 35.4512 87.02C35.8512 86.8067 36.3012 86.7 36.8012 86.7C37.2478 86.7 37.6512 86.79 38.0112 86.97C38.3712 87.15 38.6612 87.41 38.8812 87.75V86.74H39.5612ZM36.8712 91.17C37.2512 91.17 37.5945 91.09 37.9012 90.93C38.2078 90.7633 38.4445 90.5333 38.6112 90.24C38.7845 89.9467 38.8712 89.6133 38.8712 89.24C38.8712 88.8667 38.7845 88.5367 38.6112 88.25C38.4445 87.9567 38.2078 87.73 37.9012 87.57C37.6012 87.4033 37.2578 87.32 36.8712 87.32C36.4912 87.32 36.1478 87.4 35.8412 87.56C35.5412 87.72 35.3045 87.9467 35.1312 88.24C34.9645 88.5333 34.8812 88.8667 34.8812 89.24C34.8812 89.6133 34.9645 89.9467 35.1312 90.24C35.3045 90.5333 35.5412 90.7633 35.8412 90.93C36.1478 91.09 36.4912 91.17 36.8712 91.17ZM46.0038 86.7C46.6905 86.7 47.2172 86.8733 47.5838 87.22C47.9505 87.56 48.1338 88.0667 48.1338 88.74V92H47.4538V91.18C47.2938 91.4533 47.0572 91.6667 46.7438 91.82C46.4372 91.9733 46.0705 92.05 45.6438 92.05C45.0572 92.05 44.5905 91.91 44.2438 91.63C43.8972 91.35 43.7238 90.98 43.7238 90.52C43.7238 90.0733 43.8838 89.7133 44.2038 89.44C44.5305 89.1667 45.0472 89.03 45.7538 89.03H47.4238V88.71C47.4238 88.2567 47.2972 87.9133 47.0438 87.68C46.7905 87.44 46.4205 87.32 45.9338 87.32C45.6005 87.32 45.2805 87.3767 44.9738 87.49C44.6672 87.5967 44.4038 87.7467 44.1838 87.94L43.8638 87.41C44.1305 87.1833 44.4505 87.01 44.8238 86.89C45.1972 86.7633 45.5905 86.7 46.0038 86.7ZM45.7538 91.49C46.1538 91.49 46.4972 91.4 46.7838 91.22C47.0705 91.0333 47.2838 90.7667 47.4238 90.42V89.56H45.7738C44.8738 89.56 44.4238 89.8733 44.4238 90.5C44.4238 90.8067 44.5405 91.05 44.7738 91.23C45.0072 91.4033 45.3338 91.49 45.7538 91.49ZM52.7423 86.7C53.4023 86.7 53.9256 86.8933 54.3123 87.28C54.7056 87.66 54.9023 88.2167 54.9023 88.95V92H54.1923V89.02C54.1923 88.4733 54.0556 88.0567 53.7823 87.77C53.5089 87.4833 53.1189 87.34 52.6123 87.34C52.0456 87.34 51.5956 87.51 51.2623 87.85C50.9356 88.1833 50.7723 88.6467 50.7723 89.24V92H50.0623V86.74H50.7423V87.71C50.9356 87.39 51.2023 87.1433 51.5423 86.97C51.8889 86.79 52.2889 86.7 52.7423 86.7ZM61.6494 84.58V92H60.9694V90.96C60.756 91.3133 60.4727 91.5833 60.1194 91.77C59.7727 91.9567 59.3794 92.05 58.9394 92.05C58.446 92.05 57.9994 91.9367 57.5994 91.71C57.1994 91.4833 56.886 91.1667 56.6594 90.76C56.4327 90.3533 56.3194 89.89 56.3194 89.37C56.3194 88.85 56.4327 88.3867 56.6594 87.98C56.886 87.5733 57.1994 87.26 57.5994 87.04C57.9994 86.8133 58.446 86.7 58.9394 86.7C59.366 86.7 59.7494 86.79 60.0894 86.97C60.436 87.1433 60.7194 87.4 60.9394 87.74V84.58H61.6494ZM58.9994 91.42C59.366 91.42 59.696 91.3367 59.9894 91.17C60.2894 90.9967 60.5227 90.7533 60.6894 90.44C60.8627 90.1267 60.9494 89.77 60.9494 89.37C60.9494 88.97 60.8627 88.6133 60.6894 88.3C60.5227 87.9867 60.2894 87.7467 59.9894 87.58C59.696 87.4067 59.366 87.32 58.9994 87.32C58.626 87.32 58.2894 87.4067 57.9894 87.58C57.696 87.7467 57.4627 87.9867 57.2894 88.3C57.1227 88.6133 57.0394 88.97 57.0394 89.37C57.0394 89.77 57.1227 90.1267 57.2894 90.44C57.4627 90.7533 57.696 90.9967 57.9894 91.17C58.2894 91.3367 58.626 91.42 58.9994 91.42ZM69.0139 91.68C68.8806 91.8 68.7139 91.8933 68.5139 91.96C68.3206 92.02 68.1172 92.05 67.9039 92.05C67.4106 92.05 67.0306 91.9167 66.7639 91.65C66.4972 91.3833 66.3639 91.0067 66.3639 90.52V87.34H65.4239V86.74H66.3639V85.59H67.0739V86.74H68.6739V87.34H67.0739V90.48C67.0739 90.7933 67.1506 91.0333 67.3039 91.2C67.4639 91.36 67.6906 91.44 67.9839 91.44C68.1306 91.44 68.2706 91.4167 68.4039 91.37C68.5439 91.3233 68.6639 91.2567 68.7639 91.17L69.0139 91.68ZM74.6288 86.74L71.9988 92.63C71.7854 93.1233 71.5388 93.4733 71.2588 93.68C70.9788 93.8867 70.6421 93.99 70.2488 93.99C69.9954 93.99 69.7588 93.95 69.5388 93.87C69.3188 93.79 69.1287 93.67 68.9687 93.51L69.2988 92.98C69.5654 93.2467 69.8854 93.38 70.2588 93.38C70.4988 93.38 70.7021 93.3133 70.8688 93.18C71.0421 93.0467 71.2021 92.82 71.3488 92.5L71.5788 91.99L69.2288 86.74H69.9688L71.9488 91.21L73.9288 86.74H74.6288ZM78.3387 86.7C78.832 86.7 79.2787 86.8133 79.6787 87.04C80.0787 87.26 80.392 87.5733 80.6187 87.98C80.8453 88.3867 80.9587 88.85 80.9587 89.37C80.9587 89.8967 80.8453 90.3633 80.6187 90.77C80.392 91.1767 80.0787 91.4933 79.6787 91.72C79.2853 91.94 78.8387 92.05 78.3387 92.05C77.912 92.05 77.5253 91.9633 77.1787 91.79C76.8387 91.61 76.5587 91.35 76.3387 91.01V93.94H75.6287V86.74H76.3087V87.78C76.522 87.4333 76.802 87.1667 77.1487 86.98C77.502 86.7933 77.8987 86.7 78.3387 86.7ZM78.2887 91.42C78.6553 91.42 78.9887 91.3367 79.2887 91.17C79.5887 90.9967 79.822 90.7533 79.9887 90.44C80.162 90.1267 80.2487 89.77 80.2487 89.37C80.2487 88.97 80.162 88.6167 79.9887 88.31C79.822 87.9967 79.5887 87.7533 79.2887 87.58C78.9887 87.4067 78.6553 87.32 78.2887 87.32C77.9153 87.32 77.5787 87.4067 77.2787 87.58C76.9853 87.7533 76.752 87.9967 76.5787 88.31C76.412 88.6167 76.3287 88.97 76.3287 89.37C76.3287 89.77 76.412 90.1267 76.5787 90.44C76.752 90.7533 76.9853 90.9967 77.2787 91.17C77.5787 91.3367 77.9153 91.42 78.2887 91.42ZM86.986 89.59H82.586C82.626 90.1367 82.836 90.58 83.216 90.92C83.596 91.2533 84.076 91.42 84.656 91.42C84.9827 91.42 85.2827 91.3633 85.556 91.25C85.8293 91.13 86.066 90.9567 86.266 90.73L86.666 91.19C86.4327 91.47 86.1393 91.6833 85.786 91.83C85.4393 91.9767 85.056 92.05 84.636 92.05C84.096 92.05 83.616 91.9367 83.196 91.71C82.7827 91.4767 82.4593 91.1567 82.226 90.75C81.9927 90.3433 81.876 89.8833 81.876 89.37C81.876 88.8567 81.986 88.3967 82.206 87.99C82.4327 87.5833 82.7393 87.2667 83.126 87.04C83.5193 86.8133 83.9593 86.7 84.446 86.7C84.9327 86.7 85.3693 86.8133 85.756 87.04C86.1427 87.2667 86.446 87.5833 86.666 87.99C86.886 88.39 86.996 88.85 86.996 89.37L86.986 89.59ZM84.446 87.31C83.9393 87.31 83.5127 87.4733 83.166 87.8C82.826 88.12 82.6327 88.54 82.586 89.06H86.316C86.2693 88.54 86.0727 88.12 85.726 87.8C85.386 87.4733 84.9593 87.31 84.446 87.31ZM89.8512 92.05C89.4245 92.05 89.0145 91.99 88.6212 91.87C88.2345 91.7433 87.9312 91.5867 87.7112 91.4L88.0312 90.84C88.2512 91.0133 88.5278 91.1567 88.8612 91.27C89.1945 91.3767 89.5412 91.43 89.9012 91.43C90.3812 91.43 90.7345 91.3567 90.9612 91.21C91.1945 91.0567 91.3112 90.8433 91.3112 90.57C91.3112 90.3767 91.2478 90.2267 91.1212 90.12C90.9945 90.0067 90.8345 89.9233 90.6412 89.87C90.4478 89.81 90.1912 89.7533 89.8712 89.7C89.4445 89.62 89.1012 89.54 88.8412 89.46C88.5812 89.3733 88.3578 89.23 88.1712 89.03C87.9912 88.83 87.9012 88.5533 87.9012 88.2C87.9012 87.76 88.0845 87.4 88.4512 87.12C88.8178 86.84 89.3278 86.7 89.9812 86.7C90.3212 86.7 90.6612 86.7467 91.0012 86.84C91.3412 86.9267 91.6212 87.0433 91.8412 87.19L91.5312 87.76C91.0978 87.46 90.5812 87.31 89.9812 87.31C89.5278 87.31 89.1845 87.39 88.9512 87.55C88.7245 87.71 88.6112 87.92 88.6112 88.18C88.6112 88.38 88.6745 88.54 88.8012 88.66C88.9345 88.78 89.0978 88.87 89.2912 88.93C89.4845 88.9833 89.7512 89.04 90.0912 89.1C90.5112 89.18 90.8478 89.26 91.1012 89.34C91.3545 89.42 91.5712 89.5567 91.7512 89.75C91.9312 89.9433 92.0212 90.21 92.0212 90.55C92.0212 91.01 91.8278 91.3767 91.4412 91.65C91.0612 91.9167 90.5312 92.05 89.8512 92.05ZM97.9138 89.59H93.5138C93.5538 90.1367 93.7638 90.58 94.1438 90.92C94.5238 91.2533 95.0038 91.42 95.5838 91.42C95.9104 91.42 96.2104 91.3633 96.4838 91.25C96.7571 91.13 96.9938 90.9567 97.1938 90.73L97.5938 91.19C97.3604 91.47 97.0671 91.6833 96.7138 91.83C96.3671 91.9767 95.9838 92.05 95.5638 92.05C95.0238 92.05 94.5438 91.9367 94.1238 91.71C93.7104 91.4767 93.3871 91.1567 93.1538 90.75C92.9204 90.3433 92.8038 89.8833 92.8038 89.37C92.8038 88.8567 92.9138 88.3967 93.1338 87.99C93.3604 87.5833 93.6671 87.2667 94.0538 87.04C94.4471 86.8133 94.8871 86.7 95.3738 86.7C95.8604 86.7 96.2971 86.8133 96.6838 87.04C97.0704 87.2667 97.3738 87.5833 97.5938 87.99C97.8138 88.39 97.9238 88.85 97.9238 89.37L97.9138 89.59ZM95.3738 87.31C94.8671 87.31 94.4404 87.4733 94.0938 87.8C93.7538 88.12 93.5604 88.54 93.5138 89.06H97.2438C97.1971 88.54 97.0004 88.12 96.6538 87.8C96.3138 87.4733 95.8871 87.31 95.3738 87.31ZM102.139 91.68C102.006 91.8 101.839 91.8933 101.639 91.96C101.446 92.02 101.242 92.05 101.029 92.05C100.536 92.05 100.156 91.9167 99.8889 91.65C99.6222 91.3833 99.4889 91.0067 99.4889 90.52V87.34H98.5489V86.74H99.4889V85.59H100.199V86.74H101.799V87.34H100.199V90.48C100.199 90.7933 100.276 91.0333 100.429 91.2C100.589 91.36 100.816 91.44 101.109 91.44C101.256 91.44 101.396 91.4167 101.529 91.37C101.669 91.3233 101.789 91.2567 101.889 91.17L102.139 91.68ZM106.065 91.68C105.931 91.8 105.765 91.8933 105.565 91.96C105.371 92.02 105.168 92.05 104.955 92.05C104.461 92.05 104.081 91.9167 103.815 91.65C103.548 91.3833 103.415 91.0067 103.415 90.52V87.34H102.475V86.74H103.415V85.59H104.125V86.74H105.725V87.34H104.125V90.48C104.125 90.7933 104.201 91.0333 104.355 91.2C104.515 91.36 104.741 91.44 105.035 91.44C105.181 91.44 105.321 91.4167 105.455 91.37C105.595 91.3233 105.715 91.2567 105.815 91.17L106.065 91.68ZM107.357 86.74H108.067V92H107.357V86.74ZM107.717 85.59C107.571 85.59 107.447 85.54 107.347 85.44C107.247 85.34 107.197 85.22 107.197 85.08C107.197 84.9467 107.247 84.83 107.347 84.73C107.447 84.63 107.571 84.58 107.717 84.58C107.864 84.58 107.987 84.63 108.087 84.73C108.187 84.8233 108.237 84.9367 108.237 85.07C108.237 85.2167 108.187 85.34 108.087 85.44C107.987 85.54 107.864 85.59 107.717 85.59ZM112.723 86.7C113.383 86.7 113.906 86.8933 114.293 87.28C114.686 87.66 114.883 88.2167 114.883 88.95V92H114.173V89.02C114.173 88.4733 114.036 88.0567 113.763 87.77C113.489 87.4833 113.099 87.34 112.593 87.34C112.026 87.34 111.576 87.51 111.243 87.85C110.916 88.1833 110.753 88.6467 110.753 89.24V92H110.043V86.74H110.723V87.71C110.916 87.39 111.183 87.1433 111.523 86.97C111.869 86.79 112.269 86.7 112.723 86.7ZM121.7 86.74V91.36C121.7 92.2533 121.48 92.9133 121.04 93.34C120.607 93.7733 119.95 93.99 119.07 93.99C118.583 93.99 118.12 93.9167 117.68 93.77C117.247 93.63 116.893 93.4333 116.62 93.18L116.98 92.64C117.233 92.8667 117.54 93.0433 117.9 93.17C118.267 93.2967 118.65 93.36 119.05 93.36C119.717 93.36 120.207 93.2033 120.52 92.89C120.833 92.5833 120.99 92.1033 120.99 91.45V90.78C120.77 91.1133 120.48 91.3667 120.12 91.54C119.767 91.7133 119.373 91.8 118.94 91.8C118.447 91.8 117.997 91.6933 117.59 91.48C117.19 91.26 116.873 90.9567 116.64 90.57C116.413 90.1767 116.3 89.7333 116.3 89.24C116.3 88.7467 116.413 88.3067 116.64 87.92C116.873 87.5333 117.19 87.2333 117.59 87.02C117.99 86.8067 118.44 86.7 118.94 86.7C119.387 86.7 119.79 86.79 120.15 86.97C120.51 87.15 120.8 87.41 121.02 87.75V86.74H121.7ZM119.01 91.17C119.39 91.17 119.733 91.09 120.04 90.93C120.347 90.7633 120.583 90.5333 120.75 90.24C120.923 89.9467 121.01 89.6133 121.01 89.24C121.01 88.8667 120.923 88.5367 120.75 88.25C120.583 87.9567 120.347 87.73 120.04 87.57C119.74 87.4033 119.397 87.32 119.01 87.32C118.63 87.32 118.287 87.4 117.98 87.56C117.68 87.72 117.443 87.9467 117.27 88.24C117.103 88.5333 117.02 88.8667 117.02 89.24C117.02 89.6133 117.103 89.9467 117.27 90.24C117.443 90.5333 117.68 90.7633 117.98 90.93C118.287 91.09 118.63 91.17 119.01 91.17ZM126.303 86.74H127.013V92H126.303V86.74ZM126.663 85.59C126.516 85.59 126.393 85.54 126.293 85.44C126.193 85.34 126.143 85.22 126.143 85.08C126.143 84.9467 126.193 84.83 126.293 84.73C126.393 84.63 126.516 84.58 126.663 84.58C126.809 84.58 126.933 84.63 127.033 84.73C127.133 84.8233 127.183 84.9367 127.183 85.07C127.183 85.2167 127.133 85.34 127.033 85.44C126.933 85.54 126.809 85.59 126.663 85.59ZM131.668 86.7C132.328 86.7 132.851 86.8933 133.238 87.28C133.631 87.66 133.828 88.2167 133.828 88.95V92H133.118V89.02C133.118 88.4733 132.981 88.0567 132.708 87.77C132.435 87.4833 132.045 87.34 131.538 87.34C130.971 87.34 130.521 87.51 130.188 87.85C129.861 88.1833 129.698 88.6467 129.698 89.24V92H128.988V86.74H129.668V87.71C129.861 87.39 130.128 87.1433 130.468 86.97C130.815 86.79 131.215 86.7 131.668 86.7ZM140.575 84.58V92H139.895V90.96C139.682 91.3133 139.398 91.5833 139.045 91.77C138.698 91.9567 138.305 92.05 137.865 92.05C137.372 92.05 136.925 91.9367 136.525 91.71C136.125 91.4833 135.812 91.1667 135.585 90.76C135.358 90.3533 135.245 89.89 135.245 89.37C135.245 88.85 135.358 88.3867 135.585 87.98C135.812 87.5733 136.125 87.26 136.525 87.04C136.925 86.8133 137.372 86.7 137.865 86.7C138.292 86.7 138.675 86.79 139.015 86.97C139.362 87.1433 139.645 87.4 139.865 87.74V84.58H140.575ZM137.925 91.42C138.292 91.42 138.622 91.3367 138.915 91.17C139.215 90.9967 139.448 90.7533 139.615 90.44C139.788 90.1267 139.875 89.77 139.875 89.37C139.875 88.97 139.788 88.6133 139.615 88.3C139.448 87.9867 139.215 87.7467 138.915 87.58C138.622 87.4067 138.292 87.32 137.925 87.32C137.552 87.32 137.215 87.4067 136.915 87.58C136.622 87.7467 136.388 87.9867 136.215 88.3C136.048 88.6133 135.965 88.97 135.965 89.37C135.965 89.77 136.048 90.1267 136.215 90.44C136.388 90.7533 136.622 90.9967 136.915 91.17C137.215 91.3367 137.552 91.42 137.925 91.42ZM147.293 86.74V92H146.612V91.04C146.426 91.36 146.169 91.61 145.843 91.79C145.516 91.9633 145.143 92.05 144.723 92.05C144.036 92.05 143.493 91.86 143.093 91.48C142.699 91.0933 142.503 90.53 142.503 89.79V86.74H143.213V89.72C143.213 90.2733 143.349 90.6933 143.623 90.98C143.896 91.2667 144.286 91.41 144.793 91.41C145.346 91.41 145.783 91.2433 146.103 90.91C146.423 90.57 146.583 90.1 146.583 89.5V86.74H147.293ZM150.691 92.05C150.264 92.05 149.854 91.99 149.461 91.87C149.074 91.7433 148.771 91.5867 148.551 91.4L148.871 90.84C149.091 91.0133 149.368 91.1567 149.701 91.27C150.034 91.3767 150.381 91.43 150.741 91.43C151.221 91.43 151.574 91.3567 151.801 91.21C152.034 91.0567 152.151 90.8433 152.151 90.57C152.151 90.3767 152.088 90.2267 151.961 90.12C151.834 90.0067 151.674 89.9233 151.481 89.87C151.288 89.81 151.031 89.7533 150.711 89.7C150.284 89.62 149.941 89.54 149.681 89.46C149.421 89.3733 149.198 89.23 149.011 89.03C148.831 88.83 148.741 88.5533 148.741 88.2C148.741 87.76 148.924 87.4 149.291 87.12C149.658 86.84 150.168 86.7 150.821 86.7C151.161 86.7 151.501 86.7467 151.841 86.84C152.181 86.9267 152.461 87.0433 152.681 87.19L152.371 87.76C151.938 87.46 151.421 87.31 150.821 87.31C150.368 87.31 150.024 87.39 149.791 87.55C149.564 87.71 149.451 87.92 149.451 88.18C149.451 88.38 149.514 88.54 149.641 88.66C149.774 88.78 149.938 88.87 150.131 88.93C150.324 88.9833 150.591 89.04 150.931 89.1C151.351 89.18 151.688 89.26 151.941 89.34C152.194 89.42 152.411 89.5567 152.591 89.75C152.771 89.9433 152.861 90.21 152.861 90.55C152.861 91.01 152.668 91.3767 152.281 91.65C151.901 91.9167 151.371 92.05 150.691 92.05ZM156.944 91.68C156.81 91.8 156.644 91.8933 156.444 91.96C156.25 92.02 156.047 92.05 155.834 92.05C155.34 92.05 154.96 91.9167 154.694 91.65C154.427 91.3833 154.294 91.0067 154.294 90.52V87.34H153.354V86.74H154.294V85.59H155.004V86.74H156.604V87.34H155.004V90.48C155.004 90.7933 155.08 91.0333 155.234 91.2C155.394 91.36 155.62 91.44 155.914 91.44C156.06 91.44 156.2 91.4167 156.334 91.37C156.474 91.3233 156.594 91.2567 156.694 91.17L156.944 91.68ZM158.916 87.77C159.083 87.4167 159.329 87.15 159.656 86.97C159.989 86.79 160.399 86.7 160.886 86.7V87.39L160.716 87.38C160.163 87.38 159.729 87.55 159.416 87.89C159.103 88.23 158.946 88.7067 158.946 89.32V92H158.236V86.74H158.916V87.77ZM166.816 86.74L164.186 92.63C163.973 93.1233 163.726 93.4733 163.446 93.68C163.166 93.8867 162.83 93.99 162.436 93.99C162.183 93.99 161.946 93.95 161.726 93.87C161.506 93.79 161.316 93.67 161.156 93.51L161.486 92.98C161.753 93.2467 162.073 93.38 162.446 93.38C162.686 93.38 162.89 93.3133 163.056 93.18C163.23 93.0467 163.39 92.82 163.536 92.5L163.766 91.99L161.416 86.74H162.156L164.136 91.21L166.116 86.74H166.816ZM167.544 92.05C167.398 92.05 167.271 91.9967 167.164 91.89C167.064 91.7833 167.014 91.6533 167.014 91.5C167.014 91.3467 167.064 91.22 167.164 91.12C167.271 91.0133 167.398 90.96 167.544 90.96C167.691 90.96 167.818 91.0133 167.924 91.12C168.031 91.22 168.084 91.3467 168.084 91.5C168.084 91.6533 168.031 91.7833 167.924 91.89C167.818 91.9967 167.691 92.05 167.544 92.05ZM172.361 85H173.101V91.36H177.021V92H172.361V85ZM180.171 92.05C179.665 92.05 179.208 91.9367 178.801 91.71C178.395 91.4767 178.075 91.1567 177.841 90.75C177.608 90.3433 177.491 89.8833 177.491 89.37C177.491 88.8567 177.608 88.3967 177.841 87.99C178.075 87.5833 178.395 87.2667 178.801 87.04C179.208 86.8133 179.665 86.7 180.171 86.7C180.678 86.7 181.135 86.8133 181.541 87.04C181.948 87.2667 182.265 87.5833 182.491 87.99C182.725 88.3967 182.841 88.8567 182.841 89.37C182.841 89.8833 182.725 90.3433 182.491 90.75C182.265 91.1567 181.948 91.4767 181.541 91.71C181.135 91.9367 180.678 92.05 180.171 92.05ZM180.171 91.42C180.545 91.42 180.878 91.3367 181.171 91.17C181.471 90.9967 181.705 90.7533 181.871 90.44C182.038 90.1267 182.121 89.77 182.121 89.37C182.121 88.97 182.038 88.6133 181.871 88.3C181.705 87.9867 181.471 87.7467 181.171 87.58C180.878 87.4067 180.545 87.32 180.171 87.32C179.798 87.32 179.461 87.4067 179.161 87.58C178.868 87.7467 178.635 87.9867 178.461 88.3C178.295 88.6133 178.211 88.97 178.211 89.37C178.211 89.77 178.295 90.1267 178.461 90.44C178.635 90.7533 178.868 90.9967 179.161 91.17C179.461 91.3367 179.798 91.42 180.171 91.42ZM184.971 87.77C185.137 87.4167 185.384 87.15 185.711 86.97C186.044 86.79 186.454 86.7 186.941 86.7V87.39L186.771 87.38C186.217 87.38 185.784 87.55 185.471 87.89C185.157 88.23 185.001 88.7067 185.001 89.32V92H184.291V86.74H184.971V87.77ZM192.758 89.59H188.358C188.398 90.1367 188.608 90.58 188.988 90.92C189.368 91.2533 189.848 91.42 190.428 91.42C190.754 91.42 191.054 91.3633 191.328 91.25C191.601 91.13 191.838 90.9567 192.038 90.73L192.438 91.19C192.204 91.47 191.911 91.6833 191.558 91.83C191.211 91.9767 190.828 92.05 190.408 92.05C189.868 92.05 189.388 91.9367 188.968 91.71C188.554 91.4767 188.231 91.1567 187.998 90.75C187.764 90.3433 187.648 89.8833 187.648 89.37C187.648 88.8567 187.758 88.3967 187.978 87.99C188.204 87.5833 188.511 87.2667 188.898 87.04C189.291 86.8133 189.731 86.7 190.218 86.7C190.704 86.7 191.141 86.8133 191.528 87.04C191.914 87.2667 192.218 87.5833 192.438 87.99C192.658 88.39 192.768 88.85 192.768 89.37L192.758 89.59ZM190.218 87.31C189.711 87.31 189.284 87.4733 188.938 87.8C188.598 88.12 188.404 88.54 188.358 89.06H192.088C192.041 88.54 191.844 88.12 191.498 87.8C191.158 87.4733 190.731 87.31 190.218 87.31ZM200.773 86.7C201.433 86.7 201.949 86.89 202.323 87.27C202.703 87.65 202.893 88.21 202.893 88.95V92H202.183V89.02C202.183 88.4733 202.049 88.0567 201.783 87.77C201.523 87.4833 201.153 87.34 200.673 87.34C200.126 87.34 199.696 87.51 199.383 87.85C199.069 88.1833 198.913 88.6467 198.913 89.24V92H198.203V89.02C198.203 88.4733 198.069 88.0567 197.803 87.77C197.543 87.4833 197.169 87.34 196.683 87.34C196.143 87.34 195.713 87.51 195.393 87.85C195.079 88.1833 194.923 88.6467 194.923 89.24V92H194.213V86.74H194.893V87.7C195.079 87.38 195.339 87.1333 195.673 86.96C196.006 86.7867 196.389 86.7 196.823 86.7C197.263 86.7 197.643 86.7933 197.963 86.98C198.289 87.1667 198.533 87.4433 198.693 87.81C198.886 87.4633 199.163 87.1933 199.523 87C199.889 86.8 200.306 86.7 200.773 86.7ZM1.14 101H1.88V108H1.14V101ZM6.71758 102.7C7.21091 102.7 7.65758 102.813 8.05758 103.04C8.45758 103.26 8.77091 103.573 8.99758 103.98C9.22425 104.387 9.33758 104.85 9.33758 105.37C9.33758 105.897 9.22425 106.363 8.99758 106.77C8.77091 107.177 8.45758 107.493 8.05758 107.72C7.66424 107.94 7.21758 108.05 6.71758 108.05C6.29091 108.05 5.90424 107.963 5.55758 107.79C5.21758 107.61 4.93758 107.35 4.71758 107.01V109.94H4.00758V102.74H4.68758V103.78C4.90091 103.433 5.18091 103.167 5.52758 102.98C5.88091 102.793 6.27758 102.7 6.71758 102.7ZM6.66758 107.42C7.03424 107.42 7.36758 107.337 7.66758 107.17C7.96758 106.997 8.20091 106.753 8.36758 106.44C8.54091 106.127 8.62758 105.77 8.62758 105.37C8.62758 104.97 8.54091 104.617 8.36758 104.31C8.20091 103.997 7.96758 103.753 7.66758 103.58C7.36758 103.407 7.03424 103.32 6.66758 103.32C6.29424 103.32 5.95758 103.407 5.65758 103.58C5.36424 103.753 5.13091 103.997 4.95758 104.31C4.79091 104.617 4.70758 104.97 4.70758 105.37C4.70758 105.77 4.79091 106.127 4.95758 106.44C5.13091 106.753 5.36424 106.997 5.65758 107.17C5.95758 107.337 6.29424 107.42 6.66758 107.42ZM12.1949 108.05C11.7683 108.05 11.3583 107.99 10.9649 107.87C10.5783 107.743 10.2749 107.587 10.0549 107.4L10.3749 106.84C10.5949 107.013 10.8716 107.157 11.2049 107.27C11.5383 107.377 11.8849 107.43 12.2449 107.43C12.7249 107.43 13.0783 107.357 13.3049 107.21C13.5383 107.057 13.6549 106.843 13.6549 106.57C13.6549 106.377 13.5916 106.227 13.4649 106.12C13.3383 106.007 13.1783 105.923 12.9849 105.87C12.7916 105.81 12.5349 105.753 12.2149 105.7C11.7883 105.62 11.4449 105.54 11.1849 105.46C10.9249 105.373 10.7016 105.23 10.5149 105.03C10.3349 104.83 10.2449 104.553 10.2449 104.2C10.2449 103.76 10.4283 103.4 10.7949 103.12C11.1616 102.84 11.6716 102.7 12.3249 102.7C12.6649 102.7 13.0049 102.747 13.3449 102.84C13.6849 102.927 13.9649 103.043 14.1849 103.19L13.8749 103.76C13.4416 103.46 12.9249 103.31 12.3249 103.31C11.8716 103.31 11.5283 103.39 11.2949 103.55C11.0683 103.71 10.9549 103.92 10.9549 104.18C10.9549 104.38 11.0183 104.54 11.1449 104.66C11.2783 104.78 11.4416 104.87 11.6349 104.93C11.8283 104.983 12.0949 105.04 12.4349 105.1C12.8549 105.18 13.1916 105.26 13.4449 105.34C13.6983 105.42 13.9149 105.557 14.0949 105.75C14.2749 105.943 14.3649 106.21 14.3649 106.55C14.3649 107.01 14.1716 107.377 13.7849 107.65C13.4049 107.917 12.8749 108.05 12.1949 108.05ZM20.4175 102.74V108H19.7375V107.04C19.5508 107.36 19.2942 107.61 18.9675 107.79C18.6408 107.963 18.2675 108.05 17.8475 108.05C17.1608 108.05 16.6175 107.86 16.2175 107.48C15.8242 107.093 15.6275 106.53 15.6275 105.79V102.74H16.3375V105.72C16.3375 106.273 16.4742 106.693 16.7475 106.98C17.0208 107.267 17.4108 107.41 17.9175 107.41C18.4708 107.41 18.9075 107.243 19.2275 106.91C19.5475 106.57 19.7075 106.1 19.7075 105.5V102.74H20.4175ZM28.966 102.7C29.626 102.7 30.1427 102.89 30.516 103.27C30.896 103.65 31.086 104.21 31.086 104.95V108H30.376V105.02C30.376 104.473 30.2427 104.057 29.976 103.77C29.716 103.483 29.346 103.34 28.866 103.34C28.3193 103.34 27.8893 103.51 27.576 103.85C27.2627 104.183 27.106 104.647 27.106 105.24V108H26.396V105.02C26.396 104.473 26.2627 104.057 25.996 103.77C25.736 103.483 25.3627 103.34 24.876 103.34C24.336 103.34 23.906 103.51 23.586 103.85C23.2727 104.183 23.116 104.647 23.116 105.24V108H22.406V102.74H23.086V103.7C23.2727 103.38 23.5327 103.133 23.866 102.96C24.1993 102.787 24.5827 102.7 25.016 102.7C25.456 102.7 25.836 102.793 26.156 102.98C26.4827 103.167 26.726 103.443 26.886 103.81C27.0793 103.463 27.356 103.193 27.716 103C28.0827 102.8 28.4993 102.7 28.966 102.7ZM38.3087 102.7C38.9687 102.7 39.492 102.893 39.8787 103.28C40.272 103.66 40.4687 104.217 40.4687 104.95V108H39.7587V105.02C39.7587 104.473 39.622 104.057 39.3487 103.77C39.0753 103.483 38.6853 103.34 38.1787 103.34C37.612 103.34 37.162 103.51 36.8287 103.85C36.502 104.183 36.3387 104.647 36.3387 105.24V108H35.6287V100.58H36.3387V103.66C36.532 103.353 36.7987 103.117 37.1387 102.95C37.4787 102.783 37.8687 102.7 38.3087 102.7ZM44.2363 102.7C44.9229 102.7 45.4496 102.873 45.8163 103.22C46.1829 103.56 46.3663 104.067 46.3663 104.74V108H45.6863V107.18C45.5263 107.453 45.2896 107.667 44.9763 107.82C44.6696 107.973 44.3029 108.05 43.8763 108.05C43.2896 108.05 42.8229 107.91 42.4763 107.63C42.1296 107.35 41.9563 106.98 41.9563 106.52C41.9563 106.073 42.1163 105.713 42.4363 105.44C42.7629 105.167 43.2796 105.03 43.9863 105.03H45.6563V104.71C45.6563 104.257 45.5296 103.913 45.2763 103.68C45.0229 103.44 44.6529 103.32 44.1663 103.32C43.8329 103.32 43.5129 103.377 43.2063 103.49C42.8996 103.597 42.6363 103.747 42.4163 103.94L42.0963 103.41C42.3629 103.183 42.6829 103.01 43.0563 102.89C43.4296 102.763 43.8229 102.7 44.2363 102.7ZM43.9863 107.49C44.3863 107.49 44.7296 107.4 45.0163 107.22C45.3029 107.033 45.5163 106.767 45.6563 106.42V105.56H44.0063C43.1063 105.56 42.6562 105.873 42.6562 106.5C42.6562 106.807 42.7729 107.05 43.0063 107.23C43.2396 107.403 43.5663 107.49 43.9863 107.49ZM49.7047 108.05C49.278 108.05 48.868 107.99 48.4747 107.87C48.088 107.743 47.7847 107.587 47.5647 107.4L47.8847 106.84C48.1047 107.013 48.3814 107.157 48.7147 107.27C49.048 107.377 49.3947 107.43 49.7547 107.43C50.2347 107.43 50.588 107.357 50.8147 107.21C51.048 107.057 51.1647 106.843 51.1647 106.57C51.1647 106.377 51.1014 106.227 50.9747 106.12C50.848 106.007 50.688 105.923 50.4947 105.87C50.3014 105.81 50.0447 105.753 49.7247 105.7C49.298 105.62 48.9547 105.54 48.6947 105.46C48.4347 105.373 48.2114 105.23 48.0247 105.03C47.8447 104.83 47.7547 104.553 47.7547 104.2C47.7547 103.76 47.938 103.4 48.3047 103.12C48.6714 102.84 49.1814 102.7 49.8347 102.7C50.1747 102.7 50.5147 102.747 50.8547 102.84C51.1947 102.927 51.4747 103.043 51.6947 103.19L51.3847 103.76C50.9514 103.46 50.4347 103.31 49.8347 103.31C49.3814 103.31 49.038 103.39 48.8047 103.55C48.578 103.71 48.4647 103.92 48.4647 104.18C48.4647 104.38 48.528 104.54 48.6547 104.66C48.788 104.78 48.9514 104.87 49.1447 104.93C49.338 104.983 49.6047 105.04 49.9447 105.1C50.3647 105.18 50.7014 105.26 50.9547 105.34C51.208 105.42 51.4247 105.557 51.6047 105.75C51.7847 105.943 51.8747 106.21 51.8747 106.55C51.8747 107.01 51.6814 107.377 51.2947 107.65C50.9147 107.917 50.3847 108.05 49.7047 108.05ZM58.5145 102.7C59.0078 102.7 59.4545 102.813 59.8545 103.04C60.2545 103.26 60.5678 103.573 60.7945 103.98C61.0211 104.387 61.1345 104.85 61.1345 105.37C61.1345 105.89 61.0211 106.353 60.7945 106.76C60.5678 107.167 60.2545 107.483 59.8545 107.71C59.4545 107.937 59.0078 108.05 58.5145 108.05C58.0745 108.05 57.6778 107.957 57.3245 107.77C56.9778 107.583 56.6978 107.313 56.4845 106.96V108H55.8045V100.58H56.5145V103.74C56.7345 103.4 57.0145 103.143 57.3545 102.97C57.7011 102.79 58.0878 102.7 58.5145 102.7ZM58.4645 107.42C58.8311 107.42 59.1645 107.337 59.4645 107.17C59.7645 106.997 59.9978 106.753 60.1645 106.44C60.3378 106.127 60.4245 105.77 60.4245 105.37C60.4245 104.97 60.3378 104.613 60.1645 104.3C59.9978 103.987 59.7645 103.747 59.4645 103.58C59.1645 103.407 58.8311 103.32 58.4645 103.32C58.0911 103.32 57.7545 103.407 57.4545 103.58C57.1611 103.747 56.9278 103.987 56.7545 104.3C56.5878 104.613 56.5045 104.97 56.5045 105.37C56.5045 105.77 56.5878 106.127 56.7545 106.44C56.9278 106.753 57.1611 106.997 57.4545 107.17C57.7545 107.337 58.0911 107.42 58.4645 107.42ZM67.1618 105.59H62.7618C62.8018 106.137 63.0118 106.58 63.3918 106.92C63.7718 107.253 64.2518 107.42 64.8318 107.42C65.1585 107.42 65.4585 107.363 65.7318 107.25C66.0051 107.13 66.2418 106.957 66.4418 106.73L66.8418 107.19C66.6085 107.47 66.3151 107.683 65.9618 107.83C65.6151 107.977 65.2318 108.05 64.8118 108.05C64.2718 108.05 63.7918 107.937 63.3718 107.71C62.9585 107.477 62.6351 107.157 62.4018 106.75C62.1685 106.343 62.0518 105.883 62.0518 105.37C62.0518 104.857 62.1618 104.397 62.3818 103.99C62.6085 103.583 62.9151 103.267 63.3018 103.04C63.6951 102.813 64.1351 102.7 64.6218 102.7C65.1085 102.7 65.5451 102.813 65.9318 103.04C66.3185 103.267 66.6218 103.583 66.8418 103.99C67.0618 104.39 67.1718 104.85 67.1718 105.37L67.1618 105.59ZM64.6218 103.31C64.1151 103.31 63.6885 103.473 63.3418 103.8C63.0018 104.12 62.8085 104.54 62.7618 105.06H66.4918C66.4451 104.54 66.2485 104.12 65.9018 103.8C65.5618 103.473 65.1351 103.31 64.6218 103.31ZM73.197 105.59H68.797C68.837 106.137 69.047 106.58 69.427 106.92C69.807 107.253 70.287 107.42 70.867 107.42C71.1936 107.42 71.4936 107.363 71.767 107.25C72.0403 107.13 72.277 106.957 72.477 106.73L72.877 107.19C72.6436 107.47 72.3503 107.683 71.997 107.83C71.6503 107.977 71.267 108.05 70.847 108.05C70.307 108.05 69.827 107.937 69.407 107.71C68.9936 107.477 68.6703 107.157 68.437 106.75C68.2036 106.343 68.087 105.883 68.087 105.37C68.087 104.857 68.197 104.397 68.417 103.99C68.6436 103.583 68.9503 103.267 69.337 103.04C69.7303 102.813 70.1703 102.7 70.657 102.7C71.1436 102.7 71.5803 102.813 71.967 103.04C72.3536 103.267 72.657 103.583 72.877 103.99C73.097 104.39 73.207 104.85 73.207 105.37L73.197 105.59ZM70.657 103.31C70.1503 103.31 69.7236 103.473 69.377 103.8C69.037 104.12 68.8436 104.54 68.797 105.06H72.527C72.4803 104.54 72.2836 104.12 71.937 103.8C71.597 103.473 71.1703 103.31 70.657 103.31ZM77.3321 102.7C77.9921 102.7 78.5154 102.893 78.9021 103.28C79.2954 103.66 79.4921 104.217 79.4921 104.95V108H78.7821V105.02C78.7821 104.473 78.6454 104.057 78.3721 103.77C78.0988 103.483 77.7088 103.34 77.2021 103.34C76.6354 103.34 76.1854 103.51 75.8521 103.85C75.5254 104.183 75.3621 104.647 75.3621 105.24V108H74.6521V102.74H75.3321V103.71C75.5254 103.39 75.7921 103.143 76.1321 102.97C76.4788 102.79 76.8788 102.7 77.3321 102.7ZM86.8069 107.68C86.6735 107.8 86.5069 107.893 86.3069 107.96C86.1135 108.02 85.9102 108.05 85.6969 108.05C85.2035 108.05 84.8235 107.917 84.5569 107.65C84.2902 107.383 84.1569 107.007 84.1569 106.52V103.34H83.2169V102.74H84.1569V101.59H84.8669V102.74H86.4669V103.34H84.8669V106.48C84.8669 106.793 84.9435 107.033 85.0969 107.2C85.2569 107.36 85.4835 107.44 85.7769 107.44C85.9235 107.44 86.0635 107.417 86.1969 107.37C86.3369 107.323 86.4569 107.257 86.5569 107.17L86.8069 107.68ZM90.7794 102.7C91.4394 102.7 91.9627 102.893 92.3494 103.28C92.7427 103.66 92.9394 104.217 92.9394 104.95V108H92.2294V105.02C92.2294 104.473 92.0927 104.057 91.8194 103.77C91.546 103.483 91.156 103.34 90.6494 103.34C90.0827 103.34 89.6327 103.51 89.2994 103.85C88.9727 104.183 88.8094 104.647 88.8094 105.24V108H88.0994V100.58H88.8094V103.66C89.0027 103.353 89.2694 103.117 89.6094 102.95C89.9494 102.783 90.3394 102.7 90.7794 102.7ZM99.4665 105.59H95.0665C95.1065 106.137 95.3165 106.58 95.6965 106.92C96.0765 107.253 96.5565 107.42 97.1365 107.42C97.4632 107.42 97.7632 107.363 98.0365 107.25C98.3098 107.13 98.5465 106.957 98.7465 106.73L99.1465 107.19C98.9132 107.47 98.6198 107.683 98.2665 107.83C97.9198 107.977 97.5365 108.05 97.1165 108.05C96.5765 108.05 96.0965 107.937 95.6765 107.71C95.2632 107.477 94.9398 107.157 94.7065 106.75C94.4732 106.343 94.3565 105.883 94.3565 105.37C94.3565 104.857 94.4665 104.397 94.6865 103.99C94.9132 103.583 95.2198 103.267 95.6065 103.04C95.9998 102.813 96.4398 102.7 96.9265 102.7C97.4132 102.7 97.8498 102.813 98.2365 103.04C98.6232 103.267 98.9265 103.583 99.1465 103.99C99.3665 104.39 99.4765 104.85 99.4765 105.37L99.4665 105.59ZM96.9265 103.31C96.4198 103.31 95.9932 103.473 95.6465 103.8C95.3065 104.12 95.1132 104.54 95.0665 105.06H98.7965C98.7498 104.54 98.5532 104.12 98.2065 103.8C97.8665 103.473 97.4398 103.31 96.9265 103.31ZM103.539 102.74H104.249V108H103.539V102.74ZM103.899 101.59C103.752 101.59 103.629 101.54 103.529 101.44C103.429 101.34 103.379 101.22 103.379 101.08C103.379 100.947 103.429 100.83 103.529 100.73C103.629 100.63 103.752 100.58 103.899 100.58C104.045 100.58 104.169 100.63 104.269 100.73C104.369 100.823 104.419 100.937 104.419 101.07C104.419 101.217 104.369 101.34 104.269 101.44C104.169 101.54 104.045 101.59 103.899 101.59ZM108.904 102.7C109.564 102.7 110.088 102.893 110.474 103.28C110.868 103.66 111.064 104.217 111.064 104.95V108H110.354V105.02C110.354 104.473 110.218 104.057 109.944 103.77C109.671 103.483 109.281 103.34 108.774 103.34C108.208 103.34 107.758 103.51 107.424 103.85C107.098 104.183 106.934 104.647 106.934 105.24V108H106.224V102.74H106.904V103.71C107.098 103.39 107.364 103.143 107.704 102.97C108.051 102.79 108.451 102.7 108.904 102.7ZM117.811 100.58V108H117.131V106.96C116.918 107.313 116.635 107.583 116.281 107.77C115.935 107.957 115.541 108.05 115.101 108.05C114.608 108.05 114.161 107.937 113.761 107.71C113.361 107.483 113.048 107.167 112.821 106.76C112.595 106.353 112.481 105.89 112.481 105.37C112.481 104.85 112.595 104.387 112.821 103.98C113.048 103.573 113.361 103.26 113.761 103.04C114.161 102.813 114.608 102.7 115.101 102.7C115.528 102.7 115.911 102.79 116.251 102.97C116.598 103.143 116.881 103.4 117.101 103.74V100.58H117.811ZM115.161 107.42C115.528 107.42 115.858 107.337 116.151 107.17C116.451 106.997 116.685 106.753 116.851 106.44C117.025 106.127 117.111 105.77 117.111 105.37C117.111 104.97 117.025 104.613 116.851 104.3C116.685 103.987 116.451 103.747 116.151 103.58C115.858 103.407 115.528 103.32 115.161 103.32C114.788 103.32 114.451 103.407 114.151 103.58C113.858 103.747 113.625 103.987 113.451 104.3C113.285 104.613 113.201 104.97 113.201 105.37C113.201 105.77 113.285 106.127 113.451 106.44C113.625 106.753 113.858 106.997 114.151 107.17C114.451 107.337 114.788 107.42 115.161 107.42ZM124.529 102.74V108H123.849V107.04C123.662 107.36 123.405 107.61 123.079 107.79C122.752 107.963 122.379 108.05 121.959 108.05C121.272 108.05 120.729 107.86 120.329 107.48C119.935 107.093 119.739 106.53 119.739 105.79V102.74H120.449V105.72C120.449 106.273 120.585 106.693 120.859 106.98C121.132 107.267 121.522 107.41 122.029 107.41C122.582 107.41 123.019 107.243 123.339 106.91C123.659 106.57 123.819 106.1 123.819 105.5V102.74H124.529ZM127.927 108.05C127.501 108.05 127.091 107.99 126.697 107.87C126.311 107.743 126.007 107.587 125.787 107.4L126.107 106.84C126.327 107.013 126.604 107.157 126.937 107.27C127.271 107.377 127.617 107.43 127.977 107.43C128.457 107.43 128.811 107.357 129.037 107.21C129.271 107.057 129.387 106.843 129.387 106.57C129.387 106.377 129.324 106.227 129.197 106.12C129.071 106.007 128.911 105.923 128.717 105.87C128.524 105.81 128.267 105.753 127.947 105.7C127.521 105.62 127.177 105.54 126.917 105.46C126.657 105.373 126.434 105.23 126.247 105.03C126.067 104.83 125.977 104.553 125.977 104.2C125.977 103.76 126.161 103.4 126.527 103.12C126.894 102.84 127.404 102.7 128.057 102.7C128.397 102.7 128.737 102.747 129.077 102.84C129.417 102.927 129.697 103.043 129.917 103.19L129.607 103.76C129.174 103.46 128.657 103.31 128.057 103.31C127.604 103.31 127.261 103.39 127.027 103.55C126.801 103.71 126.687 103.92 126.687 104.18C126.687 104.38 126.751 104.54 126.877 104.66C127.011 104.78 127.174 104.87 127.367 104.93C127.561 104.983 127.827 105.04 128.167 105.1C128.587 105.18 128.924 105.26 129.177 105.34C129.431 105.42 129.647 105.557 129.827 105.75C130.007 105.943 130.097 106.21 130.097 106.55C130.097 107.01 129.904 107.377 129.517 107.65C129.137 107.917 128.607 108.05 127.927 108.05ZM134.18 107.68C134.047 107.8 133.88 107.893 133.68 107.96C133.487 108.02 133.283 108.05 133.07 108.05C132.577 108.05 132.197 107.917 131.93 107.65C131.663 107.383 131.53 107.007 131.53 106.52V103.34H130.59V102.74H131.53V101.59H132.24V102.74H133.84V103.34H132.24V106.48C132.24 106.793 132.317 107.033 132.47 107.2C132.63 107.36 132.857 107.44 133.15 107.44C133.297 107.44 133.437 107.417 133.57 107.37C133.71 107.323 133.83 107.257 133.93 107.17L134.18 107.68ZM136.152 103.77C136.319 103.417 136.566 103.15 136.892 102.97C137.226 102.79 137.636 102.7 138.122 102.7V103.39L137.952 103.38C137.399 103.38 136.966 103.55 136.652 103.89C136.339 104.23 136.182 104.707 136.182 105.32V108H135.472V102.74H136.152V103.77ZM144.053 102.74L141.423 108.63C141.209 109.123 140.963 109.473 140.683 109.68C140.403 109.887 140.066 109.99 139.673 109.99C139.419 109.99 139.183 109.95 138.963 109.87C138.743 109.79 138.553 109.67 138.393 109.51L138.723 108.98C138.989 109.247 139.309 109.38 139.683 109.38C139.923 109.38 140.126 109.313 140.293 109.18C140.466 109.047 140.626 108.82 140.773 108.5L141.003 107.99L138.653 102.74H139.393L141.373 107.21L143.353 102.74H144.053ZM144.753 101H145.382L145.333 103.64H144.803L144.753 101ZM148.484 108.05C148.057 108.05 147.647 107.99 147.254 107.87C146.867 107.743 146.564 107.587 146.344 107.4L146.664 106.84C146.884 107.013 147.161 107.157 147.494 107.27C147.827 107.377 148.174 107.43 148.534 107.43C149.014 107.43 149.367 107.357 149.594 107.21C149.827 107.057 149.944 106.843 149.944 106.57C149.944 106.377 149.881 106.227 149.754 106.12C149.627 106.007 149.467 105.923 149.274 105.87C149.081 105.81 148.824 105.753 148.504 105.7C148.077 105.62 147.734 105.54 147.474 105.46C147.214 105.373 146.991 105.23 146.804 105.03C146.624 104.83 146.534 104.553 146.534 104.2C146.534 103.76 146.717 103.4 147.084 103.12C147.451 102.84 147.961 102.7 148.614 102.7C148.954 102.7 149.294 102.747 149.634 102.84C149.974 102.927 150.254 103.043 150.474 103.19L150.164 103.76C149.731 103.46 149.214 103.31 148.614 103.31C148.161 103.31 147.817 103.39 147.584 103.55C147.357 103.71 147.244 103.92 147.244 104.18C147.244 104.38 147.307 104.54 147.434 104.66C147.567 104.78 147.731 104.87 147.924 104.93C148.117 104.983 148.384 105.04 148.724 105.1C149.144 105.18 149.481 105.26 149.734 105.34C149.987 105.42 150.204 105.557 150.384 105.75C150.564 105.943 150.654 106.21 150.654 106.55C150.654 107.01 150.461 107.377 150.074 107.65C149.694 107.917 149.164 108.05 148.484 108.05ZM155.994 108.05C155.567 108.05 155.157 107.99 154.764 107.87C154.377 107.743 154.074 107.587 153.854 107.4L154.174 106.84C154.394 107.013 154.67 107.157 155.004 107.27C155.337 107.377 155.684 107.43 156.044 107.43C156.524 107.43 156.877 107.357 157.104 107.21C157.337 107.057 157.454 106.843 157.454 106.57C157.454 106.377 157.39 106.227 157.264 106.12C157.137 106.007 156.977 105.923 156.784 105.87C156.59 105.81 156.334 105.753 156.014 105.7C155.587 105.62 155.244 105.54 154.984 105.46C154.724 105.373 154.5 105.23 154.314 105.03C154.134 104.83 154.044 104.553 154.044 104.2C154.044 103.76 154.227 103.4 154.594 103.12C154.96 102.84 155.47 102.7 156.124 102.7C156.464 102.7 156.804 102.747 157.144 102.84C157.484 102.927 157.764 103.043 157.984 103.19L157.674 103.76C157.24 103.46 156.724 103.31 156.124 103.31C155.67 103.31 155.327 103.39 155.094 103.55C154.867 103.71 154.754 103.92 154.754 104.18C154.754 104.38 154.817 104.54 154.944 104.66C155.077 104.78 155.24 104.87 155.434 104.93C155.627 104.983 155.894 105.04 156.234 105.1C156.654 105.18 156.99 105.26 157.244 105.34C157.497 105.42 157.714 105.557 157.894 105.75C158.074 105.943 158.164 106.21 158.164 106.55C158.164 107.01 157.97 107.377 157.584 107.65C157.204 107.917 156.674 108.05 155.994 108.05ZM162.246 107.68C162.113 107.8 161.946 107.893 161.746 107.96C161.553 108.02 161.35 108.05 161.136 108.05C160.643 108.05 160.263 107.917 159.996 107.65C159.73 107.383 159.596 107.007 159.596 106.52V103.34H158.656V102.74H159.596V101.59H160.306V102.74H161.906V103.34H160.306V106.48C160.306 106.793 160.383 107.033 160.536 107.2C160.696 107.36 160.923 107.44 161.216 107.44C161.363 107.44 161.503 107.417 161.636 107.37C161.776 107.323 161.896 107.257 161.996 107.17L162.246 107.68ZM165.379 102.7C166.065 102.7 166.592 102.873 166.959 103.22C167.325 103.56 167.509 104.067 167.509 104.74V108H166.829V107.18C166.669 107.453 166.432 107.667 166.119 107.82C165.812 107.973 165.445 108.05 165.019 108.05C164.432 108.05 163.965 107.91 163.619 107.63C163.272 107.35 163.099 106.98 163.099 106.52C163.099 106.073 163.259 105.713 163.579 105.44C163.905 105.167 164.422 105.03 165.129 105.03H166.799V104.71C166.799 104.257 166.672 103.913 166.419 103.68C166.165 103.44 165.795 103.32 165.309 103.32C164.975 103.32 164.655 103.377 164.349 103.49C164.042 103.597 163.779 103.747 163.559 103.94L163.239 103.41C163.505 103.183 163.825 103.01 164.199 102.89C164.572 102.763 164.965 102.7 165.379 102.7ZM165.129 107.49C165.529 107.49 165.872 107.4 166.159 107.22C166.445 107.033 166.659 106.767 166.799 106.42V105.56H165.149C164.249 105.56 163.799 105.873 163.799 106.5C163.799 106.807 163.915 107.05 164.149 107.23C164.382 107.403 164.709 107.49 165.129 107.49ZM172.117 102.7C172.777 102.7 173.301 102.893 173.687 103.28C174.081 103.66 174.277 104.217 174.277 104.95V108H173.567V105.02C173.567 104.473 173.431 104.057 173.157 103.77C172.884 103.483 172.494 103.34 171.987 103.34C171.421 103.34 170.971 103.51 170.637 103.85C170.311 104.183 170.147 104.647 170.147 105.24V108H169.437V102.74H170.117V103.71C170.311 103.39 170.577 103.143 170.917 102.97C171.264 102.79 171.664 102.7 172.117 102.7ZM181.024 100.58V108H180.344V106.96C180.131 107.313 179.848 107.583 179.494 107.77C179.148 107.957 178.754 108.05 178.314 108.05C177.821 108.05 177.374 107.937 176.974 107.71C176.574 107.483 176.261 107.167 176.034 106.76C175.808 106.353 175.694 105.89 175.694 105.37C175.694 104.85 175.808 104.387 176.034 103.98C176.261 103.573 176.574 103.26 176.974 103.04C177.374 102.813 177.821 102.7 178.314 102.7C178.741 102.7 179.124 102.79 179.464 102.97C179.811 103.143 180.094 103.4 180.314 103.74V100.58H181.024ZM178.374 107.42C178.741 107.42 179.071 107.337 179.364 107.17C179.664 106.997 179.898 106.753 180.064 106.44C180.238 106.127 180.324 105.77 180.324 105.37C180.324 104.97 180.238 104.613 180.064 104.3C179.898 103.987 179.664 103.747 179.364 103.58C179.071 103.407 178.741 103.32 178.374 103.32C178.001 103.32 177.664 103.407 177.364 103.58C177.071 103.747 176.838 103.987 176.664 104.3C176.498 104.613 176.414 104.97 176.414 105.37C176.414 105.77 176.498 106.127 176.664 106.44C176.838 106.753 177.071 106.997 177.364 107.17C177.664 107.337 178.001 107.42 178.374 107.42ZM184.842 102.7C185.528 102.7 186.055 102.873 186.422 103.22C186.788 103.56 186.972 104.067 186.972 104.74V108H186.292V107.18C186.132 107.453 185.895 107.667 185.582 107.82C185.275 107.973 184.908 108.05 184.482 108.05C183.895 108.05 183.428 107.91 183.082 107.63C182.735 107.35 182.562 106.98 182.562 106.52C182.562 106.073 182.722 105.713 183.042 105.44C183.368 105.167 183.885 105.03 184.592 105.03H186.262V104.71C186.262 104.257 186.135 103.913 185.882 103.68C185.628 103.44 185.258 103.32 184.772 103.32C184.438 103.32 184.118 103.377 183.812 103.49C183.505 103.597 183.242 103.747 183.022 103.94L182.702 103.41C182.968 103.183 183.288 103.01 183.662 102.89C184.035 102.763 184.428 102.7 184.842 102.7ZM184.592 107.49C184.992 107.49 185.335 107.4 185.622 107.22C185.908 107.033 186.122 106.767 186.262 106.42V105.56H184.612C183.712 105.56 183.262 105.873 183.262 106.5C183.262 106.807 183.378 107.05 183.612 107.23C183.845 107.403 184.172 107.49 184.592 107.49ZM189.58 103.77C189.747 103.417 189.993 103.15 190.32 102.97C190.653 102.79 191.063 102.7 191.55 102.7V103.39L191.38 103.38C190.827 103.38 190.393 103.55 190.08 103.89C189.767 104.23 189.61 104.707 189.61 105.32V108H188.9V102.74H189.58V103.77ZM197.587 100.58V108H196.907V106.96C196.694 107.313 196.41 107.583 196.057 107.77C195.71 107.957 195.317 108.05 194.877 108.05C194.384 108.05 193.937 107.937 193.537 107.71C193.137 107.483 192.824 107.167 192.597 106.76C192.37 106.353 192.257 105.89 192.257 105.37C192.257 104.85 192.37 104.387 192.597 103.98C192.824 103.573 193.137 103.26 193.537 103.04C193.937 102.813 194.384 102.7 194.877 102.7C195.304 102.7 195.687 102.79 196.027 102.97C196.374 103.143 196.657 103.4 196.877 103.74V100.58H197.587ZM194.937 107.42C195.304 107.42 195.634 107.337 195.927 107.17C196.227 106.997 196.46 106.753 196.627 106.44C196.8 106.127 196.887 105.77 196.887 105.37C196.887 104.97 196.8 104.613 196.627 104.3C196.46 103.987 196.227 103.747 195.927 103.58C195.634 103.407 195.304 103.32 194.937 103.32C194.564 103.32 194.227 103.407 193.927 103.58C193.634 103.747 193.4 103.987 193.227 104.3C193.06 104.613 192.977 104.97 192.977 105.37C192.977 105.77 193.06 106.127 193.227 106.44C193.4 106.753 193.634 106.997 193.927 107.17C194.227 107.337 194.564 107.42 194.937 107.42Z" fill="#2C1500"/>
<path d="M67.92 8.88V11.84H73.104V13.92H67.92V18H65.328V6.8H73.792V8.88H67.92ZM78.6084 9.264C79.9417 9.264 80.9657 9.584 81.6804 10.224C82.395 10.8533 82.7524 11.808 82.7524 13.088V18H80.4164V16.928C79.947 17.728 79.0724 18.128 77.7924 18.128C77.131 18.128 76.555 18.016 76.0644 17.792C75.5844 17.568 75.2164 17.2587 74.9604 16.864C74.7044 16.4693 74.5764 16.0213 74.5764 15.52C74.5764 14.72 74.875 14.0907 75.4724 13.632C76.0804 13.1733 77.0137 12.944 78.2724 12.944H80.2564C80.2564 12.4 80.091 11.984 79.7604 11.696C79.4297 11.3973 78.9337 11.248 78.2724 11.248C77.8137 11.248 77.3604 11.3227 76.9124 11.472C76.475 11.6107 76.1017 11.8027 75.7924 12.048L74.8964 10.304C75.3657 9.97333 75.9257 9.71733 76.5764 9.536C77.2377 9.35467 77.915 9.264 78.6084 9.264ZM78.4164 16.448C78.843 16.448 79.2217 16.352 79.5524 16.16C79.883 15.9573 80.1177 15.664 80.2564 15.28V14.4H78.5444C77.5204 14.4 77.0084 14.736 77.0084 15.408C77.0084 15.728 77.131 15.984 77.3764 16.176C77.6324 16.3573 77.979 16.448 78.4164 16.448ZM87.9074 18.128C87.1927 18.128 86.494 18.0427 85.8114 17.872C85.1287 17.6907 84.5847 17.4667 84.1794 17.2L85.0114 15.408C85.3954 15.6533 85.8594 15.856 86.4034 16.016C86.9474 16.1653 87.4807 16.24 88.0034 16.24C89.0594 16.24 89.5874 15.9787 89.5874 15.456C89.5874 15.2107 89.4434 15.0347 89.1554 14.928C88.8674 14.8213 88.4247 14.7307 87.8274 14.656C87.1234 14.5493 86.542 14.4267 86.0834 14.288C85.6247 14.1493 85.2247 13.904 84.8834 13.552C84.5527 13.2 84.3874 12.6987 84.3874 12.048C84.3874 11.504 84.542 11.024 84.8514 10.608C85.1714 10.1813 85.63 9.85067 86.2274 9.616C86.8354 9.38133 87.55 9.264 88.3714 9.264C88.9794 9.264 89.582 9.33333 90.1794 9.472C90.7874 9.6 91.2887 9.78133 91.6834 10.016L90.8514 11.792C90.094 11.3653 89.2674 11.152 88.3714 11.152C87.838 11.152 87.438 11.2267 87.1714 11.376C86.9047 11.5253 86.7714 11.7173 86.7714 11.952C86.7714 12.2187 86.9154 12.4053 87.2034 12.512C87.4914 12.6187 87.95 12.72 88.5794 12.816C89.2834 12.9333 89.8594 13.0613 90.3074 13.2C90.7554 13.328 91.1447 13.568 91.4754 13.92C91.806 14.272 91.9714 14.7627 91.9714 15.392C91.9714 15.9253 91.8114 16.4 91.4914 16.816C91.1714 17.232 90.702 17.5573 90.0834 17.792C89.4754 18.016 88.75 18.128 87.9074 18.128ZM99.0634 17.584C98.818 17.7653 98.514 17.904 98.1514 18C97.7994 18.0853 97.426 18.128 97.0314 18.128C96.0074 18.128 95.2127 17.8667 94.6474 17.344C94.0927 16.8213 93.8154 16.0533 93.8154 15.04V11.504H92.4874V9.584H93.8154V7.488H96.3114V9.584H98.4554V11.504H96.3114V15.008C96.3114 15.3707 96.402 15.6533 96.5834 15.856C96.7754 16.048 97.042 16.144 97.3834 16.144C97.778 16.144 98.114 16.0373 98.3914 15.824L99.0634 17.584ZM65.328 30.8H70.416C71.632 30.8 72.704 31.0347 73.632 31.504C74.5707 31.9627 75.296 32.6133 75.808 33.456C76.3307 34.2987 76.592 35.28 76.592 36.4C76.592 37.52 76.3307 38.5013 75.808 39.344C75.296 40.1867 74.5707 40.8427 73.632 41.312C72.704 41.7707 71.632 42 70.416 42H65.328V30.8ZM70.288 39.872C71.408 39.872 72.2987 39.5627 72.96 38.944C73.632 38.3147 73.968 37.4667 73.968 36.4C73.968 35.3333 73.632 34.4907 72.96 33.872C72.2987 33.2427 71.408 32.928 70.288 32.928H67.92V39.872H70.288ZM86.8028 37.728C86.8028 37.76 86.7868 37.984 86.7548 38.4H80.2428C80.3601 38.9333 80.6374 39.3547 81.0748 39.664C81.5121 39.9733 82.0561 40.128 82.7068 40.128C83.1548 40.128 83.5494 40.064 83.8908 39.936C84.2428 39.7973 84.5681 39.584 84.8668 39.296L86.1948 40.736C85.3841 41.664 84.2001 42.128 82.6428 42.128C81.6721 42.128 80.8134 41.9413 80.0668 41.568C79.3201 41.184 78.7441 40.656 78.3388 39.984C77.9334 39.312 77.7308 38.5493 77.7308 37.696C77.7308 36.8533 77.9281 36.096 78.3228 35.424C78.7281 34.7413 79.2774 34.2133 79.9708 33.84C80.6748 33.456 81.4588 33.264 82.3228 33.264C83.1654 33.264 83.9281 33.4453 84.6108 33.808C85.2934 34.1707 85.8268 34.6933 86.2108 35.376C86.6054 36.048 86.8028 36.832 86.8028 37.728ZM82.3388 35.152C81.7734 35.152 81.2988 35.312 80.9148 35.632C80.5308 35.952 80.2961 36.3893 80.2108 36.944H84.4508C84.3654 36.4 84.1308 35.968 83.7468 35.648C83.3628 35.3173 82.8934 35.152 82.3388 35.152ZM88.4645 30.128H90.9605V42H88.4645V30.128ZM93.277 33.392H95.773V42H93.277V33.392ZM94.525 32.192C94.0663 32.192 93.693 32.0587 93.405 31.792C93.117 31.5253 92.973 31.1947 92.973 30.8C92.973 30.4053 93.117 30.0747 93.405 29.808C93.693 29.5413 94.0663 29.408 94.525 29.408C94.9837 29.408 95.357 29.536 95.645 29.792C95.933 30.048 96.077 30.368 96.077 30.752C96.077 31.168 95.933 31.5147 95.645 31.792C95.357 32.0587 94.9837 32.192 94.525 32.192ZM106.634 33.392L103.002 42H100.426L96.8095 33.392H99.3855L101.77 39.248L104.234 33.392H106.634ZM115.85 37.728C115.85 37.76 115.834 37.984 115.802 38.4H109.29C109.407 38.9333 109.684 39.3547 110.122 39.664C110.559 39.9733 111.103 40.128 111.754 40.128C112.202 40.128 112.596 40.064 112.938 39.936C113.29 39.7973 113.615 39.584 113.914 39.296L115.242 40.736C114.431 41.664 113.247 42.128 111.69 42.128C110.719 42.128 109.86 41.9413 109.114 41.568C108.367 41.184 107.791 40.656 107.386 39.984C106.98 39.312 106.778 38.5493 106.778 37.696C106.778 36.8533 106.975 36.096 107.37 35.424C107.775 34.7413 108.324 34.2133 109.018 33.84C109.722 33.456 110.506 33.264 111.37 33.264C112.212 33.264 112.975 33.4453 113.658 33.808C114.34 34.1707 114.874 34.6933 115.258 35.376C115.652 36.048 115.85 36.832 115.85 37.728ZM111.386 35.152C110.82 35.152 110.346 35.312 109.962 35.632C109.578 35.952 109.343 36.3893 109.258 36.944H113.498C113.412 36.4 113.178 35.968 112.794 35.648C112.41 35.3173 111.94 35.152 111.386 35.152ZM119.895 34.528C120.194 34.112 120.594 33.7973 121.095 33.584C121.607 33.3707 122.194 33.264 122.855 33.264V35.568C122.578 35.5467 122.391 35.536 122.295 35.536C121.581 35.536 121.021 35.7387 120.615 36.144C120.21 36.5387 120.007 37.136 120.007 37.936V42H117.511V33.392H119.895V34.528ZM133.18 33.392L129.292 42.528C128.898 43.52 128.407 44.2187 127.82 44.624C127.244 45.0293 126.546 45.232 125.724 45.232C125.276 45.232 124.834 45.1627 124.396 45.024C123.959 44.8853 123.602 44.6933 123.324 44.448L124.236 42.672C124.428 42.8427 124.647 42.976 124.892 43.072C125.148 43.168 125.399 43.216 125.644 43.216C125.986 43.216 126.263 43.1307 126.476 42.96C126.69 42.8 126.882 42.528 127.052 42.144L127.084 42.064L123.356 33.392H125.932L128.348 39.232L130.78 33.392H133.18Z" fill="#156963"/>
<g clip-path="url(#clip0_0_16)">
<path d="M13.0001 38H9.00006C8.44806 38 8.00006 37.552 8.00006 37C8.00006 36.448 8.44806 36 9.00006 36H13.0001C13.5521 36 14.0001 36.448 14.0001 37C14.0001 37.552 13.5521 38 13.0001 38Z" fill="#156963"/>
<path d="M45.5 38H43C42.448 38 42 37.552 42 37C42 36.448 42.448 36 43 36H44.67L46.018 28.816C46 25.14 42.86 22 39 22H32.434L29.252 36H35C35.552 36 36 36.448 36 37C36 37.552 35.552 38 35 38H28C27.696 38 27.408 37.862 27.218 37.624C27.028 37.388 26.956 37.076 27.024 36.78L30.66 20.78C30.764 20.322 31.168 20 31.636 20H39C43.962 20 48 24.038 48 29L46.482 37.184C46.394 37.658 45.982 38 45.5 38Z" fill="#156963"/>
<path d="M38.9999 42C36.2439 42 33.9999 39.758 33.9999 37C33.9999 34.242 36.2439 32 38.9999 32C41.7559 32 43.9999 34.242 43.9999 37C43.9999 39.758 41.7559 42 38.9999 42ZM38.9999 34C37.3459 34 35.9999 35.346 35.9999 37C35.9999 38.654 37.3459 40 38.9999 40C40.6539 40 41.9999 38.654 41.9999 37C41.9999 35.346 40.6539 34 38.9999 34Z" fill="#156963"/>
<path d="M17 42C14.244 42 12 39.758 12 37C12 34.242 14.244 32 17 32C19.756 32 22 34.242 22 37C22 39.758 19.756 42 17 42ZM17 34C15.346 34 14 35.346 14 37C14 38.654 15.346 40 17 40C18.654 40 20 38.654 20 37C20 35.346 18.654 34 17 34Z" fill="#156963"/>
<path d="M12.9999 20H4.99994C4.44794 20 3.99994 19.552 3.99994 19C3.99994 18.448 4.44794 18 4.99994 18H12.9999C13.5519 18 13.9999 18.448 13.9999 19C13.9999 19.552 13.5519 20 12.9999 20Z" fill="#156963"/>
<path d="M13.0001 26H3.00006C2.44806 26 2.00006 25.552 2.00006 25C2.00006 24.448 2.44806 24 3.00006 24H13.0001C13.5521 24 14.0001 24.448 14.0001 25C14.0001 25.552 13.5521 26 13.0001 26Z" fill="#156963"/>
<path d="M13 32H1C0.448 32 0 31.552 0 31C0 30.448 0.448 30 1 30H13C13.552 30 14 30.448 14 31C14 31.552 13.552 32 13 32Z" fill="#156963"/>
<path d="M28.0001 38H21.0001C20.4481 38 20.0001 37.552 20.0001 37C20.0001 36.448 20.4481 36 21.0001 36H27.2021L31.7461 16H9.00006C8.44806 16 8.00006 15.552 8.00006 15C8.00006 14.448 8.44806 14 9.00006 14H33.0001C33.3041 14 33.5921 14.138 33.7821 14.376C33.9721 14.612 34.0441 14.924 33.9761 15.22L28.9761 37.22C28.8721 37.678 28.4661 38 28.0001 38Z" fill="#156963"/>
</g>
<defs>
<clipPath id="clip0_0_16">
<rect width="48" height="48" fill="white"/>
</clipPath>
</defs>
</svg>
