<svg width="204" height="25" viewBox="0 0 204 25" fill="none" xmlns="http://www.w3.org/2000/svg">
<path d="M7.65588 14.048L3.55988 18.208V24H0.359878V1.6H3.55988V14.112L15.7199 1.6H19.3679L9.79988 11.68L19.9759 24H16.2319L7.65588 14.048ZM28.6816 6.88C31.0283 6.88 32.8203 7.456 34.0576 8.608C35.3163 9.76 35.9456 11.4773 35.9456 13.76V24H33.0336V21.76C32.5216 22.5493 31.7856 23.1573 30.8256 23.584C29.887 23.9893 28.767 24.192 27.4656 24.192C25.567 24.192 24.0416 23.7333 22.8896 22.816C21.759 21.8987 21.1936 20.6933 21.1936 19.2C21.1936 17.7067 21.7376 16.512 22.8256 15.616C23.9136 14.6987 25.6416 14.24 28.0096 14.24H32.8736V13.632C32.8736 12.3093 32.4896 11.296 31.7216 10.592C30.9536 9.888 29.823 9.536 28.3296 9.536C27.327 9.536 26.3456 9.70667 25.3856 10.048C24.4256 10.368 23.615 10.8053 22.9536 11.36L21.6736 9.056C22.5483 8.352 23.5936 7.81867 24.8096 7.456C26.0256 7.072 27.3163 6.88 28.6816 6.88ZM27.9776 21.824C29.151 21.824 30.1643 21.568 31.0176 21.056C31.871 20.5227 32.4896 19.776 32.8736 18.816V16.448H28.1376C25.535 16.448 24.2336 17.3227 24.2336 19.072C24.2336 19.9253 24.5643 20.5973 25.2256 21.088C25.887 21.5787 26.8043 21.824 27.9776 21.824ZM48.2226 16.096L44.7026 19.36V24H41.6306V0.255999H44.7026V15.488L53.9506 7.04H57.6626L50.5266 14.048L58.3666 24H54.5906L48.2226 16.096ZM70.8854 23.008C70.4374 23.392 69.8827 23.6907 69.2214 23.904C68.56 24.096 67.8774 24.192 67.1734 24.192C65.4667 24.192 64.144 23.7333 63.2054 22.816C62.2667 21.8987 61.7974 20.5867 61.7974 18.88V9.568H58.9174V7.04H61.7974V3.328H64.8694V7.04H69.7334V9.568H64.8694V18.752C64.8694 19.6693 65.0934 20.3733 65.5414 20.864C66.0107 21.3547 66.672 21.6 67.5254 21.6C68.464 21.6 69.264 21.3333 69.9254 20.8L70.8854 23.008ZM90.4074 7.04V24H87.4954V21.44C86.8767 22.3147 86.0554 22.9973 85.0314 23.488C84.0287 23.9573 82.93 24.192 81.7354 24.192C79.474 24.192 77.6927 23.5733 76.3914 22.336C75.09 21.0773 74.4394 19.232 74.4394 16.8V7.04H77.5114V16.448C77.5114 18.0907 77.906 19.3387 78.6954 20.192C79.4847 21.024 80.6154 21.44 82.0874 21.44C83.7087 21.44 84.9887 20.9493 85.9274 19.968C86.866 18.9867 87.3354 17.6 87.3354 15.808V7.04H90.4074ZM101.12 24.192C99.733 24.192 98.3996 24.0107 97.1196 23.648C95.8396 23.264 94.837 22.784 94.1116 22.208L95.3916 19.776C96.1383 20.3093 97.045 20.736 98.1116 21.056C99.1783 21.376 100.256 21.536 101.344 21.536C104.032 21.536 105.376 20.768 105.376 19.232C105.376 18.72 105.194 18.3147 104.832 18.016C104.469 17.7173 104.01 17.504 103.456 17.376C102.922 17.2267 102.154 17.0667 101.152 16.896C99.7863 16.6827 98.6663 16.4373 97.7916 16.16C96.9383 15.8827 96.2023 15.4133 95.5836 14.752C94.965 14.0907 94.6556 13.1627 94.6556 11.968C94.6556 10.432 95.2956 9.20533 96.5756 8.288C97.8556 7.34933 99.573 6.88 101.728 6.88C102.858 6.88 103.989 7.01867 105.12 7.296C106.25 7.57333 107.178 7.94667 107.904 8.416L106.592 10.848C105.205 9.952 103.573 9.504 101.696 9.504C100.394 9.504 99.4023 9.71733 98.7196 10.144C98.037 10.5707 97.6956 11.136 97.6956 11.84C97.6956 12.3947 97.8876 12.832 98.2716 13.152C98.6556 13.472 99.125 13.7067 99.6796 13.856C100.256 14.0053 101.056 14.176 102.08 14.368C103.445 14.6027 104.544 14.8587 105.376 15.136C106.229 15.392 106.954 15.84 107.552 16.48C108.149 17.12 108.448 18.016 108.448 19.168C108.448 20.704 107.786 21.9307 106.464 22.848C105.162 23.744 103.381 24.192 101.12 24.192ZM130.065 1.6C132.966 1.6 135.249 2.29333 136.913 3.68C138.577 5.06667 139.409 6.976 139.409 9.408C139.409 11.84 138.577 13.7493 136.913 15.136C135.249 16.5227 132.966 17.216 130.065 17.216H124.529V24H121.329V1.6H130.065ZM129.969 14.432C131.995 14.432 133.542 14.0053 134.609 13.152C135.675 12.2773 136.209 11.0293 136.209 9.408C136.209 7.78667 135.675 6.54933 134.609 5.696C133.542 4.82133 131.995 4.384 129.969 4.384H124.529V14.432H129.969ZM143.974 0.255999H147.046V24H143.974V0.255999ZM159.088 6.88C161.435 6.88 163.227 7.456 164.464 8.608C165.723 9.76 166.352 11.4773 166.352 13.76V24H163.44V21.76C162.928 22.5493 162.192 23.1573 161.232 23.584C160.293 23.9893 159.173 24.192 157.872 24.192C155.973 24.192 154.448 23.7333 153.296 22.816C152.165 21.8987 151.6 20.6933 151.6 19.2C151.6 17.7067 152.144 16.512 153.232 15.616C154.32 14.6987 156.048 14.24 158.416 14.24H163.28V13.632C163.28 12.3093 162.896 11.296 162.128 10.592C161.36 9.888 160.229 9.536 158.736 9.536C157.733 9.536 156.752 9.70667 155.792 10.048C154.832 10.368 154.021 10.8053 153.36 11.36L152.08 9.056C152.955 8.352 154 7.81867 155.216 7.456C156.432 7.072 157.723 6.88 159.088 6.88ZM158.384 21.824C159.557 21.824 160.571 21.568 161.424 21.056C162.277 20.5227 162.896 19.776 163.28 18.816V16.448H158.544C155.941 16.448 154.64 17.3227 154.64 19.072C154.64 19.9253 154.971 20.5973 155.632 21.088C156.293 21.5787 157.211 21.824 158.384 21.824ZM181.093 6.88C183.248 6.88 184.954 7.50933 186.213 8.768C187.493 10.0053 188.133 11.8293 188.133 14.24V24H185.061V14.592C185.061 12.9493 184.666 11.712 183.877 10.88C183.088 10.048 181.957 9.632 180.485 9.632C178.821 9.632 177.509 10.1227 176.549 11.104C175.589 12.064 175.109 13.4507 175.109 15.264V24H172.037V7.04H174.981V9.6C175.6 8.72533 176.432 8.05333 177.477 7.584C178.544 7.11467 179.749 6.88 181.093 6.88ZM203.354 23.008C202.906 23.392 202.351 23.6907 201.69 23.904C201.029 24.096 200.346 24.192 199.642 24.192C197.935 24.192 196.613 23.7333 195.674 22.816C194.735 21.8987 194.266 20.5867 194.266 18.88V9.568H191.386V7.04H194.266V3.328H197.338V7.04H202.202V9.568H197.338V18.752C197.338 19.6693 197.562 20.3733 198.01 20.864C198.479 21.3547 199.141 21.6 199.994 21.6C200.933 21.6 201.733 21.3333 202.394 20.8L203.354 23.008Z" fill="#156963"/>
</svg>
