<svg width="219" height="26" viewBox="0 0 219 26" fill="none" xmlns="http://www.w3.org/2000/svg">
<path d="M15.3359 25L10.5039 18.12C9.90655 18.1627 9.43721 18.184 9.09588 18.184H3.55988V25H0.359878V2.6H9.09588C11.9972 2.6 14.2799 3.29333 15.9439 4.68C17.6079 6.06667 18.4399 7.976 18.4399 10.408C18.4399 12.136 18.0132 13.608 17.1599 14.824C16.3065 16.04 15.0905 16.9253 13.5119 17.48L18.8239 25H15.3359ZM8.99988 15.464C11.0265 15.464 12.5732 15.0267 13.6399 14.152C14.7065 13.2773 15.2399 12.0293 15.2399 10.408C15.2399 8.78667 14.7065 7.54933 13.6399 6.696C12.5732 5.82133 11.0265 5.384 8.99988 5.384H3.55988V15.464H8.99988ZM29.1816 7.88C31.5283 7.88 33.3203 8.456 34.5576 9.608C35.8163 10.76 36.4456 12.4773 36.4456 14.76V25H33.5336V22.76C33.0216 23.5493 32.2856 24.1573 31.3256 24.584C30.387 24.9893 29.267 25.192 27.9656 25.192C26.067 25.192 24.5416 24.7333 23.3896 23.816C22.259 22.8987 21.6936 21.6933 21.6936 20.2C21.6936 18.7067 22.2376 17.512 23.3256 16.616C24.4136 15.6987 26.1416 15.24 28.5096 15.24H33.3736V14.632C33.3736 13.3093 32.9896 12.296 32.2216 11.592C31.4536 10.888 30.323 10.536 28.8296 10.536C27.827 10.536 26.8456 10.7067 25.8856 11.048C24.9256 11.368 24.115 11.8053 23.4536 12.36L22.1736 10.056C23.0483 9.352 24.0936 8.81867 25.3096 8.456C26.5256 8.072 27.8163 7.88 29.1816 7.88ZM28.4776 22.824C29.651 22.824 30.6643 22.568 31.5176 22.056C32.371 21.5227 32.9896 20.776 33.3736 19.816V17.448H28.6376C26.035 17.448 24.7336 18.3227 24.7336 20.072C24.7336 20.9253 25.0643 21.5973 25.7256 22.088C26.387 22.5787 27.3043 22.824 28.4776 22.824ZM51.1866 7.88C53.3413 7.88 55.048 8.50933 56.3066 9.768C57.5866 11.0053 58.2266 12.8293 58.2266 15.24V25H55.1546V15.592C55.1546 13.9493 54.76 12.712 53.9706 11.88C53.1813 11.048 52.0506 10.632 50.5786 10.632C48.9146 10.632 47.6026 11.1227 46.6426 12.104C45.6826 13.064 45.2026 14.4507 45.2026 16.264V25H42.1306V1.256H45.2026V10.44C45.8426 9.62933 46.6746 9 47.6986 8.552C48.744 8.104 49.9066 7.88 51.1866 7.88ZM70.0879 7.88C72.4345 7.88 74.2265 8.456 75.4639 9.608C76.7225 10.76 77.3519 12.4773 77.3519 14.76V25H74.4399V22.76C73.9279 23.5493 73.1919 24.1573 72.2319 24.584C71.2932 24.9893 70.1732 25.192 68.8719 25.192C66.9732 25.192 65.4479 24.7333 64.2959 23.816C63.1652 22.8987 62.5999 21.6933 62.5999 20.2C62.5999 18.7067 63.1439 17.512 64.2319 16.616C65.3199 15.6987 67.0479 15.24 69.4159 15.24H74.2799V14.632C74.2799 13.3093 73.8959 12.296 73.1279 11.592C72.3599 10.888 71.2292 10.536 69.7359 10.536C68.7332 10.536 67.7519 10.7067 66.7919 11.048C65.8319 11.368 65.0212 11.8053 64.3599 12.36L63.0799 10.056C63.9545 9.352 64.9999 8.81867 66.2159 8.456C67.4319 8.072 68.7225 7.88 70.0879 7.88ZM69.3839 22.824C70.5572 22.824 71.5705 22.568 72.4239 22.056C73.2772 21.5227 73.8959 20.776 74.2799 19.816V17.448H69.5439C66.9412 17.448 65.6399 18.3227 65.6399 20.072C65.6399 20.9253 65.9705 21.5973 66.6319 22.088C67.2932 22.5787 68.2105 22.824 69.3839 22.824ZM87.9009 25.192C86.5142 25.192 85.1809 25.0107 83.9009 24.648C82.6209 24.264 81.6182 23.784 80.8929 23.208L82.1729 20.776C82.9195 21.3093 83.8262 21.736 84.8929 22.056C85.9595 22.376 87.0369 22.536 88.1249 22.536C90.8129 22.536 92.1569 21.768 92.1569 20.232C92.1569 19.72 91.9755 19.3147 91.6129 19.016C91.2502 18.7173 90.7915 18.504 90.2369 18.376C89.7035 18.2267 88.9355 18.0667 87.9329 17.896C86.5675 17.6827 85.4475 17.4373 84.5729 17.16C83.7195 16.8827 82.9835 16.4133 82.3649 15.752C81.7462 15.0907 81.4369 14.1627 81.4369 12.968C81.4369 11.432 82.0769 10.2053 83.3569 9.288C84.6369 8.34933 86.3542 7.88 88.5089 7.88C89.6395 7.88 90.7702 8.01867 91.9009 8.296C93.0315 8.57333 93.9595 8.94667 94.6849 9.416L93.3729 11.848C91.9862 10.952 90.3542 10.504 88.4769 10.504C87.1755 10.504 86.1835 10.7173 85.5009 11.144C84.8182 11.5707 84.4769 12.136 84.4769 12.84C84.4769 13.3947 84.6689 13.832 85.0529 14.152C85.4369 14.472 85.9062 14.7067 86.4609 14.856C87.0369 15.0053 87.8369 15.176 88.8609 15.368C90.2262 15.6027 91.3249 15.8587 92.1569 16.136C93.0102 16.392 93.7355 16.84 94.3329 17.48C94.9302 18.12 95.2289 19.016 95.2289 20.168C95.2289 21.704 94.5675 22.9307 93.2449 23.848C91.9435 24.744 90.1622 25.192 87.9009 25.192ZM99.0681 8.04H102.14V25H99.0681V8.04ZM100.604 4.776C100.007 4.776 99.5055 4.584 99.1001 4.2C98.7161 3.816 98.5241 3.34667 98.5241 2.792C98.5241 2.23733 98.7161 1.768 99.1001 1.384C99.5055 0.978666 100.007 0.775999 100.604 0.775999C101.201 0.775999 101.692 0.967999 102.076 1.352C102.481 1.71467 102.684 2.17333 102.684 2.728C102.684 3.304 102.481 3.79467 102.076 4.2C101.692 4.584 101.201 4.776 100.604 4.776ZM114.182 7.88C116.528 7.88 118.32 8.456 119.558 9.608C120.816 10.76 121.446 12.4773 121.446 14.76V25H118.534V22.76C118.022 23.5493 117.286 24.1573 116.326 24.584C115.387 24.9893 114.267 25.192 112.966 25.192C111.067 25.192 109.542 24.7333 108.39 23.816C107.259 22.8987 106.694 21.6933 106.694 20.2C106.694 18.7067 107.238 17.512 108.326 16.616C109.414 15.6987 111.142 15.24 113.51 15.24H118.374V14.632C118.374 13.3093 117.99 12.296 117.222 11.592C116.454 10.888 115.323 10.536 113.83 10.536C112.827 10.536 111.846 10.7067 110.886 11.048C109.926 11.368 109.115 11.8053 108.454 12.36L107.174 10.056C108.048 9.352 109.094 8.81867 110.31 8.456C111.526 8.072 112.816 7.88 114.182 7.88ZM113.478 22.824C114.651 22.824 115.664 22.568 116.518 22.056C117.371 21.5227 117.99 20.776 118.374 19.816V17.448H113.638C111.035 17.448 109.734 18.3227 109.734 20.072C109.734 20.9253 110.064 21.5973 110.726 22.088C111.387 22.5787 112.304 22.824 113.478 22.824ZM144.908 2.6C147.81 2.6 150.092 3.29333 151.756 4.68C153.42 6.06667 154.252 7.976 154.252 10.408C154.252 12.84 153.42 14.7493 151.756 16.136C150.092 17.5227 147.81 18.216 144.908 18.216H139.372V25H136.172V2.6H144.908ZM144.812 15.432C146.839 15.432 148.386 15.0053 149.452 14.152C150.519 13.2773 151.052 12.0293 151.052 10.408C151.052 8.78667 150.519 7.54933 149.452 6.696C148.386 5.82133 146.839 5.384 144.812 5.384H139.372V15.432H144.812ZM158.818 1.256H161.89V25H158.818V1.256ZM173.932 7.88C176.278 7.88 178.07 8.456 179.308 9.608C180.566 10.76 181.196 12.4773 181.196 14.76V25H178.284V22.76C177.772 23.5493 177.036 24.1573 176.076 24.584C175.137 24.9893 174.017 25.192 172.716 25.192C170.817 25.192 169.292 24.7333 168.14 23.816C167.009 22.8987 166.444 21.6933 166.444 20.2C166.444 18.7067 166.988 17.512 168.076 16.616C169.164 15.6987 170.892 15.24 173.26 15.24H178.124V14.632C178.124 13.3093 177.74 12.296 176.972 11.592C176.204 10.888 175.073 10.536 173.58 10.536C172.577 10.536 171.596 10.7067 170.636 11.048C169.676 11.368 168.865 11.8053 168.204 12.36L166.924 10.056C167.798 9.352 168.844 8.81867 170.06 8.456C171.276 8.072 172.566 7.88 173.932 7.88ZM173.228 22.824C174.401 22.824 175.414 22.568 176.268 22.056C177.121 21.5227 177.74 20.776 178.124 19.816V17.448H173.388C170.785 17.448 169.484 18.3227 169.484 20.072C169.484 20.9253 169.814 21.5973 170.476 22.088C171.137 22.5787 172.054 22.824 173.228 22.824ZM195.937 7.88C198.091 7.88 199.798 8.50933 201.057 9.768C202.337 11.0053 202.977 12.8293 202.977 15.24V25H199.905V15.592C199.905 13.9493 199.51 12.712 198.721 11.88C197.931 11.048 196.801 10.632 195.329 10.632C193.665 10.632 192.353 11.1227 191.393 12.104C190.433 13.064 189.953 14.4507 189.953 16.264V25H186.881V8.04H189.825V10.6C190.443 9.72533 191.275 9.05333 192.321 8.584C193.387 8.11467 194.593 7.88 195.937 7.88ZM218.198 24.008C217.75 24.392 217.195 24.6907 216.534 24.904C215.873 25.096 215.19 25.192 214.486 25.192C212.779 25.192 211.457 24.7333 210.518 23.816C209.579 22.8987 209.11 21.5867 209.11 19.88V10.568H206.23V8.04H209.11V4.328H212.182V8.04H217.046V10.568H212.182V19.752C212.182 20.6693 212.406 21.3733 212.854 21.864C213.323 22.3547 213.985 22.6 214.838 22.6C215.777 22.6 216.577 22.3333 217.238 21.8L218.198 24.008Z" fill="white"/>
</svg>
